<svg xmlns="http://www.w3.org/2000/svg" width="120.303" height="25" viewBox="0 0 120.303 25">
  <g id="logo-14" transform="translate(0.648)">
    <path id="Path_226" data-name="Path 226" d="M45.168,17.04a.415.415,0,0,0-.493.076.178.178,0,0,0-.051.034,1.351,1.351,0,0,1-.765.425,2.592,2.592,0,0,1-.442.042.542.542,0,0,1-.476-.484c-.008-.34,0-.68.008-1.019,0-.093.042-.153.153-.136a1.389,1.389,0,0,0,1.13-.45,1.207,1.207,0,0,0,.4-.578,1.186,1.186,0,0,0-.119-.883,1.282,1.282,0,0,0-1.41-.807,1.809,1.809,0,0,0-.688.246,10.028,10.028,0,0,0-1.58,1.283c-.731.68-1.427,1.4-2.149,2.09a2.075,2.075,0,0,1-1.351.535.706.706,0,0,1-.688-.391,2.4,2.4,0,0,1-.289-.926,5.331,5.331,0,0,1-.008-1.164,2.088,2.088,0,0,1,.255-.875c.4-.714.807-1.427,1.223-2.132.671-1.147,1.351-2.285,1.911-3.491a6.779,6.779,0,0,0,.62-2.03,2.755,2.755,0,0,0-.136-1.257,1.44,1.44,0,0,0-1.894-.824,1.718,1.718,0,0,0-.748.578,6.175,6.175,0,0,0-1.113,2.243c-.2.739-.348,1.487-.5,2.243-.187.968-.357,1.937-.544,2.905a3.247,3.247,0,0,1-.68,1.529c-.357.408-.731.807-1.113,1.189a16.948,16.948,0,0,1-2.319,1.945A2.411,2.411,0,0,1,30,17.414a.721.721,0,0,1-.688-.382,2.346,2.346,0,0,1-.3-.858,4.721,4.721,0,0,1,.008-1.546,1.46,1.46,0,0,1,.136-.51c.4-.7.8-1.393,1.215-2.09a38.965,38.965,0,0,0,1.937-3.5,6.871,6.871,0,0,0,.629-1.86,2.705,2.705,0,0,0-.136-1.6,1.44,1.44,0,0,0-1.86-.739,2,2,0,0,0-.875.739,6.752,6.752,0,0,0-1.019,2.183c-.161.6-.289,1.215-.408,1.826-.187.985-.357,1.971-.544,2.948a7.975,7.975,0,0,1-.238.883,3.417,3.417,0,0,1-.892,1.368c-.671.654-1.334,1.3-2,1.954-.042.042-.085.1-.136.119a.982.982,0,0,0-.391.306c-.2.2-.4.416-.612.6a3.493,3.493,0,0,1-.459.331,1.01,1.01,0,0,1-.883.068.491.491,0,0,1-.323-.357,3.788,3.788,0,0,1-.068-.977c0-.2.034-.229.229-.212a1.088,1.088,0,0,0,.518-.076,1.9,1.9,0,0,0,.815-.646.976.976,0,0,0,.221-.705,1.963,1.963,0,0,0-.323-.849,1.39,1.39,0,0,0-.815-.561.759.759,0,0,0-.476,0,1.779,1.779,0,0,1-.2.068,1.967,1.967,0,0,0-.79.416c-.229.187-.5.323-.637.612a.387.387,0,0,1-.1.1,19.905,19.905,0,0,0-1.512,1.419c-.484.467-.968.934-1.461,1.393a1.511,1.511,0,0,1-.323.238.272.272,0,0,1-.408-.085c-.025-.034-.042-.068-.068-.1-.484-.714-.9-1.453-1.317-2.2a4.884,4.884,0,0,0-.476-.705.607.607,0,0,0-.756-.178,2.565,2.565,0,0,0-.62.374c-.722.569-1.436,1.155-2.141,1.733a5.018,5.018,0,0,1-1.478.917,2.508,2.508,0,0,1-1.809,0A4.8,4.8,0,0,1,6.44,16.1a.571.571,0,0,1-.068-.841c.1-.119.178-.255.272-.382A11.157,11.157,0,0,0,8.207,11.6,11.2,11.2,0,0,0,8.666,9a10.4,10.4,0,0,0-.722-4.6A8.5,8.5,0,0,0,6.78,2.362,7.116,7.116,0,0,0,3.968.17C3.841.119,3.722.059,3.6,0A.348.348,0,0,0,3.51.008C3.408.068,3.3.1,3.2.17a.891.891,0,0,0-.357.578c-.085.348-.153.7-.221,1.053-.119.586-.229,1.172-.348,1.758L1.921,5.318C1.8,5.9,1.692,6.5,1.573,7.093s-.238,1.181-.357,1.775S.987,10.041.868,10.627C.715,11.391.553,12.156.4,12.92S.1,14.441-.05,15.2s-.306,1.521-.459,2.277c-.042.212-.093.425-.127.637-.059.365.085.68.569.663a8.376,8.376,0,0,0,1.6-.2,7.526,7.526,0,0,0,2.192-.909c.365-.229.714-.476,1.07-.714a1,1,0,0,1,.229-.127.523.523,0,0,1,.493.11c.552.382,1.1.765,1.665,1.13a4.441,4.441,0,0,0,1.538.637,2.537,2.537,0,0,0,1.13-.017,3.56,3.56,0,0,0,1.274-.62c.731-.561,1.444-1.147,2.166-1.724.263-.212.518-.459.782-.68.187-.161.3-.144.416.068.374.646.731,1.3,1.1,1.945a2.661,2.661,0,0,0,.765.892.872.872,0,0,0,.688.178,2.241,2.241,0,0,0,.722-.263,6.413,6.413,0,0,0,1.359-1.13c.4-.408.8-.832,1.206-1.24.17-.178.357-.331.544-.493a.178.178,0,0,1,.144-.034c.017,0,.025.076.034.119.008.025-.008.051-.008.076-.017.357-.059.722-.042,1.079a2.684,2.684,0,0,0,.289,1.172,1.213,1.213,0,0,0,.646.62A2.8,2.8,0,0,0,23,18.773a1.8,1.8,0,0,0,.773-.221,4.882,4.882,0,0,0,1.079-.832c.306-.28.586-.586.883-.875a.6.6,0,0,1,.119-.085c.017.008.025.025.042.034l-.076.153c-.136.221-.28.442-.416.671s-.28.467-.408.705-.28.433-.391.671c-.272.6-.595,1.189-.883,1.784a5.217,5.217,0,0,0-.527,2.115,2.17,2.17,0,0,0,.391,1.325,1.506,1.506,0,0,0,1.69.391,2.035,2.035,0,0,0,.79-.654,6.925,6.925,0,0,0,1.121-2.421c.136-.518.238-1.045.34-1.572.178-.951.382-1.9.476-2.871a.5.5,0,0,1,.042-.161h.051c.017.059.042.127.059.187a1.327,1.327,0,0,0,.2.51,4.131,4.131,0,0,0,.45.493,1.65,1.65,0,0,0,1.546.357,3.2,3.2,0,0,0,1.1-.51c.45-.314.883-.646,1.325-.977.051-.042.093-.1.187-.034-.051.1-.11.187-.161.28-.561,1.036-1.13,2.064-1.682,3.109A6.445,6.445,0,0,0,30.4,22.6a2.576,2.576,0,0,0,.238,1.4,1.45,1.45,0,0,0,1.809.62,1.84,1.84,0,0,0,.731-.569,5.751,5.751,0,0,0,.714-1.181,10.389,10.389,0,0,0,.722-2.413c.085-.425.161-.858.238-1.283.127-.705.246-1.4.374-2.107a.884.884,0,0,1,.051-.136h.051a1.945,1.945,0,0,1,.085.2,2.109,2.109,0,0,0,.688.985,1.656,1.656,0,0,0,1.444.391,3.046,3.046,0,0,0,1.223-.535c.51-.365,1.011-.739,1.512-1.113.076-.068.144-.144.221-.212.382-.365.756-.739,1.138-1.1a.208.208,0,0,1,.229-.076c0,.068.008.144.008.212-.008.331-.034.663-.034.994a2.817,2.817,0,0,0,.246,1.206,1.2,1.2,0,0,0,.773.705,1.948,1.948,0,0,0,.858.068,2.866,2.866,0,0,0,1.138-.408,2.014,2.014,0,0,0,.331-.272.665.665,0,0,0,.2-.459A.478.478,0,0,0,45.168,17.04Zm-1.716-2.778a.285.285,0,0,1,.289.28.385.385,0,0,1-.382.374.3.3,0,0,1-.306-.289A.419.419,0,0,1,43.452,14.263Zm-6.881-2.48c.042-.34.085-.688.153-1.028.119-.569.238-1.138.382-1.707a13.294,13.294,0,0,1,.815-2.463,3.771,3.771,0,0,1,.51-.832.9.9,0,0,1,.408-.3.334.334,0,0,1,.416.17.653.653,0,0,1,.076.306,4.835,4.835,0,0,1-.127.782,15.811,15.811,0,0,1-1.147,2.778c-.382.765-.8,1.521-1.257,2.251-.051.076-.11.144-.161.212C36.529,11.91,36.554,11.842,36.571,11.782Zm-7.407-.025A20.189,20.189,0,0,1,29.622,9.4c.136-.544.28-1.1.442-1.631a6.646,6.646,0,0,1,.815-1.826,1.809,1.809,0,0,1,.365-.4.381.381,0,0,1,.62.1.85.85,0,0,1,.051.255,2.848,2.848,0,0,1-.161.96A18.954,18.954,0,0,1,30.3,10.151c-.306.569-.637,1.121-.96,1.673a.639.639,0,0,1-.127.136c-.017-.008-.042-.017-.059-.025A.63.63,0,0,1,29.164,11.757Zm-6.8,2.744a.331.331,0,0,1,.5-.008.159.159,0,0,1,.034.2.435.435,0,0,1-.357.238.285.285,0,0,1-.246-.136A.281.281,0,0,1,22.359,14.5Zm-17.176.2A6.828,6.828,0,0,1,3.1,16.59a4.265,4.265,0,0,1-2.056.586H.927C.808,17.159.783,17.117.808,17c.076-.331.161-.663.229-.994.161-.765.323-1.521.476-2.277.093-.433.17-.858.255-1.283s.153-.858.246-1.283c.11-.527.238-1.062.357-1.589s.238-1.062.357-1.589.229-1.079.348-1.614c.127-.578.246-1.155.374-1.733.11-.544.229-1.087.348-1.631.085-.416.17-.841.255-1.257.042-.2.076-.221.255-.136A4.523,4.523,0,0,1,6.1,3.262,7.523,7.523,0,0,1,7.137,5.9a10.054,10.054,0,0,1,.2,2.081,11.854,11.854,0,0,1-.408,3.033A10.683,10.683,0,0,1,5.183,14.7Zm21.653,3.729q-.115.586-.255,1.172c-.11.45-.229.892-.365,1.334-.127.416-.28.832-.442,1.24a3.356,3.356,0,0,1-.612,1.053,1.207,1.207,0,0,1-.348.272.332.332,0,0,1-.476-.2c-.034-.1-.042-.212-.076-.348a9.932,9.932,0,0,1,.221-.968A24.011,24.011,0,0,1,26.692,17.4c.059-.1.127-.2.2-.306.025-.034.076-.042.11-.068.017.042.059.085.051.119C26.98,17.567,26.921,18,26.836,18.425Zm7.416-1.24c-.042.331-.085.671-.153,1-.11.569-.229,1.13-.374,1.69a13.006,13.006,0,0,1-.909,2.667,2.524,2.524,0,0,1-.51.756,1.029,1.029,0,0,1-.3.2.319.319,0,0,1-.433-.153.807.807,0,0,1-.076-.289,2.353,2.353,0,0,1,.127-.841,16.2,16.2,0,0,1,1.138-2.752,24.21,24.21,0,0,1,1.257-2.251.371.371,0,0,1,.212-.212A.7.7,0,0,1,34.252,17.185Z" transform="translate(0)" fill="#fff" fill-rule="evenodd"/>
    <path id="Path_227" data-name="Path 227" d="M569.011,269.109h-.119c-.161.008-.2.034-.246.187-.128.374-.255.756-.391,1.13a.418.418,0,0,1-.094.127c-.042-.11-.076-.178-.1-.255-.111-.3-.213-.586-.314-.883-.11-.314-.11-.314-.442-.314h-.059c-.093,0-.145.042-.145.136v.289c.009.569.009,1.138.017,1.707h.365a8.526,8.526,0,0,0-.026-1.393.174.174,0,0,1,.161.136c.136.4.28.8.425,1.2a.142.142,0,0,1,.009.059h.246c.094-.255.178-.51.272-.765.06-.161.11-.331.17-.493a1.169,1.169,0,0,1,.076-.144c.017,0,.034.008.051.008a.821.821,0,0,1,.017.144c-.008.331-.025.663-.034.994,0,.085.009.178.017.263h.365c.008-.1.025-.2.025-.306v-1.572C569.258,269.109,569.258,269.109,569.011,269.109Z" transform="translate(-519.52 -246.241)" fill="#fff" fill-rule="evenodd"/>
    <path id="Path_228" data-name="Path 228" d="M775.69,269.1a.7.7,0,0,0-.3-.017c-.034.009-.068.11-.068.17,0,.3.008.595.008.892,0,.059-.008.11-.008.17-.009.008-.026.008-.042.017a.963.963,0,0,1-.128-.136c-.076-.127-.144-.263-.221-.391-.136-.221-.263-.442-.408-.654a.375.375,0,0,0-.391-.085c-.1.042-.076.144-.076.229,0,.527-.008,1.045,0,1.572a2.006,2.006,0,0,0,.042.314c.11,0,.221,0,.323.009.008-.11.034-.229.034-.34,0-.3-.009-.595-.017-.892a.676.676,0,0,1,.034-.11c.06.051.119.076.144.119.238.382.459.765.688,1.147.008.025.008.051.017.076h.365a2.926,2.926,0,0,0,.043-.382V269.26C775.733,269.21,775.716,269.108,775.69,269.1Z" transform="translate(-708.895 -246.189)" fill="#fff" fill-rule="evenodd"/>
    <path id="Path_229" data-name="Path 229" d="M830.364,268.8a.787.787,0,0,0-.765.442,1.421,1.421,0,0,0-.119.875.882.882,0,0,0,.518.748c.026.017.042.059.068.093h.569a.542.542,0,0,1,.11-.127.777.777,0,0,0,.314-.306,1.415,1.415,0,0,0,.043-1.24A.769.769,0,0,0,830.364,268.8Zm.374,1.5a.452.452,0,0,1-.416.306.468.468,0,0,1-.408-.348c-.026-.127-.034-.263-.059-.45a3.027,3.027,0,0,1,.127-.442.359.359,0,0,1,.382-.212.419.419,0,0,1,.374.306A1.42,1.42,0,0,1,830.738,270.291Z" transform="translate(-759.594 -245.962)" fill="#fff" fill-rule="evenodd"/>
    <path id="Path_230" data-name="Path 230" d="M718.995,270.16l-.306-.815a.223.223,0,0,0-.238-.144c-.17,0-.2.017-.255.144-.076.178-.136.357-.2.535-.144.382-.28.773-.433,1.155a.678.678,0,0,0-.059.289h.374c.051-.11.094-.221.136-.331a.212.212,0,0,1,.213-.153h.408a.244.244,0,0,1,.272.2c.034.1.076.2.119.3h.365a2.243,2.243,0,0,0-.051-.255C719.224,270.772,719.106,270.466,718.995,270.16Zm-.416.348a1.628,1.628,0,0,1-.289,0,.082.082,0,0,1-.085-.11c.06-.187.136-.374.2-.552,0-.008.026-.008.051-.017.009.017.034.042.051.076.059.153.11.306.161.459C718.706,270.457,718.689,270.5,718.579,270.508Z" transform="translate(-657.144 -246.332)" fill="#fff" fill-rule="evenodd"/>
    <path id="Path_231" data-name="Path 231" d="M671.83,270.647H671.3c-.17,0-.2-.034-.2-.2v-1.266a1.036,1.036,0,0,0-.008-.161.14.14,0,0,0-.06-.093.219.219,0,0,0-.34.2v1.546c0,.127.017.246.026.365h1.266l.025-.178C672.034,270.689,671.991,270.647,671.83,270.647Z" transform="translate(-614.319 -246.046)" fill="#fff" fill-rule="evenodd"/>
    <path id="Path_232" data-name="Path 232" d="M629.538,269.088c-.2-.008-.238.025-.238.246v1.546a2.314,2.314,0,0,0,.034.34c.11,0,.212,0,.331-.008a.966.966,0,0,0,.051-.212v-1.724C629.716,269.13,629.682,269.1,629.538,269.088Z" transform="translate(-576.436 -246.228)" fill="#fff" fill-rule="evenodd"/>
    <path id="Path_233" data-name="Path 233" d="M780.838,125.2a.547.547,0,0,0,.076.068.925.925,0,0,0,.62.2,1.391,1.391,0,0,0,.263-.051.547.547,0,0,0,.374-.493.4.4,0,0,0-.025-.144.739.739,0,0,0-.654-.51.76.76,0,0,0-.731.391.477.477,0,0,0,.009.442A.888.888,0,0,0,780.838,125.2Z" transform="translate(-714.986 -113.713)" fill="#fff" fill-rule="evenodd"/>
    <path id="Path_234" data-name="Path 234" d="M676.14,21.328a1.478,1.478,0,0,0-.238-.221,1.731,1.731,0,0,1-.561-.782,6.817,6.817,0,0,0-.34-.849,3.169,3.169,0,0,0-2.583-1.775,3.354,3.354,0,0,0-2.574.807.721.721,0,0,1-.085.059c-.017.008-.043.025-.059.034-.017-.017-.043-.025-.026-.1.026-.093.059-.187.076-.28.068-.331.144-.663.2-.994a3.311,3.311,0,0,1,.161-.586,4.742,4.742,0,0,1,.51-.96c.391-.569.773-1.147,1.155-1.724a18.412,18.412,0,0,0,1.062-1.92,10.3,10.3,0,0,0,.7-1.606c.051-.161.1-.323.145-.493a4.157,4.157,0,0,0,.042-1.8,1.042,1.042,0,0,0-.451-.68,1.413,1.413,0,0,0-1.249-.144,1.954,1.954,0,0,0-1.13.968,8,8,0,0,0-.34.782c-.034.076-.059.161-.093.238-.009.017-.017.042-.026.059l-.076.2a10.452,10.452,0,0,0-.4,1.334c-.2.883-.357,1.775-.527,2.659-.136.688-.263,1.376-.416,2.056a1.722,1.722,0,0,1-.076.28,2.066,2.066,0,0,1-.433.714c-.085.085-.161.17-.238.255a13.869,13.869,0,0,1-3.143,2.336,27.116,27.116,0,0,1-3.407,1.614,2.2,2.2,0,0,1-1.418.11,1.129,1.129,0,0,1-.943-1.291,1.694,1.694,0,0,1,.076-.314,1.084,1.084,0,0,1,1.291-.646,2.9,2.9,0,0,1,.586.229.839.839,0,0,0,.476.068.421.421,0,0,0,.289-.2.846.846,0,0,0,.059-.127.536.536,0,0,0-.1-.586,1.367,1.367,0,0,0-.892-.476,9.352,9.352,0,0,0-2-.161,13.08,13.08,0,0,0-2.506.272,10.1,10.1,0,0,0-1.665.476c-.416.161-.832.34-1.24.518a.16.16,0,0,1-.229-.059c-.025-.034-.051-.076-.076-.119a1.688,1.688,0,0,0-.578-.62,2.3,2.3,0,0,0-1.886-.246,4.447,4.447,0,0,0-1.521.807c-.578.442-1.147.892-1.733,1.325-.34.255-.7.493-1.062.714a2.676,2.676,0,0,1-1.419.382.777.777,0,0,1-.654-.348,2.067,2.067,0,0,1-.3-.688,4.2,4.2,0,0,1-.093-1.419,4.257,4.257,0,0,1,.212-1.028,1.6,1.6,0,0,1,.128-.272c.28-.527.578-1.045.875-1.555.714-1.2,1.444-2.387,2.056-3.644.119-.246.238-.5.348-.756a5.493,5.493,0,0,0,.4-1.334,2.849,2.849,0,0,0-.144-1.639,1.4,1.4,0,0,0-1.657-.731,1.841,1.841,0,0,0-.985.748,6.112,6.112,0,0,0-.849,1.614,5.364,5.364,0,0,0-.187.595c-.2.79-.357,1.589-.518,2.387-.178.875-.34,1.75-.5,2.625a3.353,3.353,0,0,1-.136.5,3.547,3.547,0,0,1-.773,1.232,18.7,18.7,0,0,1-1.826,1.75,8.285,8.285,0,0,1-1.759,1.206,2.787,2.787,0,0,1-2.328.076,9.654,9.654,0,0,1-1.308-.7c-.255-.161-.527-.314-.8-.45A2.775,2.775,0,0,0,633,18.8a3.153,3.153,0,0,0-2.064.849l-.433.433c-.263.255-.518.518-.782.773-.051.051-.11.127-.187.068-.043-.034-.051-.119-.06-.178a1.365,1.365,0,0,1,0-.263c.017-.263.043-.527.06-.79.026-.433.051-.866.068-1.3a1.019,1.019,0,0,0-.025-.323.559.559,0,0,0-.4-.45.967.967,0,0,0-.739.034,3.028,3.028,0,0,0-.629.4c-.467.416-.917.849-1.368,1.283-.476.442-.943.9-1.419,1.342a1.534,1.534,0,0,1-.3.2.233.233,0,0,1-.34-.076,1.237,1.237,0,0,1-.085-.11c-.348-.578-.7-1.147-1.045-1.724-.2-.331-.374-.68-.595-.994a.727.727,0,0,0-1.113-.2,3.516,3.516,0,0,0-.365.255c-.714.578-1.419,1.155-2.132,1.733a4.58,4.58,0,0,1-1.571.917,2.449,2.449,0,0,1-1.461-.008,3.862,3.862,0,0,1-1.291-.722c-.824-.671-1.64-1.359-2.455-2.047-.314-.263-.629-.535-.934-.815-.178-.161-.238-.306-.187-.467a.729.729,0,0,1,.127-.187,1.006,1.006,0,0,0,.094-.1c.272-.3.544-.586.815-.883,1.538-1.724,3.084-3.44,4.621-5.165.433-.484.858-.968,1.274-1.461a.667.667,0,0,0,.094-.17.464.464,0,0,0-.28-.646.831.831,0,0,0-.637.042,1.873,1.873,0,0,0-.484.408q-3.122,3.415-6.235,6.838c-.093.1-.2.2-.3.306-.051.042-.119.1-.178.042-.034-.025-.034-.1-.034-.161a.592.592,0,0,1,.026-.119c.059-.272.11-.544.17-.815.11-.51.229-1.011.34-1.512.119-.544.246-1.087.365-1.631s.229-1.079.348-1.614c.119-.561.246-1.13.365-1.69s.238-1.113.357-1.673c.111-.527.213-1.053.314-1.58a1.323,1.323,0,0,0-.059-.68.558.558,0,0,0-.612-.4.545.545,0,0,0-.476.314.8.8,0,0,0-.043.085,4.293,4.293,0,0,0-.2.663c-.127.586-.238,1.172-.348,1.758-.127.62-.246,1.24-.374,1.86-.119.569-.229,1.147-.34,1.716-.119.612-.246,1.223-.374,1.835-.11.569-.229,1.147-.34,1.716-.127.62-.246,1.24-.374,1.86-.119.569-.229,1.147-.34,1.716-.119.6-.246,1.215-.365,1.818-.085.442-.178.875-.263,1.317-.068.331-.127.671-.178,1a2.378,2.378,0,0,0,.008.425.28.28,0,0,0,.221.238.46.46,0,0,0,.493-.1,1.669,1.669,0,0,0,.212-.272,1.375,1.375,0,0,0,.085-.153,3.929,3.929,0,0,0,.331-1.028c.153-.654.289-1.317.442-1.971a4.9,4.9,0,0,1,.17-.6c.008-.017.008-.025.017-.034a.322.322,0,0,1,.357-.144.632.632,0,0,1,.2.093c.136.093.263.2.391.3.705.569,1.41,1.155,2.124,1.724A17.671,17.671,0,0,0,615,21.54a4.447,4.447,0,0,0,1.393.544,2.83,2.83,0,0,0,2.209-.561,29.841,29.841,0,0,0,2.438-1.945c.2-.178.391-.357.6-.518.161-.127.263-.1.365.076.314.552.62,1.113.934,1.665a4.229,4.229,0,0,0,.731.994,1.02,1.02,0,0,0,1.011.28,3.429,3.429,0,0,0,.382-.136,4.308,4.308,0,0,0,1.206-.9c.425-.425.832-.858,1.249-1.283.229-.229.476-.45.714-.671a1.251,1.251,0,0,1,.178-.11.59.59,0,0,1,.042.382,11.793,11.793,0,0,0-.025,1.733,3.71,3.71,0,0,0,.1.518.65.65,0,0,0,.518.467,1.051,1.051,0,0,0,.561-.025,1.951,1.951,0,0,0,.832-.569c.246-.255.484-.518.731-.765a3.257,3.257,0,0,1,.773-.586,1.824,1.824,0,0,1,1.826-.076c.391.212.782.442,1.155.68a5.637,5.637,0,0,0,1.376.688,3.877,3.877,0,0,0,2.965-.3,9.9,9.9,0,0,0,2-1.393c.476-.408.934-.832,1.4-1.249.034-.034.094-.034.136-.051a.669.669,0,0,1,.026.127c0,.323-.026.637-.009.96a3.5,3.5,0,0,0,.221,1.1,2.483,2.483,0,0,0,.9,1.1,1.962,1.962,0,0,0,1.138.374,3,3,0,0,0,1.351-.34,14.094,14.094,0,0,0,1.792-1.13c.289-.2.578-.4.883-.586.187-.119.323-.068.416.127a1.862,1.862,0,0,1,.11.306,2.557,2.557,0,0,0,.314.773,1.793,1.793,0,0,0,1.376.875,1.965,1.965,0,0,0,1.113-.263,3.3,3.3,0,0,0,1.368-1.359,2.765,2.765,0,0,1,1.6-1.368,10.852,10.852,0,0,1,1.792-.45c.348-.059.705-.076,1.053-.11a1.379,1.379,0,0,1,.247.017c-.051.1-.085.161-.111.229a2.255,2.255,0,0,0-.17.391A2.281,2.281,0,0,0,659,21.616a2.571,2.571,0,0,0,2.064.484,7.578,7.578,0,0,0,2.056-.629,18.84,18.84,0,0,0,3.092-1.758c.79-.552,1.563-1.13,2.344-1.69.06-.042.128-.076.229-.136a1.431,1.431,0,0,1,0,.2c-.051.263-.11.518-.17.773-.2.892-.391,1.775-.586,2.667a1.054,1.054,0,0,0-.026.28.417.417,0,0,0,.646.34.973.973,0,0,0,.34-.4c.034-.059.06-.11.093-.17.161-.3.323-.595.484-.883.085-.144.161-.289.246-.433a3.24,3.24,0,0,1,1.062-1.138,2.06,2.06,0,0,1,1.614-.314,2.275,2.275,0,0,1,1.614,1.4c.145.331.263.671.416.994a1.865,1.865,0,0,0,.671.782.786.786,0,0,0,.739.085.441.441,0,0,0,.247-.212A.435.435,0,0,0,676.14,21.328Zm-5.9-6.9c.076-.442.153-.883.255-1.317.11-.518.238-1.028.374-1.538a15.321,15.321,0,0,1,.612-1.954,4.862,4.862,0,0,1,.4-.705.8.8,0,0,1,.476-.331.278.278,0,0,1,.382.2.708.708,0,0,1,.025.3,8.281,8.281,0,0,1-.212.909,24.184,24.184,0,0,1-1.588,3.593c-.17.314-.348.629-.535.934a1.88,1.88,0,0,1-.119.153.586.586,0,0,1-.068-.025A1.748,1.748,0,0,1,670.245,14.43Zm-25.782.348c.119-.637.229-1.283.365-1.92.1-.467.221-.926.348-1.385a8.513,8.513,0,0,1,.909-2.277,3.372,3.372,0,0,1,.391-.467.539.539,0,0,1,.229-.119.326.326,0,0,1,.416.229,1.553,1.553,0,0,1,.034.442,4.265,4.265,0,0,1-.28,1.121,18.775,18.775,0,0,1-1.1,2.463c-.357.671-.739,1.325-1.121,1.979-.034.051-.085.093-.127.144-.017-.008-.042-.017-.059-.025A1.364,1.364,0,0,1,644.463,14.778ZM651.641,21a1.372,1.372,0,0,1-.263.017.766.766,0,0,1-.8-.773V20.1a1.44,1.44,0,0,1,.739-1.291h0a1.169,1.169,0,0,1,.637-.161,1.4,1.4,0,0,1,.4.085h0a.709.709,0,0,1,.433.552h0A1.518,1.518,0,0,1,651.641,21Z" transform="translate(-556.592 -3.446)" fill="#fff" fill-rule="evenodd"/>
    <path id="Path_235" data-name="Path 235" d="M172.586,124.545a1.012,1.012,0,0,0,.136.068.983.983,0,0,0,.374.1.754.754,0,0,0,.4-.1.864.864,0,0,0,.153-.11.437.437,0,0,0,.127-.484.707.707,0,0,0-.561-.5.967.967,0,0,0-.221-.017.7.7,0,0,0-.535.28A.485.485,0,0,0,172.586,124.545Z" transform="translate(-158.28 -113.009)" fill="#fff" fill-rule="evenodd"/>
  </g>
</svg>
