<svg xmlns="http://www.w3.org/2000/svg" width="87.008" height="15" viewBox="0 0 87.008 15">
  <g id="logo" transform="translate(0 0.008)">
    <g id="Group_169" data-name="Group 169" transform="translate(0 -0.008)">
      <path id="Path_113" data-name="Path 113" d="M44.475.5A7.21,7.21,0,0,0,36.9,7.972a6.967,6.967,0,0,0,7.319,7.217c4.5,0,7.575-3.122,7.575-7.728C51.794,3.417,48.723.5,44.475.5ZM47.75,12.732a4.242,4.242,0,0,1-3.02,1.228c-3.224,0-5.374-2.61-5.374-6.551a5.983,5.983,0,0,1,1.535-4.4A4.284,4.284,0,0,1,44.014,1.78c3.122,0,5.323,2.61,5.323,6.346A6.222,6.222,0,0,1,47.75,12.732Z" transform="translate(-18.014 -0.24)" fill="#fff"/>
      <path id="Path_114" data-name="Path 114" d="M90.083,6.179V8.226c0,2.354-.154,3.531-1.126,4.453a3.422,3.422,0,0,1-2.406.87,4.444,4.444,0,0,1-2.815-.819c-.819-.717-1.331-1.689-1.331-4.043V6.128A53.709,53.709,0,0,1,82.61.6H80a37.036,37.036,0,0,1,.256,5.528v3.02c0,2.764.665,3.992,1.638,4.862a6.309,6.309,0,0,0,4.2,1.28,5.612,5.612,0,0,0,3.89-1.228c1.74-1.433,1.894-3.634,1.894-5.886V6.128A53.717,53.717,0,0,1,92.079.6H89.724A25.666,25.666,0,0,1,90.083,6.179Z" transform="translate(-39.055 -0.289)" fill="#fff"/>
      <path id="Path_115" data-name="Path 115" d="M158.867,13.6a8.1,8.1,0,0,1-2.508-.2c-.2-.154-.1-3.327-.154-5.016a.05.05,0,0,1,.051-.051c.461,0,2.661.051,3.276.051a2.949,2.949,0,0,1,1.484.358,16.321,16.321,0,0,1,.154-2.15,6.558,6.558,0,0,1-1.74.154h-3.173c-.051,0-.051-.051-.051-.1v-4.2a.05.05,0,0,1,.051-.051c1.228,0,2.661.051,3.276.051a3.867,3.867,0,0,1,1.791.461,15.407,15.407,0,0,1,.154-2.1H153.8a33.142,33.142,0,0,1,.256,5.528V9.6c0,2.764-.154,4.913-.2,5.63h6.7a3.693,3.693,0,0,0,1.075-.051,11.048,11.048,0,0,1,.461-2A8.805,8.805,0,0,1,158.867,13.6Z" transform="translate(-75.084 -0.387)" fill="#fff"/>
      <path id="Path_116" data-name="Path 116" d="M125.458,8.684c2.764-1.638,3.634-5.937.307-7.524A8.933,8.933,0,0,0,122.643.7c-.768,0-4.043.051-4.043.051.358,1.587.256,5.425.307,8.854a53.471,53.471,0,0,1-.256,5.63h2.559c-.256-1.638-.256-5.783-.256-5.783,0-.051,0-.1.051-.1.461,0,2.406.051,2.406.051a.456.456,0,0,1,.409.256,46.887,46.887,0,0,0,3.429,4.709,3.112,3.112,0,0,0,1.894.87,4.725,4.725,0,0,0,1.433-.051A59.71,59.71,0,0,1,125.458,8.684Zm-.972-1.126a5.958,5.958,0,0,1-3.378.154c-.051-.051-.051-.051-.051-.2V2.338a.188.188,0,0,1,.051-.154,10.767,10.767,0,0,1,1.433-.051,2.913,2.913,0,0,1,3.173,3.02A2.7,2.7,0,0,1,124.486,7.558Z" transform="translate(-57.899 -0.338)" fill="#fff"/>
      <path id="Path_117" data-name="Path 117" d="M13.5.8Z" transform="translate(-6.591 -0.387)" fill="#fff"/>
      <path id="Path_118" data-name="Path 118" d="M6.909.406C6.756.1,6.7,0,6.654,0,6.551-.055,6.4.406,6.4.406c-.307.614-4.043,9.264-4.043,9.264C1.433,11.819.512,13.815,0,14.839H2.457c.2-.87.819-2.457,1.331-3.941,0-.051.051-.051.1-.051H9.059c.051,0,.051,0,.051.051.512,1.228,1.126,3.071,1.433,3.941h3.122A49.384,49.384,0,0,1,10.8,9.362C9.52,6.24,6.909.406,6.909.406ZM8.547,9.362H4.4c-.051,0-.051,0-.051-.051L6.4,3.937,8.6,9.311C8.6,9.362,8.6,9.362,8.547,9.362Z" transform="translate(0 0.008)" fill="#fff"/>
    </g>
  </g>
</svg>
