<svg xmlns="http://www.w3.org/2000/svg" width="60" height="25" viewBox="0 0 60 25">
  <g id="Group_211" data-name="Group 211" transform="translate(60.77 -3)">
    <rect id="Rectangle_108" data-name="Rectangle 108" width="60" height="25" transform="translate(-60.77 3)" fill="none"/>
    <path id="twitter" d="M25.844,6.484a10.452,10.452,0,0,1-3.044.833,5.332,5.332,0,0,0,2.332-2.933,10.669,10.669,0,0,1-3.367,1.287,5.309,5.309,0,0,0-9.036,4.836A15.051,15.051,0,0,1,1.8,4.965a5.31,5.31,0,0,0,1.641,7.078,5.3,5.3,0,0,1-2.4-.661v.065a5.3,5.3,0,0,0,4.256,5.2,5.31,5.31,0,0,1-1.4.187,5.449,5.449,0,0,1-1-.1,5.321,5.321,0,0,0,4.952,3.685,10.637,10.637,0,0,1-6.587,2.272,10.466,10.466,0,0,1-1.267-.076A15,15,0,0,0,8.126,25,14.987,14.987,0,0,0,23.214,9.912c0-.232,0-.46-.015-.687a10.674,10.674,0,0,0,2.645-2.741Z" transform="translate(-43.764 1)" fill="#fff" opacity="0.8"/>
  </g>
</svg>
