<svg xmlns="http://www.w3.org/2000/svg" width="109.346" height="15" viewBox="0 0 109.346 15">
  <g id="logo-6" transform="translate(0 -0.1)">
    <path id="Path_166" data-name="Path 166" d="M12.43,16.038a2.1,2.1,0,0,0-.514-.047H10.888a1.917,1.917,0,0,0-.514.047c-.093-.28-.234-.654-.374-1.075s-.327-.888-.514-1.355l-.561-1.4c-.187-.467-.374-.935-.561-1.355A11.387,11.387,0,0,1,7.1,10.8H4.579a10.974,10.974,0,0,0-1.215.047c-.421,1.028-.794,2.009-1.121,2.9-.327.935-.607,1.682-.748,2.29a3.777,3.777,0,0,0-.748-.047A3.777,3.777,0,0,0,0,16.038c1.075-2.29,2.1-4.579,3.084-6.822C4.112,6.973,5.093,4.636,6.121,2.3h.421c.327.748.654,1.589,1.028,2.477L8.692,7.44c.374.888.748,1.822,1.121,2.71s.748,1.729,1.075,2.477.654,1.449.888,2.056C12.056,15.291,12.29,15.711,12.43,16.038ZM3.738,9.917H7.009A9,9,0,0,0,8.131,9.87L5.888,4.917Z" transform="translate(0 -1.172)" fill="#fff"/>
    <path id="Path_167" data-name="Path 167" d="M31.387,4.259c0-.514,0-1.028-.047-1.542,0-.514-.047-.981-.047-1.449S31.247.427,31.247.1a8.239,8.239,0,0,0,.888.093A8.239,8.239,0,0,0,33.022.1c-.047.28-.047.654-.093,1.121,0,.467-.047.935-.047,1.449s0,1.028-.047,1.542v6.449c0,.514,0,1.028.047,1.542,0,.514.047.981.047,1.449s.047.841.047,1.121a5.655,5.655,0,0,0-.888-.047,5.958,5.958,0,0,0-.888.047,7.938,7.938,0,0,0,.047-1.121c0-.467.047-.935.047-1.449s0-1.028.047-1.542v-5A12.7,12.7,0,0,0,31.387,4.259Z" transform="translate(-16.621)" fill="#fff"/>
    <path id="Path_168" data-name="Path 168" d="M42.537,6.047c-.047.514-.047.981-.093,1.449,0,.467-.047.981-.047,1.449h.794A11.815,11.815,0,0,0,44.453,8.9v.841a1.917,1.917,0,0,1-.514-.047H42.35a5.078,5.078,0,0,0-.047.607c0,.374-.047.794-.047,1.308s0,1.028-.047,1.589v1.5a7.92,7.92,0,0,0,.047,1.075,2.765,2.765,0,0,0,.187.935,1.849,1.849,0,0,0,.467.7,1.26,1.26,0,0,0,.888.234,1.61,1.61,0,0,0,.421-.047c.187-.047.327-.047.467-.093v.467c-.234.047-.467.093-.748.14a4.6,4.6,0,0,1-.794.093,2.322,2.322,0,0,1-1.822-.607,2.542,2.542,0,0,1-.607-1.776V14.645c0-.421.047-.841.047-1.355s.047-1.028.047-1.636V9.645h-.935a1.029,1.029,0,0,0-.374.047.421.421,0,0,1,.047-.234V9.037A.281.281,0,0,0,39.5,8.85c.607.047,1.028.047,1.308.047a7.586,7.586,0,0,0-.047-.981A10.973,10.973,0,0,0,40.715,6.7L42.35,6h.187Z" transform="translate(-21.042 -3.143)" fill="#fff"/>
    <path id="Path_169" data-name="Path 169" d="M52.2,16.207a5.723,5.723,0,0,1,.421-2.29,4.07,4.07,0,0,1,1.121-1.5,4.964,4.964,0,0,1,1.542-.841,5.292,5.292,0,0,1,1.682-.28,5.576,5.576,0,0,1,1.729.28,4.964,4.964,0,0,1,1.542.841,4.071,4.071,0,0,1,1.121,1.5,5.567,5.567,0,0,1,.421,2.29,5.723,5.723,0,0,1-.421,2.29,4.024,4.024,0,0,1-2.664,2.29,6.341,6.341,0,0,1-3.411,0,4.024,4.024,0,0,1-2.664-2.29A5.723,5.723,0,0,1,52.2,16.207Zm1.729,0a8.739,8.739,0,0,0,.14,1.589,3.9,3.9,0,0,0,.514,1.355,2.56,2.56,0,0,0,.935.935,2.994,2.994,0,0,0,2.9,0,2.974,2.974,0,0,0,.935-.935,4.293,4.293,0,0,0,.514-1.355,9.073,9.073,0,0,0,0-3.178,3.9,3.9,0,0,0-.514-1.355,2.56,2.56,0,0,0-.935-.935,2.994,2.994,0,0,0-2.9,0,2.974,2.974,0,0,0-.935.935,4.293,4.293,0,0,0-.514,1.355A8.739,8.739,0,0,0,53.929,16.207Z" transform="translate(-27.807 -5.966)" fill="#fff"/>
    <path id="Path_170" data-name="Path 170" d="M87.3,16.54a5.562,5.562,0,0,1,1.168-3.785,4.895,4.895,0,0,1,5.14-1.028,3.608,3.608,0,0,1,1.262.888,3.478,3.478,0,0,1,.748,1.262,4.112,4.112,0,0,1,.234,1.542v.374a1.029,1.029,0,0,1-.047.374c-.7,0-1.4-.047-2.1-.047H90.291c-.421,0-.841.047-1.308.047v.514a4.948,4.948,0,0,0,.234,1.449A3.165,3.165,0,0,0,89.87,19.3a2.963,2.963,0,0,0,1.075.748,3.484,3.484,0,0,0,1.449.28,4.6,4.6,0,0,0,.794-.093c.28-.093.561-.187.794-.28.28-.14.514-.28.748-.421a7.188,7.188,0,0,0,.607-.561l.093.047-.14.981a5.312,5.312,0,0,1-1.449.794,4.681,4.681,0,0,1-1.822.327,5,5,0,0,1-1.916-.327,4.5,4.5,0,0,1-1.5-.935,4.416,4.416,0,0,1-.981-1.449A5.083,5.083,0,0,1,87.3,16.54Zm4.533-4.533a2.059,2.059,0,0,0-1.215.327,3.593,3.593,0,0,0-.841.841,4.114,4.114,0,0,0-.514,1.121,5.6,5.6,0,0,0-.187,1.121c.421,0,.841.047,1.262.047h2.617c.467,0,.888-.047,1.308-.047a9.074,9.074,0,0,0-.093-1.121,3.525,3.525,0,0,0-.374-1.121,2.561,2.561,0,0,0-.748-.841A1.88,1.88,0,0,0,91.833,12.007Z" transform="translate(-46.506 -6.02)" fill="#fff"/>
    <path id="Path_171" data-name="Path 171" d="M122.44,7.947c0-.888,0-1.729-.047-2.523-.047-.841-.047-1.682-.093-2.523.514.047.981.047,1.5.047s.981.047,1.5.047.981,0,1.5-.047.981-.047,1.5-.047a7.783,7.783,0,0,1,2.944.467,4.707,4.707,0,0,1,2.009,1.308A5.511,5.511,0,0,1,134.4,6.732a9.74,9.74,0,0,1,.374,2.71,7.113,7.113,0,0,1-.7,3.318,6.161,6.161,0,0,1-1.729,2.15,6.469,6.469,0,0,1-2.336,1.168,8.93,8.93,0,0,1-2.43.327h-3.925a12.244,12.244,0,0,0-1.308.047c.047-.794.093-1.636.093-2.477.047-.841.047-1.682.047-2.57V7.947Zm1.636,3.364c0,1.4.047,2.8.14,4.159q.421.07,1.121.14c.467.047.935.047,1.449.047a11.208,11.208,0,0,0,2.15-.234,4.986,4.986,0,0,0,1.916-.981,5.513,5.513,0,0,0,1.4-1.916,7.744,7.744,0,0,0,.561-3.178,8.055,8.055,0,0,0-.421-2.8,3.914,3.914,0,0,0-1.168-1.729,4.543,4.543,0,0,0-1.776-.888,8.7,8.7,0,0,0-2.243-.234c-.607,0-1.121,0-1.636.047s-.981.093-1.355.14c-.047.607-.047,1.308-.093,1.963,0,.7-.047,1.4-.047,2.1v3.364Z" transform="translate(-65.15 -1.492)" fill="#fff"/>
    <path id="Path_172" data-name="Path 172" d="M154.9,3.281a.981.981,0,1,1,1.963,0,.981.981,0,1,1-1.963,0Zm.28,7.1c0-.607,0-1.215-.047-1.869a11.1,11.1,0,0,0-.14-1.822,8.238,8.238,0,0,0,.888.093,8.238,8.238,0,0,0,.888-.093q-.07.841-.14,1.822c-.047.654-.047,1.262-.047,1.869V12.44c0,.607,0,1.215.047,1.869a10.527,10.527,0,0,0,.14,1.776,5.655,5.655,0,0,0-.888-.047,5.958,5.958,0,0,0-.888.047c.047-.514.093-1.121.14-1.776,0-.654.047-1.262.047-1.869Z" transform="translate(-82.517 -1.172)" fill="#fff"/>
    <path id="Path_173" data-name="Path 173" d="M170.212,12.942a2.345,2.345,0,0,0-.561-.093,1.614,1.614,0,0,0-.841.234,1.75,1.75,0,0,0-.607.561,2.216,2.216,0,0,0-.374.888,3.983,3.983,0,0,0-.14,1.075v4.159c0,.467.047.841.047,1.121a4.534,4.534,0,0,0-.794-.047,5.079,5.079,0,0,0-.841.047c.047-.467.047-1.075.047-1.822V13.877c0-.654-.047-1.449-.047-2.29a1.294,1.294,0,0,0,.421.047c.14,0,.28.047.421.047a1.029,1.029,0,0,0,.374-.047c.14,0,.28-.047.421-.047-.047.467-.093.841-.093,1.121V13.5h.047c.794-1.4,1.635-2.1,2.617-2.1h.327a1.189,1.189,0,0,1,.327.093,4.482,4.482,0,0,0-.14.7v.888l-.14.093A4.341,4.341,0,0,0,170.212,12.942Z" transform="translate(-88.483 -6.02)" fill="#fff"/>
    <path id="Path_174" data-name="Path 174" d="M180.6,3.281a.981.981,0,1,1,1.963,0,.981.981,0,1,1-1.963,0Zm.28,7.1c0-.607,0-1.215-.047-1.869a11.1,11.1,0,0,0-.14-1.822,8.239,8.239,0,0,0,.888.093,8.239,8.239,0,0,0,.888-.093q-.07.841-.14,1.822c0,.654-.047,1.262-.047,1.869V12.44c0,.607,0,1.215.047,1.869a10.527,10.527,0,0,0,.14,1.776,5.655,5.655,0,0,0-.888-.047,5.958,5.958,0,0,0-.888.047c.047-.514.093-1.121.14-1.776,0-.654.047-1.262.047-1.869Z" transform="translate(-96.207 -1.172)" fill="#fff"/>
    <path id="Path_175" data-name="Path 175" d="M192.137,6.047c-.047.514-.047.981-.093,1.449,0,.467-.047.981-.047,1.449h.794a11.815,11.815,0,0,0,1.262-.047v.841a1.917,1.917,0,0,1-.514-.047H191.95a5.079,5.079,0,0,0-.047.607c0,.374-.047.794-.047,1.308s0,1.028-.047,1.589v1.5a7.922,7.922,0,0,0,.047,1.075,2.765,2.765,0,0,0,.187.935,1.849,1.849,0,0,0,.467.7,1.26,1.26,0,0,0,.888.234,1.61,1.61,0,0,0,.421-.047c.187-.047.327-.047.467-.093v.467c-.234.047-.467.093-.748.14a4.6,4.6,0,0,1-.794.093,2.322,2.322,0,0,1-1.822-.607,2.542,2.542,0,0,1-.607-1.776V14.645c0-.421.047-.841.047-1.355s.047-1.028.047-1.636V9.645h-.935a1.029,1.029,0,0,0-.374.047.421.421,0,0,1,.047-.234V9.037a.281.281,0,0,0-.047-.187c.607.047,1.028.047,1.308.047a7.584,7.584,0,0,0-.047-.981,10.975,10.975,0,0,0-.047-1.215L191.95,6h.187Z" transform="translate(-100.735 -3.143)" fill="#fff"/>
    <path id="Path_176" data-name="Path 176" d="M203.891,6.047c-.047.514-.047.981-.093,1.449,0,.467-.047.981-.047,1.449h.794a11.815,11.815,0,0,0,1.262-.047v.841a1.917,1.917,0,0,1-.514-.047H203.75a5.077,5.077,0,0,0-.047.607c0,.374-.047.794-.047,1.308s0,1.028-.047,1.589v1.5a7.922,7.922,0,0,0,.047,1.075,2.765,2.765,0,0,0,.187.935,1.849,1.849,0,0,0,.467.7,1.26,1.26,0,0,0,.888.234,1.61,1.61,0,0,0,.421-.047c.187-.047.327-.047.467-.093v.467c-.234.047-.467.093-.748.14a4.6,4.6,0,0,1-.794.093,2.322,2.322,0,0,1-1.822-.607,2.542,2.542,0,0,1-.607-1.776V14.645c0-.421.047-.841.047-1.355s.047-1.028.047-1.636V9.645h-.935a1.029,1.029,0,0,0-.374.047.421.421,0,0,1,.047-.234V9.037a.281.281,0,0,0-.047-.187c.607.047,1.028.047,1.308.047a7.584,7.584,0,0,0-.047-.981,10.975,10.975,0,0,0-.047-1.215L203.75,6h.14Z" transform="translate(-107.021 -3.143)" fill="#fff"/>
    <path id="Path_177" data-name="Path 177" d="M213.5,16.207a5.723,5.723,0,0,1,.421-2.29,4.07,4.07,0,0,1,1.121-1.5,4.964,4.964,0,0,1,1.542-.841,5.292,5.292,0,0,1,1.682-.28,5.576,5.576,0,0,1,1.729.28,4.964,4.964,0,0,1,1.542.841,4.07,4.07,0,0,1,1.121,1.5,5.567,5.567,0,0,1,.421,2.29,5.723,5.723,0,0,1-.421,2.29A4.024,4.024,0,0,1,220,20.786a6.341,6.341,0,0,1-3.411,0,4.024,4.024,0,0,1-2.664-2.29A5.723,5.723,0,0,1,213.5,16.207Zm1.729,0a8.737,8.737,0,0,0,.14,1.589,3.9,3.9,0,0,0,.514,1.355,2.56,2.56,0,0,0,.935.935,2.994,2.994,0,0,0,2.9,0,2.974,2.974,0,0,0,.935-.935,4.294,4.294,0,0,0,.514-1.355,9.073,9.073,0,0,0,0-3.178,3.9,3.9,0,0,0-.514-1.355,2.56,2.56,0,0,0-.935-.935,2.994,2.994,0,0,0-2.9,0,2.974,2.974,0,0,0-.935.935,4.293,4.293,0,0,0-.514,1.355A8.737,8.737,0,0,0,215.229,16.207Z" transform="translate(-113.734 -5.966)" fill="#fff"/>
  </g>
</svg>
