<svg id="logo-15" xmlns="http://www.w3.org/2000/svg" width="88.176" height="30" viewBox="0 0 88.176 30">
  <path id="Path_236" data-name="Path 236" d="M24.4,60.6h1.785a2.318,2.318,0,0,1,1.552.466,1.557,1.557,0,0,1,.543,1.242,1.7,1.7,0,0,1-.543,1.281,2.431,2.431,0,0,1-1.591.466H24.9v2.988h-.5Zm.466.427v2.6h1.2a1.781,1.781,0,0,0,1.2-.349,1.2,1.2,0,0,0,.427-.97,1.151,1.151,0,0,0-.388-.931,1.738,1.738,0,0,0-1.164-.349Z" transform="translate(-14.93 -37.081)"/>
  <path id="Path_237" data-name="Path 237" d="M41.29,60.539h.5v3.493a3,3,0,0,1-.776,2.212,2.518,2.518,0,0,1-1.94.776,2.663,2.663,0,0,1-1.94-.776,2.918,2.918,0,0,1-.737-2.135V60.5h.5v3.609a2.384,2.384,0,0,0,.621,1.785,2.249,2.249,0,0,0,3.182,0,2.689,2.689,0,0,0,.621-1.863l-.039-3.493Z" transform="translate(-22.273 -37.02)"/>
  <path id="Path_238" data-name="Path 238" d="M53.7,60.6h1.669a2.431,2.431,0,0,1,1.591.466,1.533,1.533,0,0,1,.543,1.2,1.591,1.591,0,0,1-1.242,1.552,3.2,3.2,0,0,1,.854.97L58.551,67h-.582l-1.125-1.746a3.636,3.636,0,0,0-.854-1.087,1.571,1.571,0,0,0-.931-.233H54.2V67h-.5Zm.5.427V63.55h1.087a2.164,2.164,0,0,0,1.242-.31,1.23,1.23,0,0,0,0-1.863,1.969,1.969,0,0,0-1.242-.349Z" transform="translate(-32.859 -37.081)"/>
  <path id="Path_239" data-name="Path 239" d="M69.182,60.5l2.988,6.481h-.5l-1.009-2.212H67.514L66.5,66.981H66L68.988,60.5Zm1.242,3.842-1.4-3.027-1.4,3.027Z" transform="translate(-40.386 -37.02)"/>
  <path id="Path_240" data-name="Path 240" d="M90.6,60.6h1.669a2.431,2.431,0,0,1,1.591.466,1.533,1.533,0,0,1,.543,1.2,1.591,1.591,0,0,1-1.242,1.552,2.749,2.749,0,0,1,.854.97L95.49,67h-.582l-1.125-1.746a4.412,4.412,0,0,0-.854-1.087A1.492,1.492,0,0,0,92,63.938h-.854V67h-.5V60.6Zm.5.427V63.55h1.048a2.164,2.164,0,0,0,1.242-.31,1.23,1.23,0,0,0,0-1.863,1.9,1.9,0,0,0-1.242-.349Z" transform="translate(-55.438 -37.081)"/>
  <rect id="Rectangle_93" data-name="Rectangle 93" width="0.505" height="6.442" transform="translate(40.556 23.519)"/>
  <path id="Path_241" data-name="Path 241" d="M115.321,60.6v6.442h-.427L110,61.415v5.627h-.5V60.6h.427l4.89,5.627V60.6Z" transform="translate(-67.003 -37.081)"/>
  <path id="Path_242" data-name="Path 242" d="M129.782,60.5l2.988,6.481h-.5l-1.009-2.212h-3.144L127.1,66.981h-.5l2.95-6.481Zm1.281,3.842-1.4-3.027-1.4,3.027Z" transform="translate(-77.467 -37.02)"/>
  <path id="Path_243" data-name="Path 243" d="M147.038,60.6v.543a2.784,2.784,0,0,0-1.436-.5,1.419,1.419,0,0,0-.97.349,1.1,1.1,0,0,0-.155,1.514,2.317,2.317,0,0,0,.97.582q.7.291,1.048.466a1.556,1.556,0,0,1,.582.543,1.608,1.608,0,0,1,.233.893,1.674,1.674,0,0,1-.543,1.242,1.814,1.814,0,0,1-1.32.5,3,3,0,0,1-1.669-.582v-.582a2.874,2.874,0,0,0,1.63.7,1.419,1.419,0,0,0,.97-.349,1.151,1.151,0,0,0,.388-.931,1.278,1.278,0,0,0-.233-.737,2.2,2.2,0,0,0-.97-.621c-.5-.194-.854-.349-1.087-.466a1.352,1.352,0,0,1-.543-.5,1.476,1.476,0,0,1-.233-.854,1.591,1.591,0,0,1,.543-1.2,1.814,1.814,0,0,1,1.32-.5,5.538,5.538,0,0,1,1.475.5" transform="translate(-87.93 -36.775)"/>
  <path id="Path_244" data-name="Path 244" d="M160.766,60.943v.543a4.734,4.734,0,0,0-2.29-.621,2.784,2.784,0,0,0-2.833,2.833,2.661,2.661,0,0,0,.815,2.018,2.779,2.779,0,0,0,2.057.776,4.61,4.61,0,0,0,2.29-.66v.5a5.074,5.074,0,0,1-2.29.621,3.432,3.432,0,0,1-2.445-.931,3.048,3.048,0,0,1-.97-2.329,3.166,3.166,0,0,1,1.009-2.367,3.378,3.378,0,0,1,2.367-.931,5.069,5.069,0,0,1,2.29.543" transform="translate(-94.906 -36.959)"/>
  <rect id="Rectangle_94" data-name="Rectangle 94" width="0.505" height="6.442" transform="translate(66.869 23.519)"/>
  <path id="Path_245" data-name="Path 245" d="M180.917,60.6v.427h-2.406v6.016h-.5V61.027H175.6V60.6Z" transform="translate(-107.45 -37.081)"/>
  <path id="Path_246" data-name="Path 246" d="M190.321,60.5l2.988,6.481h-.5L191.8,64.769h-3.182L187.6,66.981h-.5l2.95-6.481Zm1.242,3.842-1.4-3.027-1.4,3.027Z" transform="translate(-114.487 -37.02)"/>
  <path id="Path_247" data-name="Path 247" d="M8.732,16.234c-.078,0-.272-.039-.543-.039-.155-.039-.427-.039-.737-.078l-.776-.039-.776.039a5.542,5.542,0,0,0-.97.039,1.782,1.782,0,0,1-.388.039c-.31,0-.31-.194-.31-.272,0-.155.078-.31.427-.349a1.366,1.366,0,0,0,1.009-.466A3.3,3.3,0,0,0,5.86,13.6v-3.8a6.417,6.417,0,0,0-.078-1.048,3.072,3.072,0,0,0-.427-.931L2.173,2.185A2.241,2.241,0,0,0,1.4,1.37,1.861,1.861,0,0,0,.388,1.021C.039,1.021,0,.827,0,.749,0,.633.039.4.388.4a2.213,2.213,0,0,1,.5.039c.427.039.893.078,1.358.078.97,0,1.591,0,1.863-.039.388-.039.5-.039.543-.039.349,0,.388.233.388.31,0,.116-.039.272-.31.349-.388.155-.621.349-.621.66a3,3,0,0,0,.427,1.048l.272.543L7.1,7.231q.058.116.116.116a.175.175,0,0,0,.116-.116L8.887,4.591l.466-.854a4.537,4.537,0,0,0,.7-1.63c0-.466-.388-.776-1.2-1.009a.326.326,0,0,1-.31-.349c0-.194.116-.272.31-.272a1.748,1.748,0,0,1,.543.078,11.075,11.075,0,0,0,1.4.039A9.255,9.255,0,0,0,12.07.555a3.414,3.414,0,0,1,.543-.039A.3.3,0,0,1,13,.827c0,.116-.039.272-.31.349a2.668,2.668,0,0,0-1.436,1.2l-3.3,5.55a2.088,2.088,0,0,0-.349,1.048v4.7c0,1.048.078,1.436.194,1.552.078.116.31.272,1.009.349.349.039.388.233.388.31a.41.41,0,0,1-.466.349" transform="translate(0 -0.245)"/>
  <path id="Path_248" data-name="Path 248" d="M38.08,16.067a6.663,6.663,0,0,1-5.2-2.212A8.4,8.4,0,0,1,30.9,8.034a10.606,10.606,0,0,1,.5-3.1,7.686,7.686,0,0,1,1.4-2.561A6.724,6.724,0,0,1,35.169.621,8.078,8.078,0,0,1,38.157,0,6.613,6.613,0,0,1,43.28,2.212,8.125,8.125,0,0,1,45.3,7.84a8.677,8.677,0,0,1-2.018,5.938,6.712,6.712,0,0,1-5.2,2.29M37.5.931a4.36,4.36,0,0,0-3.571,1.708A7.455,7.455,0,0,0,32.608,7.3a9.35,9.35,0,0,0,1.708,5.666,5.063,5.063,0,0,0,4.153,2.29,4.577,4.577,0,0,0,3.726-1.863,7.5,7.5,0,0,0,1.475-4.735,8.326,8.326,0,0,0-1.785-5.511A5.387,5.387,0,0,0,37.5.931" transform="translate(-18.908)"/>
  <path id="Path_249" data-name="Path 249" d="M75.347,16.551a5.938,5.938,0,0,1-2.717-.621,5.041,5.041,0,0,1-1.979-1.708,9.049,9.049,0,0,1-1.087-4.774V3.9a8.517,8.517,0,0,0-.155-1.863,1.365,1.365,0,0,0-.737-.737c-.194-.116-.272-.233-.272-.349a.277.277,0,0,1,.272-.31A2.305,2.305,0,0,1,69.1.678a8.454,8.454,0,0,0,1.358.078,4.942,4.942,0,0,0,.854-.078c.272-.039.5-.078.621-.078h0c.116,0,.272.039.272.31,0,.116-.039.31-.349.349a1.363,1.363,0,0,0-1.087.66A4.188,4.188,0,0,0,70.418,3.9V9.72a7.1,7.1,0,0,0,1.125,4.347A4.145,4.145,0,0,0,74.959,15.5,3.961,3.961,0,0,0,78.568,13.8a8.092,8.092,0,0,0,.776-4.075v-6.4a4.162,4.162,0,0,0-.194-1.475.9.9,0,0,0-.7-.5c-.31-.078-.388-.233-.388-.349a.271.271,0,0,1,.31-.272,3.018,3.018,0,0,1,.5.039c.349,0,.543.039.621.039h1.475a5.066,5.066,0,0,0,.66-.039c.272,0,.5-.039.66-.039.388,0,.466.233.466.349s-.039.272-.349.31c-.078,0-.194.039-.272.039-.466.078-1.048.155-1.2.388a1.688,1.688,0,0,0,0,.776,6.44,6.44,0,0,1,.078.931l.039.7V9.914a9.067,9.067,0,0,1-.7,3.842,4.808,4.808,0,0,1-1.979,2.057,6.135,6.135,0,0,1-3.027.737" transform="translate(-41.854 -0.367)"/>
  <path id="Path_250" data-name="Path 250" d="M93.946,3.388A3.449,3.449,0,0,0,93.675,1.8a1.225,1.225,0,0,0-.388-.466,2.193,2.193,0,0,0-.776-.194C92.239,1.1,92.2.943,92.2.866c0-.116,0-.194.078-.233a.515.515,0,0,1,.388-.116,5.283,5.283,0,0,1,.621.039A25.043,25.043,0,0,0,96.2.672c1.2,0,2.018,0,2.367-.039L99.923.555a8.955,8.955,0,0,0,1.125-.116A1.074,1.074,0,0,1,101.4.4c.194,0,.31.116.31.349a1.456,1.456,0,0,1-.039.388,8.655,8.655,0,0,0-.155,1.94c0,.5-.194.621-.349.621-.116,0-.233-.078-.272-.349a2.2,2.2,0,0,0-.116-.7,1.352,1.352,0,0,0-.272-.7c-.078-.078-.272-.155-.776-.194l-1.164-.116C98.216,1.6,97.75,1.6,97.206,1.6a2.9,2.9,0,0,0-1.32.155c-.155.078-.233.349-.233.737V7.425c0,.039.039.194.466.194l.854.039h.31l1.164-.039a2.028,2.028,0,0,0,1.242-.272,1.379,1.379,0,0,0,.466-1.009c.039-.31.194-.349.31-.349.078,0,.116.039.194.078.078.078.078.194.078.388L100.7,7.58v.66a16.105,16.105,0,0,0,.039,1.669v.31c0,.31-.194.349-.272.349-.233,0-.349-.349-.388-.621a2.658,2.658,0,0,0-.233-.776.768.768,0,0,0-.388-.272,7.483,7.483,0,0,0-1.9-.194,13.459,13.459,0,0,0-1.514.039c-.194.039-.272.078-.31.194a2.96,2.96,0,0,0-.039.66H95.5a3.361,3.361,0,0,1,.039-.7" transform="translate(-56.417 -0.245)"/>
  <path id="Path_251" data-name="Path 251" d="M113.4,15.1h0" transform="translate(-69.39 -9.24)"/>
  <path id="Path_252" data-name="Path 252" d="M123.6,16.181a1.456,1.456,0,0,1-.388-.039,6.945,6.945,0,0,0-1.048-.039l-1.436-.039-1.164.078a2.227,2.227,0,0,1-.466.039c-.349,0-.349-.233-.349-.31,0-.116.078-.272.388-.349a1.094,1.094,0,0,0,.893-.543,4.709,4.709,0,0,0,.194-1.824V3.568a3.938,3.938,0,0,0-.272-1.824,1.676,1.676,0,0,0-1.164-.621c-.31-.078-.388-.233-.388-.349s0-.194.078-.233c.078-.116.272-.116.5-.078a12.6,12.6,0,0,0,1.94.116c.466,0,.931,0,1.281-.039l.66-.078h.272c.31,0,.349.194.349.31s-.078.272-.31.388l-.5.233c-.31.116-.7.7-.7,2.6v8.422a7.919,7.919,0,0,0,.155,2.057,1.655,1.655,0,0,0,.466.776,1.6,1.6,0,0,0,.893.31c.155.039.582.078.582.349-.039.155-.194.272-.466.272" transform="translate(-72.449 -0.269)"/>
  <path id="Path_253" data-name="Path 253" d="M146.082,16.334a2.648,2.648,0,0,1-1.669-.582,7.644,7.644,0,0,1-1.475-1.824l-2.639-4.5A.773.773,0,0,0,139.6,9h-1.32l-.194.039a.371.371,0,0,0-.078.272v3.959a9.024,9.024,0,0,0,.078,1.32.979.979,0,0,0,.388.582,2.463,2.463,0,0,0,1.281.466c.349.039.466.194.466.349a.228.228,0,0,1-.078.194.474.474,0,0,1-.349.116,3.838,3.838,0,0,1-.582-.039,10.993,10.993,0,0,0-1.281-.039h-1.475c-.233,0-.5.039-.815.039a3.689,3.689,0,0,1-.543.039c-.233,0-.349-.116-.349-.31,0-.116.039-.272.31-.31a1.233,1.233,0,0,0,.97-.737,8.851,8.851,0,0,0,.233-2.523V3.139c0-1.125-.349-1.746-1.009-1.863l-.466-.078c-.349-.078-.388-.233-.388-.349s.039-.31.427-.31a6.736,6.736,0,0,1,.7.039,6.023,6.023,0,0,0,.893.039c.31,0,.815-.039,1.552-.078C138.514.5,138.98.5,139.406.5a5.4,5.4,0,0,1,3.532,1.009,3.593,3.593,0,0,1,1.2,2.95A4.4,4.4,0,0,1,141.7,8.417l3.027,5.006c.854,1.358,1.591,2.1,2.29,2.135l.31.039a.3.3,0,0,1,.194.078.154.154,0,0,1,.039.194c0,.194-.31.31-.5.388-.272,0-.621.078-.97.078m-7.141-14.9a1.121,1.121,0,0,0-.737.194,1.121,1.121,0,0,0-.194.737V7.292c0,.427.078.582.116.621s.155.116.5.116h1.125a2.57,2.57,0,0,0,1.979-.776,3.091,3.091,0,0,0,.737-2.135,3.571,3.571,0,0,0-1.009-2.6,3.016,3.016,0,0,0-2.523-1.087" transform="translate(-82.24 -0.306)"/>
  <path id="Path_254" data-name="Path 254" d="M172.608,16.067a8.1,8.1,0,0,1-1.824-.233,4.137,4.137,0,0,1-1.475-.582.652.652,0,0,1-.272-.31,5.194,5.194,0,0,1-.194-.776c0-.039-.116-.388-.272-1.009a5.691,5.691,0,0,1-.272-1.475c0-.349.194-.427.31-.427.194,0,.349.194.466.621a4.209,4.209,0,0,0,1.591,2.29,4.111,4.111,0,0,0,2.6.931,3.548,3.548,0,0,0,2.406-.893,2.759,2.759,0,0,0,.97-2.135,2.648,2.648,0,0,0-.893-2.018,10.728,10.728,0,0,0-2.717-1.242,9.2,9.2,0,0,1-3.376-1.9,3.787,3.787,0,0,1-1.009-2.717,3.807,3.807,0,0,1,1.32-3.027A4.792,4.792,0,0,1,173.306,0a4.691,4.691,0,0,1,1.94.349l.737.31a.377.377,0,0,0,.349-.039L176.489.5a.228.228,0,0,1,.194-.078c.233,0,.349.233.349.66,0,.078.039.349.155,1.125l.155,1.164a2.228,2.228,0,0,1,.039.466c0,.388-.194.427-.31.427-.155,0-.31-.194-.427-.621a3.5,3.5,0,0,0-1.514-1.94,4.623,4.623,0,0,0-2.561-.776,2.487,2.487,0,0,0-1.824.7,2.18,2.18,0,0,0-.737,1.708,2.541,2.541,0,0,0,.466,1.552,2.291,2.291,0,0,0,.931.815,20.568,20.568,0,0,0,2.523.97c2.639.931,4,2.445,4,4.541a4.541,4.541,0,0,1-1.475,3.493,5.482,5.482,0,0,1-3.842,1.358" transform="translate(-102.983 0)"/>
  <path id="Path_255" data-name="Path 255" d="M202.861,16.44c-.078,0-.272-.039-.5-.078a4.526,4.526,0,0,0-.893-.039H199.95a3.773,3.773,0,0,0-.7.039,4.327,4.327,0,0,1-.7.078c-.349,0-.388-.233-.388-.349,0-.155.155-.272.427-.31a1.617,1.617,0,0,0,.97-.427,2.347,2.347,0,0,0,.272-1.242V2.7c0-.349-.039-.427-.078-.466s-.116-.078-.427-.078H196.69a1.564,1.564,0,0,0-1.125.349,2.481,2.481,0,0,0-.543,1.32c-.039.116-.116.5-.349.5-.116,0-.272-.078-.272-.388a6.114,6.114,0,0,1,.116-.893,6.262,6.262,0,0,0,.155-1.32,1.588,1.588,0,0,1,.116-.737c.078-.155.272-.194.543-.194h10.789c.427,0,.621.039.737.155.078.078.155.233.155.854a5.781,5.781,0,0,0,.039.931,3.412,3.412,0,0,0,.078.543c0,.388-.194.466-.31.466h0c-.194,0-.31-.155-.349-.427a1.516,1.516,0,0,0-.388-.97A1.718,1.718,0,0,0,205,2.12H202.2c-.349,0-.466.078-.466.116-.039.039-.078.155-.078.582V14.267a1.407,1.407,0,0,0,1.242,1.475c.272.039.427.155.427.349a.457.457,0,0,1-.466.349" transform="translate(-118.954 -0.49)"/>
  <path id="Path_256" data-name="Path 256" d="M115.9,14.8h0" transform="translate(-70.919 -9.056)"/>
</svg>
