<svg xmlns="http://www.w3.org/2000/svg" width="105.666" height="30" viewBox="0 0 105.666 30">
  <g id="logo-7" transform="translate(0.039 0.1)">
    <path id="Path_178" data-name="Path 178" d="M.276,28.568c-.072,0-.072,0-.144-.072a.345.345,0,0,1-.144-.431h0L15.788.633a.345.345,0,0,1,.431-.144.345.345,0,0,1,.144.431h0L.563,28.353C.492,28.5.42,28.568.276,28.568Z" transform="translate(0 -0.158)" fill="#fff"/>
    <path id="Path_179" data-name="Path 179" d="M35.655,39.375H9.587a.287.287,0,0,1,0-.575H35.655a.287.287,0,0,1,0,.575Z" transform="translate(-2.632 -10.965)" fill="#fff"/>
    <path id="Path_180" data-name="Path 180" d="M51.091,14.06h.144v.215H46.782V14.06H47a.78.78,0,0,0,.646-.287.652.652,0,0,0,.215-.5,1.4,1.4,0,0,0-.072-.5L46.495,9.392H41.181l-1.364,3.447a1.065,1.065,0,0,0-.072.5.776.776,0,0,0,.215.5.7.7,0,0,0,.646.287h.144v.215H36.8v-.215h.144a1.8,1.8,0,0,0,.934-.287,2.5,2.5,0,0,0,.79-.934l4.452-10.7A6.736,6.736,0,0,0,43.838.2h.144L49.3,12.839a2.333,2.333,0,0,0,.718.934A2.027,2.027,0,0,0,51.091,14.06ZM41.4,8.889h4.883L43.91,2.57Z" transform="translate(-10.384 -0.085)" fill="#fff"/>
    <path id="Path_181" data-name="Path 181" d="M62.736,8.977a4.66,4.66,0,0,0-1.005,2.873,3.311,3.311,0,0,0,1.58,2.873,3.742,3.742,0,0,0,2.083.646,3.983,3.983,0,0,0,2.011-.5,3.22,3.22,0,0,0,1.8-2.8v-.287a3.075,3.075,0,0,0-.431-1.58,4.638,4.638,0,0,0-1.293-1.58l-3.591-2.8a3.03,3.03,0,0,1-1.149-2.37,3.357,3.357,0,0,1,.934-2.442A3.589,3.589,0,0,1,66.183,0a7.083,7.083,0,0,1,1.724.215h.79l.072,2.442h-.215a1.956,1.956,0,0,0-.646-1.508A2.877,2.877,0,0,0,66.255.575,2.268,2.268,0,0,0,63.885,2.8v.144a2.047,2.047,0,0,0,.862,1.724L68.41,7.54a5.143,5.143,0,0,1,2.154,4.165,4.1,4.1,0,0,1-1.436,3.16,5.267,5.267,0,0,1-5.53.646,3.651,3.651,0,0,1-2.226-2.944,2.946,2.946,0,0,1-.072-.79,3.779,3.779,0,0,1,.287-1.293,4.366,4.366,0,0,1,1.077-1.724Z" transform="translate(-17.29 -0.028)" fill="#fff"/>
    <path id="Path_182" data-name="Path 182" d="M90.2,2.154a1.153,1.153,0,0,0-.359-.79,1.153,1.153,0,0,0-.79-.359H85.32V12.855a1.228,1.228,0,0,0,1.293,1.221H86.9v.215H82.591v-.215h.215A1.321,1.321,0,0,0,84.1,12.855V.934H80.364a1.153,1.153,0,0,0-.79.359,1.153,1.153,0,0,0-.359.79v.359H79V0a2.534,2.534,0,0,0,1.005.215A7.954,7.954,0,0,0,81.37.359h6.679a10.757,10.757,0,0,0,1.58-.144c.287-.072.5-.144.79-.215V2.513H90.2V2.154Z" transform="translate(-22.279 -0.028)" fill="#fff"/>
    <path id="Path_183" data-name="Path 183" d="M101.215,14.145a1.189,1.189,0,0,0,.862-.359,1.325,1.325,0,0,0,.359-.862V1.936a1.189,1.189,0,0,0-.359-.862,1.325,1.325,0,0,0-.862-.359H101V.5h4.309V.715h-.287a1.189,1.189,0,0,0-.862.359,1.325,1.325,0,0,0-.359.862V12.924a1.189,1.189,0,0,0,.359.862,1.325,1.325,0,0,0,.862.359h.287v.215H101v-.215Z" transform="translate(-28.48 -0.169)" fill="#fff"/>
    <path id="Path_184" data-name="Path 184" d="M113.687,14.145a1.189,1.189,0,0,0,.862-.359,1.325,1.325,0,0,0,.359-.862V1.936a1.189,1.189,0,0,0-.359-.862,1.325,1.325,0,0,0-.862-.359H113.4V.5h4.309V.715h-.287a1.185,1.185,0,0,0-1.077.646,1.067,1.067,0,0,0-.144.646V13.785H119a3.138,3.138,0,0,0,2.226-.646A5.116,5.116,0,0,0,122.52,11.2h.215l-1.149,3.232H113.4v-.215h.287Z" transform="translate(-31.975 -0.169)" fill="#fff"/>
    <path id="Path_185" data-name="Path 185" d="M132.315,13.975a1.189,1.189,0,0,0,.862-.359,1.325,1.325,0,0,0,.359-.862V1.7a1.153,1.153,0,0,0-.359-.79,1.325,1.325,0,0,0-.862-.359H132.1V.331h4.022a9.813,9.813,0,0,0,1.364-.144A5.289,5.289,0,0,0,138.491-.1V2.413h-.215V2.126A1.134,1.134,0,0,0,137.127.977H134.9v6.1h3.734a.91.91,0,0,0,.646-.287.922.922,0,0,0,.287-.718V5.789h.215V8.877h-.215V8.589a.7.7,0,0,0-.287-.646.78.78,0,0,0-.646-.287H134.9v5.889h4.237a3.138,3.138,0,0,0,2.226-.646,5.116,5.116,0,0,0,1.293-1.939h.215l-1.149,3.232h-9.551v-.215h.144Z" transform="translate(-37.246)" fill="#fff"/>
    <path id="Path_186" data-name="Path 186" d="M100.394,32.319a.251.251,0,0,0-.072-.144.218.218,0,0,0-.287,0v.072h0l-.144.215A14.654,14.654,0,0,1,98.24,34.4l-.072.072-.287.287h0a5.534,5.534,0,0,1-1.508,1.005,1.692,1.692,0,0,1-1.436.215c-.072,0-.144-.072-.287-.144-.287-.287-.287-.862,0-1.508h.072a.815.815,0,0,0,.575.215,3.085,3.085,0,0,0,1.652-.718c.862-.718,1.221-1.652.862-2.083a.724.724,0,0,0-.646-.215,2.956,2.956,0,0,0-1.508.718l-.215.215-.072.072c-.215.287-.862.934-.934,1.005l-.718.718a8.607,8.607,0,0,0-.862.79,10.505,10.505,0,0,1-.934.646,2.041,2.041,0,0,1-.862.287,2.582,2.582,0,0,0,.575-.862,5.558,5.558,0,0,0,.5-1.149,5.983,5.983,0,0,0,.287-1.077,6.016,6.016,0,0,0,.144-.718c0-.072,0-.215-.144-.215a.135.135,0,0,0-.215,0l-.5.431-.5.5-.575.575a.07.07,0,0,0-.072.072L89.55,34.545A14.379,14.379,0,0,1,88.4,35.55a10.275,10.275,0,0,1-1.077.79,1.506,1.506,0,0,1-.79.287.606.606,0,0,1,.144-.5,4.387,4.387,0,0,1,.5-1.005c.215-.431.5-.862.79-1.364.359-.5.646-1.005,1.077-1.58a.251.251,0,0,1,.072-.144.251.251,0,0,0-.072-.144c-.072-.072-.215-.072-.359.072-.144.215-.359.5-.575.79s-.5.646-.79,1.005a12.483,12.483,0,0,1-.934,1.077l-.934.934a7.606,7.606,0,0,1-.862.718,1.516,1.516,0,0,1-.718.287h-.144a1.222,1.222,0,0,1,.072-.5,2.966,2.966,0,0,1,.5-.79c.215-.287.431-.646.718-1.005h0l.862-1.077a.321.321,0,0,0,0-.359.218.218,0,0,0-.287,0l-.431.5c-.144.215-.287.359-.5.646a2.182,2.182,0,0,1-.5.359,2.911,2.911,0,0,1-.646.359,3,3,0,0,1-.718.287,2.443,2.443,0,0,1-.718.072c.144-.215.215-.5.359-.718a1.581,1.581,0,0,0,.072-.575c0-.144,0-.215-.072-.287L82.3,33.54a1.549,1.549,0,0,0-.862-.287,3.226,3.226,0,0,0-1.293.5,7.606,7.606,0,0,0-.862.718.07.07,0,0,0-.072.072l-.575.5a4.69,4.69,0,0,1-.862.79c-.359.287-.646.575-.934.79a5.991,5.991,0,0,1-.862.575,1,1,0,0,1-.79.144h-.144V37.13c.072-.144.072-.287.144-.359l.215-.431a1.5,1.5,0,0,1,.287-.431c.215-.359.431-.79.646-1.077a.786.786,0,0,0,.072-.79.653.653,0,0,0-.575-.287,2.107,2.107,0,0,0-1.149.287,4.955,4.955,0,0,0-1.293,1.149l.287-.5a10.233,10.233,0,0,0,.79-.862c.287-.359.575-.646.862-1.077.287-.359.575-.79.862-1.149a9.357,9.357,0,0,0,.718-1.077,3.869,3.869,0,0,0,.5-.934.851.851,0,0,0,.072-.575.154.154,0,0,0-.144-.144.432.432,0,0,0-.287-.072,2.246,2.246,0,0,0-.718.359,5.423,5.423,0,0,0-.79,1.005c-.287.431-.575.934-.934,1.508s-.646,1.293-1.077,2.083l-.287.575c-.359.646-.646,1.221-.934,1.867a17.18,17.18,0,0,1-.934,1.508.178.178,0,0,0,.072.287h0a.218.218,0,0,0,.287,0h0c.5-.718.934-1.364,1.293-1.8a8.736,8.736,0,0,1,1.077-1.221,5.991,5.991,0,0,1,.862-.575,1.448,1.448,0,0,1,.79-.215c.144,0,.215,0,.215.072v.215a1.213,1.213,0,0,0-.144.359l-.215.431-.215.431a8.551,8.551,0,0,0-.646,1.077.771.771,0,0,0-.072.79.154.154,0,0,0,.144.144.544.544,0,0,0,.287.144H75.4a2.041,2.041,0,0,0,.862-.287,2.733,2.733,0,0,0,.934-.646,9.1,9.1,0,0,0,.934-.79h0a1.236,1.236,0,0,0-.144.862c0,.144.072.215.072.359.072.072.072.144.144.215a.774.774,0,0,0,.575.144,1.386,1.386,0,0,0,.718-.215,4.359,4.359,0,0,0,.718-.5l.646-.646a6.279,6.279,0,0,0,.575-.718h.5a2.125,2.125,0,0,0,.718-.144c.287-.072.5-.215.79-.287l.144-.072c-.144.215-.215.359-.359.575a2.551,2.551,0,0,0-.287.646.613.613,0,0,0,0,.5l.215.215a.911.911,0,0,0,.431.072,1.158,1.158,0,0,0,.646-.215,2.579,2.579,0,0,0,.718-.5,7.151,7.151,0,0,0,.79-.718l.79-.79a7.247,7.247,0,0,0-.5,1.077.988.988,0,0,0-.072.79.154.154,0,0,0,.144.144.264.264,0,0,0,.215.072h.072a1.276,1.276,0,0,0,.718-.287,5.99,5.99,0,0,0,.862-.575c.287-.215.575-.5.862-.718l.287-.287a2.965,2.965,0,0,0,.5.79,1.7,1.7,0,0,0,.646.431H90.7a3.555,3.555,0,0,0,.934-.287c.359-.215.646-.431,1.005-.646a10.745,10.745,0,0,0,.934-.79l.287-.287c-.287.862-.287,1.58.144,1.939.072.072.072.072.144.072h0c.072,0,.072.072.144.072h.431a4.853,4.853,0,0,0,2.37-.934h0a1.9,1.9,0,0,0,.431-.359,4.1,4.1,0,0,1,.575-.5,6.476,6.476,0,0,0,.646-.718l.144-.215a10.556,10.556,0,0,0,.718-.934l.431-.431C100.322,32.462,100.394,32.391,100.394,32.319ZM95.08,33.54h0c.072-.072.072-.144.144-.215s.144-.215.215-.287a1.9,1.9,0,0,1,.431-.359,2.228,2.228,0,0,1,1.293-.646.432.432,0,0,1,.287.072.542.542,0,0,1-.072.575,7.606,7.606,0,0,1-.718.862,2.228,2.228,0,0,1-1.293.646.432.432,0,0,1-.287-.072.372.372,0,0,1,0-.575Zm-19.82-1.724c.215-.431.5-.862.718-1.221.215-.287.431-.646.646-.934a1.117,1.117,0,0,1,.575-.431,4.946,4.946,0,0,1-.215.575,10.63,10.63,0,0,1-.575.934,9.535,9.535,0,0,1-.862,1.149c-.359.431-.646.79-1.005,1.221Zm5.314,4.237a4.332,4.332,0,0,1-.575.575c-.215.144-.359.287-.575.431a4.947,4.947,0,0,1-.575.215h-.144c-.072,0-.072,0-.144-.072a.264.264,0,0,1-.072-.215,2.125,2.125,0,0,1,.144-.718,3.869,3.869,0,0,1,.5-.934c.144-.144.215-.287.359-.431l.072-.072.072-.072c.072-.144.215-.215.359-.359a2.534,2.534,0,0,1,.934-.575,2.1,2.1,0,0,0-.144.646,1.241,1.241,0,0,0,.072.718.561.561,0,0,0,.287.287,2.186,2.186,0,0,0-.575.575ZM81.651,34.4a2.911,2.911,0,0,1-.359.646.07.07,0,0,1-.072-.072V34.9c-.072-.072-.072-.144-.072-.287a.647.647,0,0,1,.072-.359c.072-.144.072-.215.144-.359.072-.072.072-.144.144-.287h.287v.215c-.072.215-.072.431-.144.575Zm9.192,1.077a.477.477,0,0,1-.359.287c-.144,0-.287-.072-.287-.144a2.519,2.519,0,0,1-.359-.575.07.07,0,0,0-.072-.072l.144-.144c.215-.215.5-.431.646-.575l.359-.359h0l.575-.5.5-.5c-.072.359-.215.718-.287,1.077a4.986,4.986,0,0,1-.359.934,1.936,1.936,0,0,0-.5.575Z" transform="translate(-20.118 -8.146)" fill="#fff"/>
  </g>
</svg>
