<svg xmlns="http://www.w3.org/2000/svg" width="60" height="25" viewBox="0 0 60 25">
  <g id="Group_213" data-name="Group 213" transform="translate(-89.23 -3)">
    <rect id="Rectangle_110" data-name="Rectangle 110" width="60" height="25" transform="translate(89.23 3)" fill="none"/>
    <path id="Path_1" data-name="Path 1" d="M879.517,508.991c0-5.87-5.885-10.646-13.119-10.646s-13.119,4.776-13.119,10.646c0,5.263,4.667,9.67,10.972,10.5.427.092,1.009.282,1.156.647a2.7,2.7,0,0,1,.042,1.186s-.154.926-.187,1.123c-.057.331-.264,1.3,1.136.707s7.555-4.449,10.308-7.616h0A9.473,9.473,0,0,0,879.517,508.991Zm-17.748,3.139a.25.25,0,0,1-.25.25h-3.686a.25.25,0,0,1-.25-.25v0h0V506.4a.25.25,0,0,1,.25-.25h.93a.251.251,0,0,1,.25.25v4.545h2.5a.251.251,0,0,1,.25.25Zm2.219,0a.25.25,0,0,1-.25.25h-.93a.25.25,0,0,1-.25-.25V506.4a.25.25,0,0,1,.25-.25h.93a.25.25,0,0,1,.25.25Zm6.334,0a.251.251,0,0,1-.25.25h-.925a.251.251,0,0,1-.065-.009h0l-.017-.005-.008,0-.012-.005-.012-.006-.007,0-.016-.01,0,0a.253.253,0,0,1-.065-.063l-2.623-3.542v3.4a.251.251,0,0,1-.25.25h-.93a.25.25,0,0,1-.25-.25V506.4a.25.25,0,0,1,.25-.25h.947l.014,0,.01,0,.015,0,.009,0,.015,0,.008,0,.015.006.008,0,.014.008.008,0,.013.009.007.005.014.012,0,0,.015.016,0,0a.234.234,0,0,1,.02.026l2.619,3.538v-3.4a.251.251,0,0,1,.251-.25h.93a.251.251,0,0,1,.25.25Zm5.081-4.8a.25.25,0,0,1-.25.25h-2.5v.966h2.5a.251.251,0,0,1,.25.25v.93a.25.25,0,0,1-.25.25h-2.5v.966h2.5a.251.251,0,0,1,.25.25v.93a.25.25,0,0,1-.25.25h-3.686a.25.25,0,0,1-.251-.25v0h0v-5.715h0V506.4a.251.251,0,0,1,.251-.25h3.686a.251.251,0,0,1,.25.25Z" transform="translate(-747.048 -495.345)" fill="#fff" opacity="0.8"/>
  </g>
</svg>
