<svg id="logo-3" xmlns="http://www.w3.org/2000/svg" width="30" height="40" viewBox="0 0 30 40">
  <path id="Path_121" data-name="Path 121" d="M131.859,15.582a7.211,7.211,0,0,0,5.367-2.063,7.689,7.689,0,0,0,2.038-5.633c0-2.139-.405-3.823-1.62-5.051A6.972,6.972,0,0,0,132.581,1a7.279,7.279,0,0,0-5.38,2.076,7.114,7.114,0,0,0-2.1,5.3,7.335,7.335,0,0,0,1.823,5.329A6.535,6.535,0,0,0,131.859,15.582ZM129.366,2.443a5.582,5.582,0,0,1,2.81-.747,6.289,6.289,0,0,1,2.722.646c2.165,1.114,2.481,4.57,2.481,6.051a9.6,9.6,0,0,1-.481,3.468,4.352,4.352,0,0,1-1.671,2.165,5.7,5.7,0,0,1-2.9.886,5.279,5.279,0,0,1-3.873-1.81c-1-1.089-1.405-2.848-1.405-5.013C127.049,6.975,127.087,3.734,129.366,2.443Z" transform="translate(-109.265 -0.873)" fill="#fff"/>
  <path id="Path_122" data-name="Path 122" d="M1.541,1.291c.025,1.266.025,10.544,0,11.81a.888.888,0,0,1-.253.709,2.233,2.233,0,0,1-.975.329v.228C1.832,14.3,1.768,14.1,2.452,14.1s.62.2,2.139.266v-.228a2.409,2.409,0,0,1-.975-.329.888.888,0,0,1-.253-.709c-.013-1.038-.025-7.544-.013-10.506l9.316,12,.127-.089c-.025-.582-.013-12.671,0-13.177A.894.894,0,0,1,13.022.62,2.428,2.428,0,0,1,14,.278V.051c-1.519.063-1.456.266-2.139.266s-.62-.2-2.139-.266V.278a2.251,2.251,0,0,1,.975.342.888.888,0,0,1,.253.709c.013.392.013,8.582,0,8.987,0-.038-7.456-9.924-7.456-9.924L3.477.367A5.316,5.316,0,0,1,2.439.443,16.173,16.173,0,0,0,.3,0V.228a2.417,2.417,0,0,1,.987.354A.934.934,0,0,1,1.541,1.291Z" transform="translate(-0.262)" fill="#fff"/>
  <path id="Path_123" data-name="Path 123" d="M137.218,129.676v.228a2.409,2.409,0,0,1,.975.329.909.909,0,0,1,.253.709c0,.392.013,8.582,0,8.987,0-.038-7.456-9.924-7.456-9.924l-.013-.025a5.317,5.317,0,0,1-1.038.076,13.511,13.511,0,0,0-2.139-.456v.228a2,2,0,0,1,.975.354.935.935,0,0,1,.253.709c.025,1.266.025,10.544,0,11.81a.888.888,0,0,1-.253.709,2.233,2.233,0,0,1-.975.329v.228c1.519-.063,1.456-.266,2.139-.266s.62.2,2.139.266v-.228a2.409,2.409,0,0,1-.975-.329.909.909,0,0,1-.253-.709c-.013-1.038-.025-7.544-.013-10.506l9.316,12,.127-.089c-.025-.582-.013-12.671,0-13.177a.875.875,0,0,1,.228-.709,2.233,2.233,0,0,1,.975-.329v-.228c-1.506.076-1.443.278-2.127.278S138.737,129.739,137.218,129.676Z" transform="translate(-111.623 -113.195)" fill="#fff"/>
  <path id="Path_124" data-name="Path 124" d="M1.253,134.62l.013,2.772v3.215c0,.392-.051,3.9,5.38,3.9s5.671-3.595,5.671-6.215c0,0,0-1.468.013-3.063.013-1.684.051-3.646.051-3.937a.894.894,0,0,1,.228-.709,2.429,2.429,0,0,1,.975-.342v-.228a19.467,19.467,0,0,0-2.127.253c-.7-.013-.633-.2-2.139-.266v.228a2.251,2.251,0,0,1,.975.342.888.888,0,0,1,.253.709c0,.228.025,2.228.038,3.937v2.266c0,2.772.076,6.418-3.8,6.418-4.063,0-3.759-4.316-3.759-4.861v-2.025l.013-3.253c.013-1.2.025-2.266.038-2.481a.894.894,0,0,1,.228-.709,2.428,2.428,0,0,1,.975-.342V130c-1.519.063-1.456.266-2.139.266s-.62-.2-2.139-.266v.228a2.251,2.251,0,0,1,.975.342.888.888,0,0,1,.253.709C1.228,131.481,1.241,133.063,1.253,134.62Z" transform="translate(0 -113.544)" fill="#fff"/>
  <path id="Path_125" data-name="Path 125" d="M54.744,259.735A3.047,3.047,0,0,0,52.5,258.9a3.185,3.185,0,0,0-2.38.937,3.807,3.807,0,0,0-.114,4.835,2.823,2.823,0,0,0,2.177.848,3.174,3.174,0,0,0,2.38-.937,3.557,3.557,0,0,0,.9-2.557A3.143,3.143,0,0,0,54.744,259.735Zm-.342,4.1a1.983,1.983,0,0,1-.734.987,2.465,2.465,0,0,1-1.278.405,2.307,2.307,0,0,1-1.709-.823,3.4,3.4,0,0,1-.62-2.279c0-.506.013-1.975,1.025-2.557a2.314,2.314,0,0,1,1.241-.342,2.719,2.719,0,0,1,1.2.291c.949.506,1.089,2.076,1.089,2.747A4.491,4.491,0,0,1,54.4,263.837Z" transform="translate(-42.972 -226.128)" fill="#fff"/>
  <path id="Path_126" data-name="Path 126" d="M10.037,262.842c-.127-2.949,1.38-3.051,1.747-3.076a3.607,3.607,0,0,1,1.063.089c.7.127.709,1.266.709,1.266l.152-.013a11.459,11.459,0,0,1,.076-1.608.632.632,0,0,1-.3.114,12.164,12.164,0,0,1-1.62-.025c-.785-.025-2.759.279-2.759,3.228s2.139,3.177,3.114,3.177a3.966,3.966,0,0,0,1.633-.329l.013-.279a2.192,2.192,0,0,1-1.544.443C11.53,265.854,10.151,265.652,10.037,262.842Z" transform="translate(-7.948 -226.652)" fill="#fff"/>
  <path id="Path_127" data-name="Path 127" d="M98.1,305.7a.3.3,0,0,0-.3.3.286.286,0,0,0,.3.3.3.3,0,1,0,0-.608Z" transform="translate(-85.42 -267.004)" fill="#fff"/>
  <path id="Path_128" data-name="Path 128" d="M104.952,305.8a.252.252,0,0,0-.266.215.211.211,0,0,0,.114.241c.165.1.354.063.367.3,0,.2-.089.329-.443.481v.051c.329-.089.709-.316.709-.722A.579.579,0,0,0,104.952,305.8Z" transform="translate(-91.433 -267.091)" fill="#fff"/>
  <path id="Path_129" data-name="Path 129" d="M120.429,265.323a.955.955,0,0,1-.7.279c-.405,0-1.038.051-1.165-.291a18.726,18.726,0,0,1-.114-2.456c0-1.228,0-2.494.013-2.785a.372.372,0,0,1,.114-.316,1.156,1.156,0,0,1,.443-.152v-.1a7.754,7.754,0,0,0-.962.127c-.3,0-.278-.089-.962-.127v.1a1.156,1.156,0,0,1,.443.152.372.372,0,0,1,.114.316c.013.57.013,4.772,0,5.342a.414.414,0,0,1-.114.316.981.981,0,0,1-.443.165v.1a8.075,8.075,0,0,0,.962-.2h.2a2.886,2.886,0,0,0,1.1.215,1.6,1.6,0,0,0,.81-.114c.658-.329.8-1.519.8-1.519l-.127-.089A1.664,1.664,0,0,1,120.429,265.323Z" transform="translate(-102.277 -226.652)" fill="#fff"/>
  <path id="Path_130" data-name="Path 130" d="M185.971,259.552a5.744,5.744,0,0,0-.81-.051,7.57,7.57,0,0,0-1.684.1,1.082,1.082,0,0,1-.2,0,6.455,6.455,0,0,0-.962-.2v.1a.98.98,0,0,1,.443.165.414.414,0,0,1,.114.316V264.5c0,.3,0,.57-.013.785v.051a.414.414,0,0,1-.114.316.98.98,0,0,1-.443.165v.1a6.091,6.091,0,0,0,.962-.2h.2a3.426,3.426,0,0,0,1.253.152h.076a4.85,4.85,0,0,0,1.823-.316c.278-.139,1.81-.785,1.646-3.582A2.3,2.3,0,0,0,185.971,259.552Zm-.43,6.038c-.266.038-1.405.114-1.7-.228a1.3,1.3,0,0,1-.165-.772c-.013-.506-.013-1.253-.013-2.177,0,0,0-1.62.013-2.165a.414.414,0,0,1,.114-.316,2.506,2.506,0,0,1,1.342-.19c.481,0,2.291-.177,2.291,2.734S185.895,265.514,185.54,265.59Z" transform="translate(-159.224 -226.565)" fill="#fff"/>
  <path id="Path_131" data-name="Path 131" d="M145.027,257.606a11.981,11.981,0,0,1-1.608.063,8.981,8.981,0,0,1-2.114-.215,1,1,0,0,1-.114.595,2.1,2.1,0,0,0-.291.873h.139c.038-.291.241-.835.557-.861.089,0,.772-.013,1.43-.013.013,1.62,0,5.051,0,5.278a.418.418,0,0,1-.1.316,1.155,1.155,0,0,1-.443.152v.1a7.763,7.763,0,0,0,.962-.127c.3,0,.278.089.962.127v-.1a1.155,1.155,0,0,1-.443-.152.414.414,0,0,1-.114-.316V259.67c0-.646,0-1.316.013-1.57v-.051h.494c.494,0,.835.051,1.127-.177a1.322,1.322,0,0,0,.405-.772h-.127C145.672,257.366,145.508,257.556,145.027,257.606Z" transform="translate(-123.065 -224.556)" fill="#fff"/>
</svg>
