<svg id="logo-16" xmlns="http://www.w3.org/2000/svg" width="100.917" height="40" viewBox="0 0 100.917 40">
  <path id="Path_257" data-name="Path 257" d="M0,22.1H1.743a10.658,10.658,0,0,1,2.018.092,2.039,2.039,0,0,1,1.193.734,2.249,2.249,0,0,1,.55,1.468,2.538,2.538,0,0,1-.459,1.468,2.008,2.008,0,0,1-1.284.734,10.067,10.067,0,0,1-2.2.183H.917v4.037H0Zm.917.826v2.936H2.385a3.8,3.8,0,0,0,1.284-.183,1.233,1.233,0,0,0,.642-.55,1.042,1.042,0,0,0,.275-.734,1.48,1.48,0,0,0-.275-.826,1.233,1.233,0,0,0-.642-.55c-.275,0-.642-.092-1.284-.092Z" transform="translate(0 -1.825)" fill="#fff"/>
  <path id="Path_258" data-name="Path 258" d="M8.5,22.1h5.046v.826H9.417v2.752h4.128V26.5H9.417V29.99h4.128v.826H8.5Z" transform="translate(-0.702 -1.825)" fill="#fff"/>
  <path id="Path_259" data-name="Path 259" d="M16.9,22.1h.826v7.89H21.12v.826H16.9Z" transform="translate(-1.395 -1.825)" fill="#fff"/>
  <path id="Path_260" data-name="Path 260" d="M24.1,22.1h.826v7.89H28.32v.826H24.1Z" transform="translate(-1.99 -1.825)" fill="#fff"/>
  <path id="Path_261" data-name="Path 261" d="M31.1,22.1h5.046v.826H32.017v2.752h4.128V26.5H32.017V29.99h4.128v.826H31.1Z" transform="translate(-2.568 -1.825)" fill="#fff"/>
  <path id="Path_262" data-name="Path 262" d="M43.4,30.816,44.593,22.1h.183l3.578,7.156L51.84,22.1h.183l1.193,8.716h-.826l-.826-6.239-3.119,6.239h-.275l-3.119-6.33-.826,6.33Z" transform="translate(-3.583 -1.825)" fill="#fff"/>
  <path id="Path_263" data-name="Path 263" d="M60.479,21.8a4.645,4.645,0,0,1,3.3,1.284,4.671,4.671,0,1,1-6.605,6.606A4.3,4.3,0,0,1,55.8,26.479a3.941,3.941,0,0,1,.642-2.294,3.6,3.6,0,0,1,1.651-1.651,4.81,4.81,0,0,1,2.385-.734m.092.917a3.308,3.308,0,0,0-1.835.55,4.914,4.914,0,0,0-1.376,1.376,3.344,3.344,0,0,0-.459,1.927A3.674,3.674,0,0,0,58,29.231a3.472,3.472,0,0,0,2.569,1.1,4.93,4.93,0,0,0,1.927-.459A4.914,4.914,0,0,0,63.873,28.5a3.344,3.344,0,0,0,.459-1.927,4.578,4.578,0,0,0-.459-1.927A3.951,3.951,0,0,0,62.5,23.268a3.11,3.11,0,0,0-1.927-.55" transform="translate(-4.607 -1.8)" fill="#fff"/>
  <path id="Path_264" data-name="Path 264" d="M68.8,22.1h1.743a10.657,10.657,0,0,1,2.018.092,2.272,2.272,0,0,1,1.284.734,2.021,2.021,0,0,1,.459,1.468,2.106,2.106,0,0,1-.367,1.284,2.008,2.008,0,0,1-.917.826,4.624,4.624,0,0,1-1.743.275L74.4,30.816H73.3l-3.119-4.037h-.459v4.037H68.8Zm.826.826v2.936h1.468a4.253,4.253,0,0,0,1.284-.183,1.233,1.233,0,0,0,.642-.55,1.376,1.376,0,0,0,0-1.651,1.868,1.868,0,0,0-.642-.55,3.8,3.8,0,0,0-1.284-.183H69.626Z" transform="translate(-5.681 -1.825)" fill="#fff"/>
  <path id="Path_265" data-name="Path 265" d="M77.9,22.1h1.743a3.385,3.385,0,0,1,1.56.275,3.592,3.592,0,0,1,.917.734,2.608,2.608,0,0,1,.367,1.1,2.443,2.443,0,0,1-.275,1.1,2.166,2.166,0,0,1-.826.734,3.285,3.285,0,0,1,1.009.55,1.427,1.427,0,0,1,.55.734,1.654,1.654,0,0,1,.183.917A2.349,2.349,0,0,1,82.4,29.99a3.1,3.1,0,0,1-2.11.734H77.9V22.1Zm.826.826V25.77h.459a4.469,4.469,0,0,0,1.376-.183.97.97,0,0,0,.642-.55,1.48,1.48,0,0,0,.275-.826,1.129,1.129,0,0,0-.459-.917,1.9,1.9,0,0,0-1.376-.367Zm0,3.67V29.99h1.1a4.47,4.47,0,0,0,1.376-.183,1.427,1.427,0,0,0,.734-.55,1.48,1.48,0,0,0,.275-.826,1.38,1.38,0,0,0-.367-1.009,2.187,2.187,0,0,0-1.009-.55,6.565,6.565,0,0,0-1.56-.092h-.55Z" transform="translate(-6.432 -1.825)" fill="#fff"/>
  <rect id="Rectangle_95" data-name="Rectangle 95" width="0.917" height="8.716" transform="translate(79.541 20.275)" fill="#fff"/>
  <path id="Path_266" data-name="Path 266" d="M91.3,30.816V22.1h1.835a10.418,10.418,0,0,1,2.844.275A3.8,3.8,0,0,1,98,23.935a5.016,5.016,0,0,1,.734,2.661,4.469,4.469,0,0,1-.55,2.294,3.247,3.247,0,0,1-1.468,1.468,6.437,6.437,0,0,1-2.569.459Zm.917-.826h1.009a13.467,13.467,0,0,0,2.477-.183,2.887,2.887,0,0,0,1.56-1.193,3.489,3.489,0,0,0,.55-2.018,3.657,3.657,0,0,0-.642-2.2A2.648,2.648,0,0,0,95.428,23.2a9.657,9.657,0,0,0-2.752-.275h-.642V29.99Z" transform="translate(-7.539 -1.825)" fill="#fff"/>
  <path id="Path_267" data-name="Path 267" d="M105.112,22.1l4.128,8.716h-.917l-1.376-2.844h-3.761l-1.376,2.844H100.8l4.128-8.716Zm-.092,1.835-1.468,3.211h3.028Z" transform="translate(-8.323 -1.825)" fill="#fff"/>
  <path id="Path_268" data-name="Path 268" d="M.092,22.1H1.835a10.658,10.658,0,0,1,2.018.092,2.039,2.039,0,0,1,1.193.734A2.158,2.158,0,0,1,5.5,24.394a2.538,2.538,0,0,1-.459,1.468,2.008,2.008,0,0,1-1.284.734,10.067,10.067,0,0,1-2.2.183H.917v4.037H0V22.1Zm.826.826v2.936H2.385a3.8,3.8,0,0,0,1.284-.183,1.233,1.233,0,0,0,.642-.55c.275-.183.275-.367.275-.734a1.363,1.363,0,0,0-.183-.826,1.233,1.233,0,0,0-.642-.55c-.275,0-.642-.092-1.284-.092Z" transform="translate(0 -1.825)" fill="#fff"/>
  <path id="Path_269" data-name="Path 269" d="M8.6,22.1h5.046v.826H9.426v2.752h4.128V26.5H9.426V29.99h4.128v.826H8.6Z" transform="translate(-0.71 -1.825)" fill="#fff"/>
  <path id="Path_270" data-name="Path 270" d="M16.9,22.1h.917v7.89h3.3v.826H16.9Z" transform="translate(-1.395 -1.825)" fill="#fff"/>
  <path id="Path_271" data-name="Path 271" d="M24.1,22.1h.917v7.89h3.3v.826H24.1Z" transform="translate(-1.99 -1.825)" fill="#fff"/>
  <path id="Path_272" data-name="Path 272" d="M31.2,22.1h4.954v.826H32.026v2.752h4.128V26.5H32.026V29.99h4.128v.826H31.2Z" transform="translate(-2.576 -1.825)" fill="#fff"/>
  <path id="Path_273" data-name="Path 273" d="M43.4,30.816,44.593,22.1h.183l3.578,7.156L51.84,22.1h.183l1.193,8.716h-.826l-.826-6.239-3.119,6.239h-.275l-3.119-6.33-.826,6.33Z" transform="translate(-3.583 -1.825)" fill="#fff"/>
  <path id="Path_274" data-name="Path 274" d="M60.487,21.8a4.646,4.646,0,0,1,3.3,1.284,4.361,4.361,0,0,1,1.376,3.3,4.5,4.5,0,0,1-1.376,3.3,4.451,4.451,0,0,1-3.211,1.376,4.5,4.5,0,0,1-3.3-1.376A4.3,4.3,0,0,1,55.9,26.479a3.941,3.941,0,0,1,.642-2.294,3.6,3.6,0,0,1,1.651-1.651,4.245,4.245,0,0,1,2.294-.734m0,.917a3.308,3.308,0,0,0-1.835.55,4.914,4.914,0,0,0-1.376,1.376,3.344,3.344,0,0,0-.459,1.927,3.674,3.674,0,0,0,1.1,2.661,3.472,3.472,0,0,0,2.569,1.1,4.93,4.93,0,0,0,1.927-.459A3.951,3.951,0,0,0,63.79,28.5a3.344,3.344,0,0,0,.459-1.927,4.578,4.578,0,0,0-.459-1.927,3.951,3.951,0,0,0-1.376-1.376,3.611,3.611,0,0,0-1.927-.55" transform="translate(-4.616 -1.8)" fill="#fff"/>
  <path id="Path_275" data-name="Path 275" d="M68.7,22.1h1.743a10.658,10.658,0,0,1,2.018.092,2.272,2.272,0,0,1,1.284.734,2.021,2.021,0,0,1,.459,1.468,2.106,2.106,0,0,1-.367,1.284,2.008,2.008,0,0,1-.917.826,4.624,4.624,0,0,1-1.743.275L74.3,30.816H73.2l-3.119-4.037h-.459v4.037H68.7Zm.917.826v2.936h1.468a4.253,4.253,0,0,0,1.284-.183,1.233,1.233,0,0,0,.642-.55,1.376,1.376,0,0,0,0-1.651,1.868,1.868,0,0,0-.642-.55,4.912,4.912,0,0,1-1.193,0Z" transform="translate(-5.672 -1.825)" fill="#fff"/>
  <path id="Path_276" data-name="Path 276" d="M77.8,22.1h1.743a3.385,3.385,0,0,1,1.56.275,3.593,3.593,0,0,1,.917.734,2.608,2.608,0,0,1,.367,1.1,2.443,2.443,0,0,1-.275,1.1,2.166,2.166,0,0,1-.826.734,3.285,3.285,0,0,1,1.009.55,1.427,1.427,0,0,1,.55.734,3.26,3.26,0,0,1,.183.917A2.349,2.349,0,0,1,82.3,29.99a3.1,3.1,0,0,1-2.11.734H77.8V22.1Zm.917.826V25.77h.459a4.971,4.971,0,0,0,1.376-.183.97.97,0,0,0,.642-.55,1.48,1.48,0,0,0,.275-.826,1.129,1.129,0,0,0-.459-.917,1.794,1.794,0,0,0-1.284-.367Zm0,3.67V29.99h1.1a4.47,4.47,0,0,0,1.376-.183,1.427,1.427,0,0,0,.734-.55,1.48,1.48,0,0,0,.275-.826,1.38,1.38,0,0,0-.367-1.009,2.187,2.187,0,0,0-1.009-.55,6.565,6.565,0,0,0-1.56-.092h-.55Z" transform="translate(-6.424 -1.825)" fill="#fff"/>
  <rect id="Rectangle_96" data-name="Rectangle 96" width="0.917" height="8.716" transform="translate(79.45 20.275)" fill="#fff"/>
  <path id="Path_277" data-name="Path 277" d="M91.3,30.816V22.1h1.835a10.418,10.418,0,0,1,2.844.275A4.18,4.18,0,0,1,98,23.935a5.016,5.016,0,0,1,.734,2.661,4.469,4.469,0,0,1-.55,2.294,3.247,3.247,0,0,1-1.468,1.468,6.437,6.437,0,0,1-2.569.459Zm.826-.826h1.009a13.467,13.467,0,0,0,2.477-.183,2.887,2.887,0,0,0,1.56-1.193,3.489,3.489,0,0,0,.55-2.018,3.657,3.657,0,0,0-.642-2.2A2.648,2.648,0,0,0,95.337,23.2a9.353,9.353,0,0,0-2.661-.275h-.642V29.99Z" transform="translate(-7.539 -1.825)" fill="#fff"/>
  <path id="Path_278" data-name="Path 278" d="M105,22.1l4.037,8.716h-.917l-1.376-2.844h-3.761l-1.376,2.844H100.6l4.128-8.716Zm-.092,1.835-1.468,3.211h3.028Z" transform="translate(-8.306 -1.825)" fill="#fff"/>
  <path id="Path_279" data-name="Path 279" d="M45.711,41.885l.367.183a1.646,1.646,0,0,1-.459.642,1.919,1.919,0,0,1-.55.367,1.789,1.789,0,0,1-.734.092,1.867,1.867,0,0,1-1.376-.55,1.717,1.717,0,0,1-.459-1.284,1.932,1.932,0,0,1,.459-1.193,1.651,1.651,0,0,1,1.376-.642,1.783,1.783,0,0,1,1.468.734,1.844,1.844,0,0,1,.367,1.193H42.959a1.924,1.924,0,0,0,.367,1.009,1.178,1.178,0,0,0,.917.367,1.164,1.164,0,0,0,.55-.092c.183-.092.275-.183.459-.275a2.433,2.433,0,0,0,.459-.55m0-1.009a1.494,1.494,0,0,0-.275-.55.916.916,0,0,0-.459-.367,1.36,1.36,0,0,0-.642-.092,1.178,1.178,0,0,0-.917.367,2.54,2.54,0,0,0-.459.734h2.752Z" transform="translate(-3.509 -3.261)" fill="#fff"/>
  <path id="Path_280" data-name="Path 280" d="M49.518,39.859l-.275.275a.948.948,0,0,0-.734-.367.649.649,0,0,0-.55.55.693.693,0,0,0,.092.367,5.434,5.434,0,0,0,.55.367,2.533,2.533,0,0,1,.734.55,1.3,1.3,0,0,1,.183.55.947.947,0,0,1-1.009,1.009c-.183,0-.367-.092-.55-.092A.916.916,0,0,1,47.5,42.7l.275-.367a.948.948,0,0,0,.734.367.627.627,0,0,0,.642-.642.552.552,0,0,0-.092-.367,5.433,5.433,0,0,0-.55-.367,6.255,6.255,0,0,1-.642-.459,1.3,1.3,0,0,1-.183-.55.833.833,0,0,1,.275-.642,1.042,1.042,0,0,1,.734-.275,1.512,1.512,0,0,1,.826.459" transform="translate(-3.922 -3.253)" fill="#fff"/>
  <path id="Path_281" data-name="Path 281" d="M51.45,38.1h.459v1.284h.734v.367h-.734v3.211H51.45V39.751H50.9v-.367h.55Z" transform="translate(-4.203 -3.146)" fill="#fff"/>
  <path id="Path_282" data-name="Path 282" d="M54.592,42.692a.459.459,0,1,0,.275-.092.337.337,0,0,0-.275.092" transform="translate(-4.5 -3.517)" fill="#fff"/>
  <path id="Path_283" data-name="Path 283" d="M59.652,38.6H56.9v.55h2.018c-.092.092-1.927,3.761-1.927,3.761l.459.183,2.2-4.5Z" transform="translate(-4.698 -3.187)" fill="#fff"/>
  <path id="Path_284" data-name="Path 284" d="M62.293,38.6h-.917l-.275.55h.642V43h.55Z" transform="translate(-5.045 -3.187)" fill="#fff"/>
  <path id="Path_285" data-name="Path 285" d="M66.961,38.6H65.034l-.459,2.294h.092a1.814,1.814,0,0,1,.917-.183,1.042,1.042,0,0,1,.734.275.833.833,0,0,1,.275.642,1.042,1.042,0,0,1-.275.734.991.991,0,0,1-.642.275.552.552,0,0,1-.367-.092c-.092-.092-.183-.092-.275-.275-.092-.092-.092-.183-.183-.367H64.3v.092a1.235,1.235,0,0,0,.459.826,1.63,1.63,0,0,0,.917.367A2.678,2.678,0,0,0,66.5,43a1.071,1.071,0,0,0,.55-.55,2.679,2.679,0,0,0,.183-.826,1.253,1.253,0,0,0-.367-1.009,1.38,1.38,0,0,0-1.009-.367,1,1,0,0,0-.459.092c0-.183.183-.917.183-1.009h1.56l-.183-.734Z" transform="translate(-5.309 -3.187)" fill="#fff"/>
  <path id="Path_286" data-name="Path 286" d="M45.711,41.885l.367.183a1.646,1.646,0,0,1-.459.642,1.919,1.919,0,0,1-.55.367,1.789,1.789,0,0,1-.734.092,1.867,1.867,0,0,1-1.376-.55,1.717,1.717,0,0,1-.459-1.284,2.6,2.6,0,0,1,.367-1.193,1.651,1.651,0,0,1,1.376-.642,1.783,1.783,0,0,1,1.468.734,1.844,1.844,0,0,1,.367,1.193H42.867a1.924,1.924,0,0,0,.367,1.009,1.178,1.178,0,0,0,.917.367,1.164,1.164,0,0,0,.55-.092c.183-.092.275-.183.459-.275a1.041,1.041,0,0,0,.55-.55m0-1.009a1.494,1.494,0,0,0-.275-.55.916.916,0,0,0-.459-.367,1.36,1.36,0,0,0-.642-.092,1.178,1.178,0,0,0-.917.367,2.54,2.54,0,0,0-.459.734h2.752Z" transform="translate(-3.509 -3.261)" fill="#fff"/>
  <path id="Path_287" data-name="Path 287" d="M49.518,39.859l-.275.275a.948.948,0,0,0-.734-.367.649.649,0,0,0-.55.55.693.693,0,0,0,.092.367,5.434,5.434,0,0,0,.55.367,2.533,2.533,0,0,1,.734.55,1.3,1.3,0,0,1,.183.55.947.947,0,0,1-1.009,1.009c-.183,0-.367-.092-.55-.092A.916.916,0,0,1,47.5,42.7l.275-.367a.948.948,0,0,0,.734.367.627.627,0,0,0,.642-.642.552.552,0,0,0-.092-.367,5.433,5.433,0,0,0-.55-.367,6.255,6.255,0,0,1-.642-.459,1.3,1.3,0,0,1-.183-.55.833.833,0,0,1,.275-.642,1.042,1.042,0,0,1,.734-.275,1.512,1.512,0,0,1,.826.459" transform="translate(-3.922 -3.253)" fill="#fff"/>
  <path id="Path_288" data-name="Path 288" d="M51.542,38.1h.367v1.284h.734v.367h-.734v3.119h-.367V39.751H50.9v-.367h.642Z" transform="translate(-4.203 -3.146)" fill="#fff"/>
  <path id="Path_289" data-name="Path 289" d="M54.592,42.688a.459.459,0,1,0,.275-.092c-.092-.092-.183,0-.275.092" transform="translate(-4.5 -3.514)" fill="#fff"/>
  <path id="Path_290" data-name="Path 290" d="M59.652,38.6H56.9v.55h2.018c-.092.092-1.927,3.67-1.927,3.67L57.45,43l2.2-4.4Z" transform="translate(-4.698 -3.187)" fill="#fff"/>
  <path id="Path_291" data-name="Path 291" d="M62.193,38.6h-.826L61,39.15h.734v3.761h.55V38.6Z" transform="translate(-5.037 -3.187)" fill="#fff"/>
  <path id="Path_292" data-name="Path 292" d="M66.861,38.6H64.934l-.459,2.294h.092a1.814,1.814,0,0,1,.917-.183,1.042,1.042,0,0,1,.734.275.833.833,0,0,1,.275.642,1.042,1.042,0,0,1-.275.734.991.991,0,0,1-.642.275.552.552,0,0,1-.367-.092c-.092-.092-.183-.092-.275-.275-.092-.092-.092-.183-.183-.367H64.2v.092a1.235,1.235,0,0,0,.459.826,1.63,1.63,0,0,0,.917.367A2.679,2.679,0,0,0,66.4,43a1.071,1.071,0,0,0,.55-.55,2.679,2.679,0,0,0,.183-.826,1.27,1.27,0,0,0-1.376-1.376,1,1,0,0,0-.459.092c0-.092.183-.917.183-1.009h1.56l-.183-.734Z" transform="translate(-5.301 -3.187)" fill="#fff"/>
  <path id="Path_293" data-name="Path 293" d="M72.427,12.477H38.3a.593.593,0,0,1-.459-.183c-.183-.092-.459-.367-.826-.642C36.28,11.1,34.445,10,33.436,9.358c-.459-.275-.642-.367-.642-.367-.092-.092-.092-.092,0-.092a.09.09,0,0,1,.092-.092s5.5.092,5.872.092c.826-.826,2.11-2.018,2.2-2.2a2.54,2.54,0,0,1-.092-.826c0-.367.183-.459.183-.459a5.535,5.535,0,0,1,.734-.734c0-.092.183-.092.183-.092h.642c.092-.183,1.284-1.468,1.376-1.56a.337.337,0,0,1,.275-.092h.459c.092-.092.275-.459.367-.55s.092-.092.183-.092h.642c.092-.092.275-.642.367-.734a.284.284,0,0,1,.183-.092h.275a1.55,1.55,0,0,1,.275-.55l.092-.092h.459a7.315,7.315,0,0,0,.55-.734C48.207,0,48.207,0,48.3,0V.092s-.367,1.376-.642,2.294h3.67c.183,0,.183.092.183.183v.459h.826c.092,0,.183,0,.183.092,0,0,.092.459.092.55h2.11v.367h3.67a2.834,2.834,0,0,1,.642-1.284,1.265,1.265,0,0,1,1.193-.459h0a1.3,1.3,0,0,1,1.009.367h.092A15.684,15.684,0,0,1,62.61,3.67h3.67a.09.09,0,0,1,.092.092v.275h2.11c.092,0,.092,0,.183.092,0,0,.459.459.459.55v.092H68.115l.367.275h1.1c.092,0,.183,0,.183.092,0,0,.367.55.459.642h.367c.092,0,.092,0,.092.092a2.943,2.943,0,0,0,.275.459h.275a.09.09,0,0,1,.092.092v.092l.55.826h.183c.092,0,.092,0,.092.092,0,0,.092.367.183.642h.183l.275.734h.092a.09.09,0,0,1,.092.092v.367h.367c.092,0,.092,0,.092.092V10h.092c.092,0,.092,0,.092.092v1.1c0,.092-.092.183-.183.367v.092a.32.32,0,0,0-.092.183,6.26,6.26,0,0,1-.459.642C72.7,12.385,72.519,12.477,72.427,12.477Zm-.092-.092s.275,0,.367-.092a6.256,6.256,0,0,0,.459-.642c.092-.092.092-.092.092-.183v-.092a1.319,1.319,0,0,0,.183-.275V10h-.092V9.358h-.459V8.991h-.092l-.275-.734h-.183a3.738,3.738,0,0,1-.183-.642h-.275l-.367-1.009V6.514h-.275a2,2,0,0,0-.275-.459l-.092-.092H70.5l-.459-.642H68.849l-.734-.734h1.1c0-.092-.459-.55-.459-.55h-2.2V3.761H62.794s-1.1-.917-1.284-1.009h-.092a1.476,1.476,0,0,0-1.009-.275h0a1.519,1.519,0,0,0-1.193.459,2.5,2.5,0,0,0-.642,1.193H54.812V3.853h0V3.761H52.7a3.244,3.244,0,0,0-.092-.55.09.09,0,0,0-.092-.092h-.826V2.661s0-.092-.183-.092H47.84c.275-.826.55-2.11.642-2.294a.09.09,0,0,0-.092.092c-.092.092-.367.459-.642.734H47.2l-.092.092a3.054,3.054,0,0,1-.275.55h-.367a.09.09,0,0,0-.092.092A5.448,5.448,0,0,1,46,2.569h-.734a5.434,5.434,0,0,0-.367.55h-.459c-.092,0-.183,0-.183.092-.092.092-1.376,1.56-1.376,1.56h-.642a.71.71,0,0,0-.275.092c-.092.092-.642.734-.734.734h0a1.1,1.1,0,0,0-.183.459,2.28,2.28,0,0,0,.092.734h0a26.18,26.18,0,0,1-2.294,2.294h0c-.275,0-5.872-.092-5.872-.092h-.092v.092a6.636,6.636,0,0,0,.642.367c1.009.642,2.844,1.743,3.578,2.294.367.275.642.55.826.642a.827.827,0,0,0,.459.092H60.133Z" transform="translate(-2.702)" fill="#fff"/>
  <path id="Path_294" data-name="Path 294" d="M43.693,11.017h-.275a.4.4,0,0,1-.275-.092h0c-.092,0-.367-.275-.55-.55a.284.284,0,0,1-.092-.183c0-.092.092-.092.275-.092h2.936c.092,0,.092,0,.092.092v.642a.32.32,0,0,1-.092.183H43.693Zm-1.009-.826c-.183,0-.183,0-.183.092a.09.09,0,0,0,.092.092,6.759,6.759,0,0,0,.55.459h0a.4.4,0,0,0,.275.092h2.294a.09.09,0,0,0,.092-.092v-.642a.09.09,0,0,0-.092-.092H42.683Z" transform="translate(-3.509 -0.834)" fill="#fff"/>
  <path id="Path_295" data-name="Path 295" d="M47.134,11.026H46.4v-.734a.09.09,0,0,1,.092-.092h2.2a.09.09,0,0,1,.092.092v.642a.09.09,0,0,1-.092.092Zm1.1-.826H46.492v.826h2.2a.09.09,0,0,0,.092-.092V10.2Z" transform="translate(-3.831 -0.842)" fill="#fff"/>
  <rect id="Rectangle_97" data-name="Rectangle 97" width="2.385" height="0.092" transform="translate(42.569 9.725)" fill="#fff"/>
  <path id="Path_296" data-name="Path 296" d="M50.134,11.026H49.4v-.734a.09.09,0,0,1,.092-.092h2.2a.09.09,0,0,1,.092.092h0v.642a.09.09,0,0,1-.092.092Zm1.56-.826h-2.2v.826h2.2l.092-.092v-.642l-.092-.092Z" transform="translate(-4.079 -0.842)" fill="#fff"/>
  <path id="Path_297" data-name="Path 297" d="M57.254,10.934H52.392c-.092,0-.092,0-.092-.092v-.55a.09.09,0,0,1,.092-.092H62.3c.092,0,.092,0,.092.092v.55a.09.09,0,0,1-.092.092Zm4.128-.734H52.392v.092h0v.55h0a.09.09,0,0,0,.092.092h9.908l.092-.092V10.2Z" transform="translate(-4.318 -0.842)" fill="#fff"/>
  <rect id="Rectangle_98" data-name="Rectangle 98" width="2.385" height="0.092" transform="translate(45.321 9.725)" fill="#fff"/>
  <path id="Path_298" data-name="Path 298" d="M64.534,10.926H63.8v-.734h2.385v.642a.09.09,0,0,1-.092.092Zm-.642-.734h0v.642H66V10.1H64.626a5.46,5.46,0,0,1-.734.092Z" transform="translate(-5.268 -0.834)" fill="#fff"/>
  <rect id="Rectangle_99" data-name="Rectangle 99" width="2.294" height="0.092" transform="translate(58.532 9.633)" fill="#fff"/>
  <path id="Path_299" data-name="Path 299" d="M67.534,10.934H66.8V10.2H69a.09.09,0,0,1,.092.092h0v.55a.09.09,0,0,1-.092.092Zm-.642-.734h0v.642H69V10.2h-2.11Z" transform="translate(-5.516 -0.842)" fill="#fff"/>
  <rect id="Rectangle_100" data-name="Rectangle 100" width="2.294" height="0.092" transform="translate(61.284 9.633)" fill="#fff"/>
  <rect id="Rectangle_101" data-name="Rectangle 101" width="0.092" height="0.734" transform="translate(48.899 9.266)" fill="#fff"/>
  <path id="Path_300" data-name="Path 300" d="M69.9,10.926V10.1h6.147v.092H69.9v.642h6.514Z" transform="translate(-5.772 -0.834)" fill="#fff"/>
  <rect id="Rectangle_102" data-name="Rectangle 102" width="34.128" height="0.092" transform="translate(35.963 8.807)" fill="#fff"/>
  <rect id="Rectangle_103" data-name="Rectangle 103" width="32.752" height="0.092" transform="translate(36.789 7.982)" fill="#fff"/>
  <rect id="Rectangle_104" data-name="Rectangle 104" width="31.56" height="0.092" transform="translate(37.615 7.339)" fill="#fff"/>
  <path id="Path_301" data-name="Path 301" d="M61.408,7.25H41.592V7.159H61.317V6.792H41.5L61.408,6.7Z" transform="translate(-3.427 -0.553)" fill="#fff"/>
  <g id="Group_208" data-name="Group 208" transform="translate(37.248 1.56)">
    <rect id="Rectangle_105" data-name="Rectangle 105" width="0.55" height="0.734" transform="translate(12.936 7.706)" fill="#fff"/>
    <g id="Group_207" data-name="Group 207">
      <path id="Path_302" data-name="Path 302" d="M43.35,9.275h-.459a.09.09,0,0,1-.092-.092V9.092A.09.09,0,0,1,42.892,9h.459a.09.09,0,0,1,.092.092l-.092.183h0" transform="translate(-40.782 -2.303)" fill="#fff"/>
      <path id="Path_303" data-name="Path 303" d="M42.25,9.275h-.459a.09.09,0,0,1-.092-.092V9.092A.09.09,0,0,1,41.792,9h.459a.09.09,0,0,1,.092.092l-.092.183h0" transform="translate(-40.691 -2.303)" fill="#fff"/>
      <path id="Path_304" data-name="Path 304" d="M41.15,9.275h-.459a.09.09,0,0,1-.092-.092V9.092A.09.09,0,0,1,40.692,9h.459a.09.09,0,0,1,.092.092l-.092.183h0" transform="translate(-40.6 -2.303)" fill="#fff"/>
      <path id="Path_305" data-name="Path 305" d="M44.45,9.275h-.459a.09.09,0,0,1-.092-.092V9.092L43.992,9h.459a.09.09,0,0,1,.092.092l-.092.183h0" transform="translate(-40.872 -2.303)" fill="#fff"/>
      <path id="Path_306" data-name="Path 306" d="M45.65,9.275h-.459a.09.09,0,0,1-.092-.092V9.092A.09.09,0,0,1,45.192,9h.459a.09.09,0,0,1,.092.092l-.092.183h0" transform="translate(-40.972 -2.303)" fill="#fff"/>
      <path id="Path_307" data-name="Path 307" d="M46.75,9.275h-.459a.09.09,0,0,1-.092-.092V9.092A.09.09,0,0,1,46.292,9h.459a.09.09,0,0,1,.092.092l-.092.183h0" transform="translate(-41.062 -2.303)" fill="#fff"/>
      <path id="Path_308" data-name="Path 308" d="M47.95,9.275h-.459a.09.09,0,0,1-.092-.092V9.092A.09.09,0,0,1,47.492,9h.459a.09.09,0,0,1,.092.092l-.092.183h0" transform="translate(-41.161 -2.303)" fill="#fff"/>
      <path id="Path_309" data-name="Path 309" d="M49.05,9.275h-.459a.09.09,0,0,1-.092-.092V9.092A.09.09,0,0,1,48.592,9h.459a.09.09,0,0,1,.092.092l-.092.183h0" transform="translate(-41.252 -2.303)" fill="#fff"/>
      <path id="Path_310" data-name="Path 310" d="M50.25,9.275h-.459a.09.09,0,0,1-.092-.092V9.092A.09.09,0,0,1,49.792,9h.459a.09.09,0,0,1,.092.092l-.092.183h0" transform="translate(-41.351 -2.303)" fill="#fff"/>
      <path id="Path_311" data-name="Path 311" d="M51.45,9.275h-.459a.09.09,0,0,1-.092-.092V9.092A.09.09,0,0,1,50.992,9h.459a.09.09,0,0,1,.092.092l-.092.183h0" transform="translate(-41.45 -2.303)" fill="#fff"/>
      <path id="Path_312" data-name="Path 312" d="M52.55,9.275h-.459A.09.09,0,0,1,52,9.183V9.092A.09.09,0,0,1,52.092,9h.459a.09.09,0,0,1,.092.092l-.092.183h0" transform="translate(-41.541 -2.303)" fill="#fff"/>
      <path id="Path_313" data-name="Path 313" d="M53.75,9.275h-.459a.09.09,0,0,1-.092-.092V9.092A.09.09,0,0,1,53.292,9h.459a.09.09,0,0,1,.092.092l-.092.183h0" transform="translate(-41.64 -2.303)" fill="#fff"/>
      <path id="Path_314" data-name="Path 314" d="M54.85,9.275h-.459a.09.09,0,0,1-.092-.092V9.092A.09.09,0,0,1,54.392,9h.459c.092,0,.092,0,.092.092l-.092.183h0" transform="translate(-41.731 -2.303)" fill="#fff"/>
      <path id="Path_315" data-name="Path 315" d="M56.05,9.275h-.459a.09.09,0,0,1-.092-.092V9.092A.09.09,0,0,1,55.592,9h.459a.09.09,0,0,1,.092.092l-.092.183h0" transform="translate(-41.83 -2.303)" fill="#fff"/>
      <path id="Path_316" data-name="Path 316" d="M57.15,9.275h-.459a.09.09,0,0,1-.092-.092V9.092A.09.09,0,0,1,56.692,9h.459a.09.09,0,0,1,.092.092l-.092.183h0" transform="translate(-41.921 -2.303)" fill="#fff"/>
      <path id="Path_317" data-name="Path 317" d="M58.35,9.275h-.459a.09.09,0,0,1-.092-.092V9.092A.09.09,0,0,1,57.892,9h.459a.09.09,0,0,1,.092.092l-.092.183h0" transform="translate(-42.02 -2.303)" fill="#fff"/>
      <path id="Path_318" data-name="Path 318" d="M59.45,9.275h-.459a.09.09,0,0,1-.092-.092V9.092A.09.09,0,0,1,58.992,9h.459a.09.09,0,0,1,.092.092l-.092.183h0" transform="translate(-42.111 -2.303)" fill="#fff"/>
      <path id="Path_319" data-name="Path 319" d="M60.542,9.275h-.55a.09.09,0,0,1-.092-.092V9.092L59.992,9h.459a.09.09,0,0,1,.092.092v.183h0" transform="translate(-42.194 -2.303)" fill="#fff"/>
      <path id="Path_320" data-name="Path 320" d="M61.65,9.275h-.459a.09.09,0,0,1-.092-.092V9.092A.09.09,0,0,1,61.192,9h.459a.09.09,0,0,1,.092.092l-.092.183h0" transform="translate(-42.293 -2.303)" fill="#fff"/>
      <path id="Path_321" data-name="Path 321" d="M62.85,9.275h-.459a.09.09,0,0,1-.092-.092V9.092A.09.09,0,0,1,62.392,9h.459a.09.09,0,0,1,.092.092l-.092.183h0" transform="translate(-42.392 -2.303)" fill="#fff"/>
      <path id="Path_322" data-name="Path 322" d="M63.95,9.275h-.459a.09.09,0,0,1-.092-.092V9.092A.09.09,0,0,1,63.492,9h.459a.09.09,0,0,1,.092.092l-.092.183h0" transform="translate(-42.483 -2.303)" fill="#fff"/>
      <path id="Path_323" data-name="Path 323" d="M65.15,9.275h-.459a.09.09,0,0,1-.092-.092V9.092A.09.09,0,0,1,64.692,9h.459a.09.09,0,0,1,.092.092l-.092.183h0" transform="translate(-42.582 -2.303)" fill="#fff"/>
      <path id="Path_324" data-name="Path 324" d="M66.25,9.275h-.459a.09.09,0,0,1-.092-.092V9.092A.09.09,0,0,1,65.792,9h.459a.09.09,0,0,1,.092.092l-.092.183h0" transform="translate(-42.672 -2.303)" fill="#fff"/>
      <path id="Path_325" data-name="Path 325" d="M67.45,9.275h-.459a.09.09,0,0,1-.092-.092V9.092A.09.09,0,0,1,66.992,9h.459a.09.09,0,0,1,.092.092l-.092.183h0" transform="translate(-42.772 -2.303)" fill="#fff"/>
      <path id="Path_326" data-name="Path 326" d="M68.55,9.275h-.459A.09.09,0,0,1,68,9.183V9.092A.09.09,0,0,1,68.092,9h.459a.09.09,0,0,1,.092.092l-.092.183h0" transform="translate(-42.862 -2.303)" fill="#fff"/>
      <path id="Path_327" data-name="Path 327" d="M69.75,9.275h-.459a.09.09,0,0,1-.092-.092V9.092A.09.09,0,0,1,69.292,9h.459a.09.09,0,0,1,.092.092l-.092.183h0" transform="translate(-42.961 -2.303)" fill="#fff"/>
      <path id="Path_328" data-name="Path 328" d="M70.85,9.275h-.459a.09.09,0,0,1-.092-.092V9.092A.09.09,0,0,1,70.392,9h.459c.092,0,.092,0,.092.092l-.092.183h0" transform="translate(-43.052 -2.303)" fill="#fff"/>
      <path id="Path_329" data-name="Path 329" d="M72.05,9.275h-.459a.09.09,0,0,1-.092-.092V9.092A.09.09,0,0,1,71.592,9h.459a.09.09,0,0,1,.092.092l-.092.183h0" transform="translate(-43.151 -2.303)" fill="#fff"/>
      <path id="Path_330" data-name="Path 330" d="M73.15,9.275h-.459a.09.09,0,0,1-.092-.092V9.092A.09.09,0,0,1,72.692,9h.459a.09.09,0,0,1,.092.092l-.092.183h0" transform="translate(-43.242 -2.303)" fill="#fff"/>
      <path id="Path_331" data-name="Path 331" d="M74.35,9.275h-.459a.09.09,0,0,1-.092-.092V9.092A.09.09,0,0,1,73.892,9h.459a.09.09,0,0,1,.092.092l-.092.183h0" transform="translate(-43.341 -2.303)" fill="#fff"/>
      <g id="Group_206" data-name="Group 206" transform="translate(1.009)">
        <path id="Path_332" data-name="Path 332" d="M43.35,8.475h-.459a.09.09,0,0,1-.092-.092V8.292a.09.09,0,0,1,.092-.092h.459a.09.09,0,0,1,.092.092l-.092.183h0" transform="translate(-41.791 -2.237)" fill="#fff"/>
        <path id="Path_333" data-name="Path 333" d="M42.25,8.475h-.459a.09.09,0,0,1-.092-.092V8.292a.09.09,0,0,1,.092-.092h.459a.09.09,0,0,1,.092.092l-.092.183h0" transform="translate(-41.7 -2.237)" fill="#fff"/>
        <path id="Path_334" data-name="Path 334" d="M44.45,8.475h-.459a.09.09,0,0,1-.092-.092V8.292a.09.09,0,0,1,.092-.092h.459a.09.09,0,0,1,.092.092l-.092.183h0" transform="translate(-41.882 -2.237)" fill="#fff"/>
        <path id="Path_335" data-name="Path 335" d="M45.65,8.475h-.459a.09.09,0,0,1-.092-.092V8.292a.09.09,0,0,1,.092-.092h.459a.09.09,0,0,1,.092.092l-.092.183h0" transform="translate(-41.981 -2.237)" fill="#fff"/>
        <path id="Path_336" data-name="Path 336" d="M46.75,8.475h-.459a.09.09,0,0,1-.092-.092V8.292a.09.09,0,0,1,.092-.092h.459a.09.09,0,0,1,.092.092l-.092.183h0" transform="translate(-42.072 -2.237)" fill="#fff"/>
        <path id="Path_337" data-name="Path 337" d="M47.95,8.475h-.459a.09.09,0,0,1-.092-.092V8.292a.09.09,0,0,1,.092-.092h.459a.09.09,0,0,1,.092.092l-.092.183h0" transform="translate(-42.171 -2.237)" fill="#fff"/>
        <path id="Path_338" data-name="Path 338" d="M49.05,8.475h-.459a.09.09,0,0,1-.092-.092V8.292a.09.09,0,0,1,.092-.092h.459a.09.09,0,0,1,.092.092l-.092.183h0" transform="translate(-42.261 -2.237)" fill="#fff"/>
        <path id="Path_339" data-name="Path 339" d="M50.25,8.475h-.459a.09.09,0,0,1-.092-.092V8.292a.09.09,0,0,1,.092-.092h.459a.09.09,0,0,1,.092.092l-.092.183h0" transform="translate(-42.361 -2.237)" fill="#fff"/>
        <path id="Path_340" data-name="Path 340" d="M51.45,8.475h-.459a.09.09,0,0,1-.092-.092V8.292a.09.09,0,0,1,.092-.092h.459a.09.09,0,0,1,.092.092l-.092.183h0" transform="translate(-42.46 -2.237)" fill="#fff"/>
        <path id="Path_341" data-name="Path 341" d="M52.55,8.475h-.459A.09.09,0,0,1,52,8.383V8.292a.09.09,0,0,1,.092-.092h.459a.09.09,0,0,1,.092.092l-.092.183h0" transform="translate(-42.55 -2.237)" fill="#fff"/>
        <path id="Path_342" data-name="Path 342" d="M53.75,8.475h-.459a.09.09,0,0,1-.092-.092V8.292a.09.09,0,0,1,.092-.092h.459a.09.09,0,0,1,.092.092l-.092.183h0" transform="translate(-42.65 -2.237)" fill="#fff"/>
        <path id="Path_343" data-name="Path 343" d="M54.85,8.475h-.459a.09.09,0,0,1-.092-.092V8.292a.09.09,0,0,1,.092-.092h.459a.09.09,0,0,1,.092.092l-.092.183h0" transform="translate(-42.74 -2.237)" fill="#fff"/>
        <path id="Path_344" data-name="Path 344" d="M56.05,8.475h-.459a.09.09,0,0,1-.092-.092V8.292a.09.09,0,0,1,.092-.092h.459a.09.09,0,0,1,.092.092l-.092.183h0" transform="translate(-42.839 -2.237)" fill="#fff"/>
        <path id="Path_345" data-name="Path 345" d="M57.15,8.475h-.459a.09.09,0,0,1-.092-.092V8.292a.09.09,0,0,1,.092-.092h.459a.09.09,0,0,1,.092.092l-.092.183h0" transform="translate(-42.93 -2.237)" fill="#fff"/>
        <path id="Path_346" data-name="Path 346" d="M58.35,8.475h-.459a.09.09,0,0,1-.092-.092V8.292a.09.09,0,0,1,.092-.092h.459a.09.09,0,0,1,.092.092l-.092.183h0" transform="translate(-43.029 -2.237)" fill="#fff"/>
        <path id="Path_347" data-name="Path 347" d="M59.45,8.475h-.459a.09.09,0,0,1-.092-.092V8.292a.09.09,0,0,1,.092-.092h.459a.09.09,0,0,1,.092.092l-.092.183h0" transform="translate(-43.12 -2.237)" fill="#fff"/>
        <path id="Path_348" data-name="Path 348" d="M60.542,8.475h-.55a.09.09,0,0,1-.092-.092V8.292a.09.09,0,0,1,.092-.092h.459a.09.09,0,0,1,.092.092v.183h0" transform="translate(-43.203 -2.237)" fill="#fff"/>
        <path id="Path_349" data-name="Path 349" d="M61.65,8.475h-.459a.09.09,0,0,1-.092-.092V8.292a.09.09,0,0,1,.092-.092h.459a.09.09,0,0,1,.092.092l-.092.183h0" transform="translate(-43.302 -2.237)" fill="#fff"/>
        <path id="Path_350" data-name="Path 350" d="M62.85,8.475h-.459a.09.09,0,0,1-.092-.092V8.292a.09.09,0,0,1,.092-.092h.459a.09.09,0,0,1,.092.092l-.092.183h0" transform="translate(-43.401 -2.237)" fill="#fff"/>
        <path id="Path_351" data-name="Path 351" d="M63.95,8.475h-.459a.09.09,0,0,1-.092-.092V8.292a.09.09,0,0,1,.092-.092h.459a.09.09,0,0,1,.092.092l-.092.183h0" transform="translate(-43.492 -2.237)" fill="#fff"/>
        <path id="Path_352" data-name="Path 352" d="M65.15,8.475h-.459a.09.09,0,0,1-.092-.092V8.292a.09.09,0,0,1,.092-.092h.459a.09.09,0,0,1,.092.092l-.092.183h0" transform="translate(-43.591 -2.237)" fill="#fff"/>
        <path id="Path_353" data-name="Path 353" d="M66.25,8.475h-.459a.09.09,0,0,1-.092-.092V8.292a.09.09,0,0,1,.092-.092h.459a.09.09,0,0,1,.092.092l-.092.183h0" transform="translate(-43.682 -2.237)" fill="#fff"/>
        <path id="Path_354" data-name="Path 354" d="M67.45,8.475h-.459a.09.09,0,0,1-.092-.092V8.292a.09.09,0,0,1,.092-.092h.459a.09.09,0,0,1,.092.092l-.092.183h0" transform="translate(-43.781 -2.237)" fill="#fff"/>
        <path id="Path_355" data-name="Path 355" d="M68.55,8.475h-.459A.09.09,0,0,1,68,8.383V8.292a.09.09,0,0,1,.092-.092h.459a.09.09,0,0,1,.092.092l-.092.183h0" transform="translate(-43.872 -2.237)" fill="#fff"/>
        <path id="Path_356" data-name="Path 356" d="M69.75,8.475h-.459a.09.09,0,0,1-.092-.092V8.292a.09.09,0,0,1,.092-.092h.459a.09.09,0,0,1,.092.092l-.092.183h0" transform="translate(-43.971 -2.237)" fill="#fff"/>
        <path id="Path_357" data-name="Path 357" d="M70.85,8.475h-.459a.09.09,0,0,1-.092-.092V8.292a.09.09,0,0,1,.092-.092h.459a.09.09,0,0,1,.092.092l-.092.183h0" transform="translate(-44.061 -2.237)" fill="#fff"/>
        <path id="Path_358" data-name="Path 358" d="M72.05,8.475h-.459a.09.09,0,0,1-.092-.092V8.292a.09.09,0,0,1,.092-.092h.459a.09.09,0,0,1,.092.092l-.092.183h0" transform="translate(-44.161 -2.237)" fill="#fff"/>
        <path id="Path_359" data-name="Path 359" d="M73.15,8.475h-.459a.09.09,0,0,1-.092-.092V8.292a.09.09,0,0,1,.092-.092h.459a.09.09,0,0,1,.092.092l-.092.183h0" transform="translate(-44.251 -2.237)" fill="#fff"/>
        <path id="Path_360" data-name="Path 360" d="M74.35,8.475h-.459a.09.09,0,0,1-.092-.092V8.292a.09.09,0,0,1,.092-.092h.459a.09.09,0,0,1,.092.092l-.092.183h0" transform="translate(-44.35 -2.237)" fill="#fff"/>
        <g id="Group_205" data-name="Group 205">
          <path id="Path_361" data-name="Path 361" d="M73.674,6.759H64.5V6.3h8.807a.284.284,0,0,1,.183.092c0-.092.183.367.183.367" transform="translate(-43.583 -2.08)" fill="#fff"/>
          <path id="Path_362" data-name="Path 362" d="M43.35,7.775h-.459a.09.09,0,0,1-.092-.092V7.592a.09.09,0,0,1,.092-.092h.459a.09.09,0,0,1,.092.092l-.092.183h0" transform="translate(-41.791 -2.179)" fill="#fff"/>
          <path id="Path_363" data-name="Path 363" d="M44.45,7.775h-.459a.09.09,0,0,1-.092-.092V7.592a.09.09,0,0,1,.092-.092h.459a.09.09,0,0,1,.092.092l-.092.183c.092-.092.092,0,0,0" transform="translate(-41.882 -2.179)" fill="#fff"/>
          <path id="Path_364" data-name="Path 364" d="M45.65,7.775h-.459a.09.09,0,0,1-.092-.092V7.592a.09.09,0,0,1,.092-.092h.459a.09.09,0,0,1,.092.092l-.092.183h0" transform="translate(-41.981 -2.179)" fill="#fff"/>
          <path id="Path_365" data-name="Path 365" d="M46.75,7.775h-.459a.09.09,0,0,1-.092-.092V7.592a.09.09,0,0,1,.092-.092h.459a.09.09,0,0,1,.092.092l-.092.183c.092-.092.092,0,0,0" transform="translate(-42.072 -2.179)" fill="#fff"/>
          <path id="Path_366" data-name="Path 366" d="M47.95,7.775h-.459a.09.09,0,0,1-.092-.092V7.592a.09.09,0,0,1,.092-.092h.459a.09.09,0,0,1,.092.092l-.092.183h0" transform="translate(-42.171 -2.179)" fill="#fff"/>
          <path id="Path_367" data-name="Path 367" d="M49.05,7.775h-.459a.09.09,0,0,1-.092-.092V7.592a.09.09,0,0,1,.092-.092h.459a.09.09,0,0,1,.092.092l-.092.183c.092-.092.092,0,0,0" transform="translate(-42.261 -2.179)" fill="#fff"/>
          <path id="Path_368" data-name="Path 368" d="M50.25,7.775h-.459a.09.09,0,0,1-.092-.092V7.592a.09.09,0,0,1,.092-.092h.459a.09.09,0,0,1,.092.092l-.092.183h0" transform="translate(-42.361 -2.179)" fill="#fff"/>
          <path id="Path_369" data-name="Path 369" d="M51.45,7.775h-.459a.09.09,0,0,1-.092-.092V7.592a.09.09,0,0,1,.092-.092h.459a.09.09,0,0,1,.092.092l-.092.183h0" transform="translate(-42.46 -2.179)" fill="#fff"/>
          <path id="Path_370" data-name="Path 370" d="M52.55,7.775h-.459A.09.09,0,0,1,52,7.683V7.592a.09.09,0,0,1,.092-.092h.459a.09.09,0,0,1,.092.092l-.092.183c.092-.092.092,0,0,0" transform="translate(-42.55 -2.179)" fill="#fff"/>
          <path id="Path_371" data-name="Path 371" d="M53.75,7.775h-.459a.09.09,0,0,1-.092-.092V7.592a.09.09,0,0,1,.092-.092h.459a.09.09,0,0,1,.092.092l-.092.183h0" transform="translate(-42.65 -2.179)" fill="#fff"/>
          <path id="Path_372" data-name="Path 372" d="M54.85,7.775h-.459a.09.09,0,0,1-.092-.092V7.592a.09.09,0,0,1,.092-.092h.459a.09.09,0,0,1,.092.092l-.092.183c.092-.092.092,0,0,0" transform="translate(-42.74 -2.179)" fill="#fff"/>
          <path id="Path_373" data-name="Path 373" d="M56.05,7.775h-.459a.09.09,0,0,1-.092-.092V7.592a.09.09,0,0,1,.092-.092h.459a.09.09,0,0,1,.092.092l-.092.183h0" transform="translate(-42.839 -2.179)" fill="#fff"/>
          <path id="Path_374" data-name="Path 374" d="M57.15,7.775h-.459a.09.09,0,0,1-.092-.092V7.592a.09.09,0,0,1,.092-.092h.459a.09.09,0,0,1,.092.092l-.092.183c.092-.092.092,0,0,0" transform="translate(-42.93 -2.179)" fill="#fff"/>
          <path id="Path_375" data-name="Path 375" d="M58.35,7.775h-.459a.09.09,0,0,1-.092-.092V7.592a.09.09,0,0,1,.092-.092h.459a.09.09,0,0,1,.092.092l-.092.183h0" transform="translate(-43.029 -2.179)" fill="#fff"/>
          <path id="Path_376" data-name="Path 376" d="M59.45,7.775h-.459a.09.09,0,0,1-.092-.092V7.592a.09.09,0,0,1,.092-.092h.459a.09.09,0,0,1,.092.092l-.092.183h0" transform="translate(-43.12 -2.179)" fill="#fff"/>
          <path id="Path_377" data-name="Path 377" d="M60.542,7.775h-.55a.09.09,0,0,1-.092-.092V7.592a.09.09,0,0,1,.092-.092h.459a.09.09,0,0,1,.092.092v.183h0" transform="translate(-43.203 -2.179)" fill="#fff"/>
          <path id="Path_378" data-name="Path 378" d="M61.65,7.775h-.459a.09.09,0,0,1-.092-.092V7.592a.09.09,0,0,1,.092-.092h.459a.09.09,0,0,1,.092.092l-.092.183h0" transform="translate(-43.302 -2.179)" fill="#fff"/>
          <path id="Path_379" data-name="Path 379" d="M62.85,7.775h-.459a.09.09,0,0,1-.092-.092V7.592a.09.09,0,0,1,.092-.092h.459a.09.09,0,0,1,.092.092l-.092.183h0" transform="translate(-43.401 -2.179)" fill="#fff"/>
          <path id="Path_380" data-name="Path 380" d="M63.95,7.775h-.459a.09.09,0,0,1-.092-.092V7.592a.09.09,0,0,1,.092-.092h.459a.09.09,0,0,1,.092.092l-.092.183c.092-.092.092,0,0,0" transform="translate(-43.492 -2.179)" fill="#fff"/>
          <path id="Path_381" data-name="Path 381" d="M65.15,7.775h-.459a.09.09,0,0,1-.092-.092V7.592a.09.09,0,0,1,.092-.092h.459a.09.09,0,0,1,.092.092l-.092.183h0" transform="translate(-43.591 -2.179)" fill="#fff"/>
          <path id="Path_382" data-name="Path 382" d="M66.25,7.775h-.459a.09.09,0,0,1-.092-.092V7.592a.09.09,0,0,1,.092-.092h.459a.09.09,0,0,1,.092.092l-.092.183c.092-.092.092,0,0,0" transform="translate(-43.682 -2.179)" fill="#fff"/>
          <path id="Path_383" data-name="Path 383" d="M67.45,7.775h-.459a.09.09,0,0,1-.092-.092V7.592a.09.09,0,0,1,.092-.092h.459a.09.09,0,0,1,.092.092l-.092.183h0" transform="translate(-43.781 -2.179)" fill="#fff"/>
          <path id="Path_384" data-name="Path 384" d="M68.55,7.775h-.459A.09.09,0,0,1,68,7.683V7.592a.09.09,0,0,1,.092-.092h.459a.09.09,0,0,1,.092.092l-.092.183c.092-.092.092,0,0,0" transform="translate(-43.872 -2.179)" fill="#fff"/>
          <path id="Path_385" data-name="Path 385" d="M69.75,7.775h-.459a.09.09,0,0,1-.092-.092V7.592a.09.09,0,0,1,.092-.092h.459a.09.09,0,0,1,.092.092l-.092.183h0" transform="translate(-43.971 -2.179)" fill="#fff"/>
          <path id="Path_386" data-name="Path 386" d="M70.85,7.775h-.459a.09.09,0,0,1-.092-.092V7.592a.09.09,0,0,1,.092-.092h.459a.09.09,0,0,1,.092.092l-.092.183c.092-.092.092,0,0,0" transform="translate(-44.061 -2.179)" fill="#fff"/>
          <path id="Path_387" data-name="Path 387" d="M72.05,7.775h-.459a.09.09,0,0,1-.092-.092V7.592a.09.09,0,0,1,.092-.092h.459a.09.09,0,0,1,.092.092l-.092.183h0" transform="translate(-44.161 -2.179)" fill="#fff"/>
          <path id="Path_388" data-name="Path 388" d="M73.15,7.775h-.459a.09.09,0,0,1-.092-.092V7.592a.09.09,0,0,1,.092-.092h.459a.09.09,0,0,1,.092.092l-.092.183c.092-.092.092,0,0,0" transform="translate(-44.251 -2.179)" fill="#fff"/>
          <path id="Path_389" data-name="Path 389" d="M74.35,7.775h-.459a.09.09,0,0,1-.092-.092V7.592a.09.09,0,0,1,.092-.092h.459a.09.09,0,0,1,.092.092l-.092.183h0" transform="translate(-44.35 -2.179)" fill="#fff"/>
          <path id="Path_390" data-name="Path 390" d="M41.7,5.926H67.572l-.459-.734L43.26,5.1h-.642a.453.453,0,0,0-.275.092c-.092.092-.642.734-.642.734" transform="translate(-41.7 -1.981)" fill="#fff"/>
          <path id="Path_391" data-name="Path 391" d="M44.1,4.267h4.587l.275-.367h-4.5Z" transform="translate(-41.898 -1.882)" fill="#fff"/>
          <path id="Path_392" data-name="Path 392" d="M44.8,3.475h5.413l.275-.275H45.167c-.092,0-.183,0-.183.092-.092,0-.183.183-.183.183" transform="translate(-41.956 -1.824)" fill="#fff"/>
          <path id="Path_393" data-name="Path 393" d="M47.4,1.883h1.743l.092-.183h-1.56a.284.284,0,0,0-.183.092l-.092.092" transform="translate(-42.171 -1.7)" fill="#fff"/>
          <path id="Path_394" data-name="Path 394" d="M60.9,3.834h1.193a.284.284,0,0,0,.183-.092,5.62,5.62,0,0,0,.367-.55.09.09,0,0,0-.092-.092H61.359a1.136,1.136,0,0,0-.183.275c-.092.183-.183.275-.275.459" transform="translate(-43.285 -1.816)" fill="#fff"/>
        </g>
      </g>
    </g>
  </g>
</svg>
