<svg id="logo-11" xmlns="http://www.w3.org/2000/svg" width="107.052" height="35" viewBox="0 0 107.052 35">
  <g id="Group_198" data-name="Group 198" transform="translate(0 0)">
    <g id="Group_197" data-name="Group 197" transform="translate(0 0)">
      <path id="SVGID_1_" d="M7.247,13.791c-.736-1.2-1.6-2.652-2.666-4.386a5.326,5.326,0,0,1-.949-2.731A2.736,2.736,0,0,1,4.777,4.441a8.95,8.95,0,0,1,5.676-1.894,5.176,5.176,0,0,1,1.979.3,2.384,2.384,0,0,1,1.031.9,3.319,3.319,0,0,1,.409,1.615,3.632,3.632,0,0,1-.18,1.156.818.818,0,0,1-.131.279c-.033.08-.049.08-.065,0-.016-.1.065-.558.065-1A3.131,3.131,0,0,0,13.1,4.082a2.155,2.155,0,0,0-1.129-.877,5.908,5.908,0,0,0-1.963-.279A7.213,7.213,0,0,0,5.038,4.7a2.692,2.692,0,0,0-.981,2.034,5.409,5.409,0,0,0,.8,2.412C5.5,10.1,6.494,11.638,7.8,13.752c.376,0,.916,0,1.587-.02.131,0,.18.02.18.08,0,.08-.2.1-.589.12-.573.02-.884.04-1,.06A4.324,4.324,0,0,1,8.441,15.9,3.025,3.025,0,0,1,6.69,18.8a7.071,7.071,0,0,1-3.19.778,5.4,5.4,0,0,1-2.159-.4A1.909,1.909,0,0,1,0,17.34a2.237,2.237,0,0,1,1.439-1.934A16.044,16.044,0,0,1,7.247,13.791Zm-2.388.778a10.9,10.9,0,0,0-3.19,1.276C.753,16.4.278,17,.278,17.6a1.3,1.3,0,0,0,.425.877,1.719,1.719,0,0,0,.671.439,6.31,6.31,0,0,0,1.93.279,6.1,6.1,0,0,0,3.173-.9,2.753,2.753,0,0,0,1.456-2.412,3.2,3.2,0,0,0-.556-1.814A24.316,24.316,0,0,0,4.858,14.569Zm18.493.057a.5.5,0,0,1,.344.4.863.863,0,0,1-.18.4c-.344,1.063-.834,2.615-1.5,4.622a26.559,26.559,0,0,1,4.728-.455,7.575,7.575,0,0,1,1.243.084,1.445,1.445,0,0,1,1.063,1.248.88.88,0,0,1-.082.371A4.273,4.273,0,0,1,27.9,22.419c-.115.1-.18.135-.245.135-.016,0-.033,0-.033-.017,0-.068.049-.135.164-.219a2.51,2.51,0,0,0,.965-1.67c0-.4-.262-.624-.8-.675-.311-.017-.7-.034-1.21-.034a22.674,22.674,0,0,0-4.842.4C18.673,29.808,14.8,34.7,10.2,34.987a6.039,6.039,0,0,1-4.319-1.468A4.613,4.613,0,0,1,3.9,29.926a3.366,3.366,0,0,1,.262-1.265C5,26.637,7.615,24.747,12,22.959a50.441,50.441,0,0,1,9.39-2.8,22.82,22.82,0,0,0,.883-2.75c.115-.388.18-.708.262-.978A22.445,22.445,0,0,1,20.522,18a17.49,17.49,0,0,1-2.781,1.754.862.862,0,0,1-.311.051.529.529,0,0,1-.589-.607,1.108,1.108,0,0,1,.147-.523,7.232,7.232,0,0,1,2.683-2.868,6.487,6.487,0,0,1,3.582-1.215A.17.17,0,0,1,23.352,14.626ZM4.36,30.2a3.989,3.989,0,0,0,1.718,3.154,6,6,0,0,0,4.09,1.333q3.975-.152,7.525-6.107a37.942,37.942,0,0,0,3.631-8.165,47.284,47.284,0,0,0-10.338,3.357Q5.636,26.3,4.557,29.117A3.065,3.065,0,0,0,4.36,30.2ZM15.059,18.2c-.131.81.245.675.556.59.147-.051,1.521-1.029,1.652-1.113.344-.236.376.017.115.287a13.9,13.9,0,0,1-1.963,1.383c-.278.084-.818-.4-.818-.844a7.711,7.711,0,0,1,.769-2.648c.131-.337,0-.675-.392-.27-1.063,1.08-3.6,3.61-4.286,3.846-.589.2-1-.3-.965-.86.115-1.586,2.176-4.588,2.994-5.584.229-.27.851-.219.442.3a18.182,18.182,0,0,0-2.683,4.673c-.262.911.082,1.164.622.843,1.718-1.063,3.893-3.829,5.218-5.027.409-.388.622.422.474.641A14.367,14.367,0,0,0,15.059,18.2Zm7.655-2.767c0-.017-.016-.017-.016-.034a.1.1,0,0,1,.016-.067c0-.2-.033-.3-.115-.32a1.733,1.733,0,0,0-.752.084,6.117,6.117,0,0,0-2.372,1.215,4.555,4.555,0,0,0-1.587,2.058,1.524,1.524,0,0,0-.033.27c0,.354.115.54.393.54a6.786,6.786,0,0,0,2.012-1.231c.883-.658,1.538-1.2,2-1.586A1.325,1.325,0,0,0,22.714,15.435Zm1.94,3.914c-.278,0-.409-.186-.409-.59,0-.793.605-1.822,1.816-3.07A9.281,9.281,0,0,1,29.005,13.5a1.7,1.7,0,0,1,.671-.135,2.59,2.59,0,0,1,.785.152,1.092,1.092,0,0,0,.311.017.7.7,0,0,0,.425-.219.172.172,0,0,1,.1-.034c.082,0,.164.152.147.2-.622,1-1.26,1.991-1.848,2.986a20.282,20.282,0,0,0-2,5.6,2.218,2.218,0,0,0-.016.32c0,.759.491,1.13,1.276,1.13a3.511,3.511,0,0,0,1.161-.2,8.076,8.076,0,0,0,2.257-1.451A14.09,14.09,0,0,0,34.4,19.6c.1-.118.147-.169.2-.169a.063.063,0,0,1,.016.051.362.362,0,0,1-.066.186,12.056,12.056,0,0,1-2.176,2.5,8.241,8.241,0,0,1-2.241,1.484,2.876,2.876,0,0,1-.949.169,2.436,2.436,0,0,1-1.309-.439,1.416,1.416,0,0,1-.54-1.316,18.48,18.48,0,0,1,1.341-4.69,14.957,14.957,0,0,1,1.1-2.092c.082-.135.082-.186-.016-.186-.016,0-.033.017-.049.034a20.416,20.416,0,0,1-2.208,2.21,18.179,18.179,0,0,1-2.47,1.873A.685.685,0,0,1,24.654,19.349Zm.573-1.181c0,.287.1.4.295.4a.531.531,0,0,0,.245-.084,19.727,19.727,0,0,0,4.106-4.032.155.155,0,0,0,.049-.118c0-.253-.311-.506-.752-.506a1.444,1.444,0,0,0-.376.051,4.658,4.658,0,0,0-1.947,1.535,9.156,9.156,0,0,0-1.554,2.362A1.137,1.137,0,0,0,25.226,18.168Zm14.907-3.053c0,.034-.033.067-.082.084a1.812,1.812,0,0,1-.54.1,5.317,5.317,0,0,1-1.5,2.783,4.136,4.136,0,0,1-2.568,1.366c-.213.017-.589-.253-.752-.725a1.134,1.134,0,0,1-.033-.287,8.447,8.447,0,0,1,.409-2.648c.033-.084.016-.118-.033-.135-.066-.034-.114,0-.164.067A17.889,17.889,0,0,1,32.2,18.894a1.257,1.257,0,0,1-.883.422c-.131,0-.442-.3-.425-.455a8.191,8.191,0,0,1,1.292-2.53,12.3,12.3,0,0,0,1.21-2.058c.016-.084.082-.118.213-.118q.245,0,.245.2a.451.451,0,0,1-.049.186q-.073.177-1.129,1.872a10.3,10.3,0,0,0-1,1.94.618.618,0,0,0-.033.169c0,.169.049.236.18.236a.268.268,0,0,0,.18-.067,13.546,13.546,0,0,0,1.947-2.058,21.133,21.133,0,0,0,1.456-1.974,7.315,7.315,0,0,1,.474-.86.969.969,0,0,1,.523-.118c.1.017.131.034.115.1a7.452,7.452,0,0,0-.671,1.738,8.692,8.692,0,0,0-.393,2.379,3.641,3.641,0,0,0,.016.439c.049.557.295.793.7.692a3.391,3.391,0,0,0,1.767-1.383,4.493,4.493,0,0,0,.932-2.446c-.278-.067-.491-.371-.458-.489a.527.527,0,0,1,.458-.354c.18,0,.36.2.54.624a1.977,1.977,0,0,0,.638.067A.076.076,0,0,1,40.133,15.115Zm.323,4.234c-.278,0-.409-.186-.409-.59,0-.793.605-1.822,1.816-3.07A9.281,9.281,0,0,1,44.808,13.5a1.705,1.705,0,0,1,.671-.135,2.59,2.59,0,0,1,.785.152,1.091,1.091,0,0,0,.311.017A.7.7,0,0,0,47,13.31a.172.172,0,0,1,.1-.034c.082,0,.163.152.147.2-.622,1-1.26,1.991-1.849,2.986a20.279,20.279,0,0,0-2,5.6,2.219,2.219,0,0,0-.016.32c0,.759.491,1.13,1.276,1.13a3.509,3.509,0,0,0,1.161-.2,8.075,8.075,0,0,0,2.257-1.451,14.084,14.084,0,0,0,2.127-2.26c.1-.118.147-.169.2-.169a.063.063,0,0,1,.016.051.362.362,0,0,1-.065.186,12.064,12.064,0,0,1-2.176,2.5,8.242,8.242,0,0,1-2.241,1.484,2.876,2.876,0,0,1-.949.169,2.437,2.437,0,0,1-1.309-.439,1.416,1.416,0,0,1-.54-1.316,18.477,18.477,0,0,1,1.341-4.69,14.941,14.941,0,0,1,1.1-2.092c.082-.135.082-.186-.016-.186-.016,0-.033.017-.049.034a20.416,20.416,0,0,1-2.208,2.21,18.171,18.171,0,0,1-2.47,1.873A.687.687,0,0,1,40.457,19.349Zm.573-1.181c0,.287.1.4.294.4a.53.53,0,0,0,.245-.084,19.727,19.727,0,0,0,4.106-4.032.155.155,0,0,0,.049-.118c0-.253-.311-.506-.752-.506a1.444,1.444,0,0,0-.376.051,4.657,4.657,0,0,0-1.947,1.535,9.157,9.157,0,0,0-1.554,2.362A1.137,1.137,0,0,0,41.029,18.168Zm5.288,1.484a.21.21,0,0,1,.016-.169,28.621,28.621,0,0,0,2.159-3.9,1.188,1.188,0,0,0,.1-.422.788.788,0,0,0-.049-.186.147.147,0,0,1,0-.118,13.549,13.549,0,0,0,1.227-.708.065.065,0,0,1,.066-.034.129.129,0,0,1,.131.084.158.158,0,0,1-.016.186A19.189,19.189,0,0,0,48.51,16.6a.388.388,0,0,0-.049.169c0,.051.049.067.18.017a.458.458,0,0,0,.2-.135,12.152,12.152,0,0,1,1.652-1.636,7.507,7.507,0,0,1,1.636-1.13,1.529,1.529,0,0,1,.752.1c.016.017.016.017.016.034,0,.152-.344.523-.474.439a1,1,0,0,0-.883.152A12.227,12.227,0,0,0,47.217,19.2c0,.017-.033.067-.131.118a4.758,4.758,0,0,0-.671.337Q46.342,19.754,46.317,19.653Zm5.92-.3c-.278,0-.409-.186-.409-.59,0-.793.605-1.822,1.816-3.07A9.281,9.281,0,0,1,56.588,13.5a1.7,1.7,0,0,1,.671-.135,2.59,2.59,0,0,1,.785.152,1.091,1.091,0,0,0,.311.017.7.7,0,0,0,.425-.219.172.172,0,0,1,.1-.034c.082,0,.164.152.147.2-.622,1-1.26,1.991-1.848,2.986a20.285,20.285,0,0,0-2,5.6,2.221,2.221,0,0,0-.016.321c0,.759.491,1.13,1.276,1.13a3.509,3.509,0,0,0,1.161-.2,8.076,8.076,0,0,0,2.257-1.451,14.091,14.091,0,0,0,2.127-2.26c.1-.118.147-.169.2-.169a.063.063,0,0,1,.016.051.362.362,0,0,1-.066.186,12.057,12.057,0,0,1-2.176,2.5,8.239,8.239,0,0,1-2.241,1.484,2.876,2.876,0,0,1-.949.169,2.436,2.436,0,0,1-1.308-.439,1.416,1.416,0,0,1-.54-1.316,18.48,18.48,0,0,1,1.341-4.69,14.957,14.957,0,0,1,1.1-2.092c.082-.135.082-.186-.016-.186-.016,0-.033.017-.049.034a20.417,20.417,0,0,1-2.208,2.21,18.178,18.178,0,0,1-2.47,1.872A.685.685,0,0,1,52.237,19.349Zm.573-1.181c0,.287.1.4.294.4a.53.53,0,0,0,.245-.084,19.729,19.729,0,0,0,4.106-4.032.156.156,0,0,0,.049-.118c0-.253-.311-.506-.752-.506a1.444,1.444,0,0,0-.376.051,4.657,4.657,0,0,0-1.947,1.535,9.153,9.153,0,0,0-1.554,2.362A1.136,1.136,0,0,0,52.81,18.168Zm9.964-1.957a1.621,1.621,0,0,1,.573-.337,2.6,2.6,0,0,1,.36-.034,6.4,6.4,0,0,1,2.388.658c.131.051.851.4,2.176,1.046.654-1.8,1.21-3.188,1.636-4.184A18.259,18.259,0,0,1,72.7,8.4a4.1,4.1,0,0,1,1.031-.776,3.392,3.392,0,0,1,1.521-.506c1.292-.034,2.421,1.029,3.01,2.9a.929.929,0,0,1,.049.169c0,.1-.049.152-.1.152s-.115-.051-.164-.186a5.059,5.059,0,0,0-1.227-1.873,2.7,2.7,0,0,0-1.6-.877A2.75,2.75,0,0,0,73.03,8.654a21.269,21.269,0,0,0-2.846,5.027c-.295.675-.834,2.007-1.619,4.032.867.472,1.734.979,2.6,1.467a40.891,40.891,0,0,0,4.368,2.109,13.614,13.614,0,0,0,4.646,1.147,3.81,3.81,0,0,0,2.5-.776,4.087,4.087,0,0,0,1.194-2.632c.033-.186.066-.287.114-.287s.1.1.1.3a4.668,4.668,0,0,1-.36,1.67,2.949,2.949,0,0,1-.834,1.248,4.117,4.117,0,0,1-1.014.4,6.558,6.558,0,0,1-1.668.253c-2.5.067-6.462-1.383-11.876-4.3a2.93,2.93,0,0,1-.851,1.3,1.928,1.928,0,0,1-1.194.574,3.7,3.7,0,0,1-2.552-1.265A3.821,3.821,0,0,1,62.4,16.8C62.381,16.633,62.512,16.431,62.774,16.211Zm5.251,1.974a17.353,17.353,0,0,0-4.5-1.721c-.409-.051-.621.051-.621.371a1.088,1.088,0,0,0,.082.371,4.979,4.979,0,0,0,1.5,1.957,3.163,3.163,0,0,0,1.816.81C67.109,19.99,67.681,19.4,68.025,18.185Zm6.8,9.616a3.5,3.5,0,0,1-.671-2.446,19.333,19.333,0,0,1,1.881-6.815A37.485,37.485,0,0,1,79.373,12.2a.711.711,0,0,0,.2-.506.5.5,0,0,0-.295-.472c-.409-.169-.54-.354-.458-.523.066-.135.671-.2,1.7-.2.082,0-.049-.084,0-.152a48.4,48.4,0,0,1,3.975-5.128,3.111,3.111,0,0,1,.916-.439,3.005,3.005,0,0,1,.932-.287c.131,0,.18.067.18.152,0,.067-.049.084-.163.118-1.031.219-2.715,1.991-5.087,5.348-.163.236-.131.388.114.388h2.372c1.276,0,1.979.017,2.159.017.114,0,.163.017.2.051,0,.034-.131.321-.327.337-1.243.051-2.846.169-4.875.27a.6.6,0,0,0-.409.27,45.152,45.152,0,0,0-3.141,5.432,24.486,24.486,0,0,0-2.568,7.912c-.016.287-.016.54-.016.81q0,2.935,2.012,2.935a3.808,3.808,0,0,0,1.276-.219,9.956,9.956,0,0,0,4.106-2.952,8.374,8.374,0,0,0,2.372-4.1c0-1.046-.376-1.518-1.1-1.4-.327.051-.573.27-.687.27a.121.121,0,0,1-.131-.152c.1-.186.245-.287.818-.523a.775.775,0,0,1,.2-.017c.36,0,.671.219,1,.725a2.148,2.148,0,0,1,.458,1.147c-.2,1.485-1.26,3.1-3.124,4.842-1.881,1.754-3.533,2.665-4.989,2.665A2.819,2.819,0,0,1,74.826,27.8ZM88.96,11.606a2.294,2.294,0,0,1-.491-.084.838.838,0,0,1-.589-.793.383.383,0,0,1,.115-.287,4.369,4.369,0,0,1,2.4-1.248h.033c.621-.962,1.178-1.771,1.668-2.412C94.587,3.492,97.106,1.4,99.674.472A7.63,7.63,0,0,1,102.21,0a5.222,5.222,0,0,1,3.5,1.215,3.643,3.643,0,0,1,1.341,2.817,3.885,3.885,0,0,1-.834,2.362,7.169,7.169,0,0,1-2.7,2.092,29.515,29.515,0,0,1-12.874,3.171c-.409,0-.785,0-1.145-.017-.474.86-.965,1.738-1.439,2.7A11.465,11.465,0,0,0,86.539,19.2c0,.051.033.1.1.186.082.017.164.034.278.051.049.017.065.051.033.135a.23.23,0,0,1-.131.118.273.273,0,0,1-.36-.1,1.5,1.5,0,0,1-.2-.776,12.637,12.637,0,0,1,.949-3.56c.066-.2.049-.287-.082-.287a.118.118,0,0,0-.1.067,21.167,21.167,0,0,1-2.257,2.412,10.566,10.566,0,0,1-2.683,1.974.471.471,0,0,1-.163.034c-.409,0-.605-.186-.605-.574,0-.759.638-1.754,1.93-3.02a9.986,9.986,0,0,1,2.961-2.193,1.7,1.7,0,0,1,.671-.135,3.665,3.665,0,0,1,.9.169C88.191,12.956,88.583,12.247,88.96,11.606Zm-6.674,6.731c0,.236.1.371.278.371a.53.53,0,0,0,.262-.084,19.921,19.921,0,0,0,4.139-3.779.737.737,0,0,0,.2-.439c0-.253-.2-.388-.589-.388a1.939,1.939,0,0,0-.425.051,5.155,5.155,0,0,0-2.094,1.518,7.9,7.9,0,0,0-1.685,2.379A1.009,1.009,0,0,0,82.285,18.337Zm6.838-6.984c.442-.708.834-1.383,1.21-1.991a4.011,4.011,0,0,0-2.078,1.265.441.441,0,0,0-.115.3c0,.186.115.3.36.337A5.635,5.635,0,0,0,89.123,11.353Zm.523.051c.295.017.605.017.965.017a24.191,24.191,0,0,0,12.678-3.509c2.274-1.35,3.4-2.783,3.4-4.285A2.914,2.914,0,0,0,105.318,1.2,5.36,5.36,0,0,0,102.111.186a5.881,5.881,0,0,0-2.339.489C96.239,2.227,92.869,5.786,89.647,11.4Z" transform="translate(0 0)" fill="#fff"/>
    </g>
  </g>
</svg>
