<svg xmlns="http://www.w3.org/2000/svg" width="62.622" height="30" viewBox="0 0 62.622 30">
  <g id="logo-8" transform="translate(0.036)">
    <path id="Path_187" data-name="Path 187" d="M77.8,75v1.475L79.307,75h.5l-1.259,1.187,1.3,1.763h-.5L78.3,76.475l-.5.468v1.007h-.4V75Z" transform="translate(-49.573 -48.013)" fill="#fff"/>
    <path id="Path_188" data-name="Path 188" d="M89.211,77.951h-.4V76.763L87.7,75h.468l.864,1.4.864-1.4h.468l-1.151,1.763Z" transform="translate(-56.167 -48.013)" fill="#fff"/>
    <path id="Path_189" data-name="Path 189" d="M98.208,75.724a2.2,2.2,0,0,1,.252-.5,1.358,1.358,0,0,1,.432-.36,1.454,1.454,0,0,1,1.223,0,1.058,1.058,0,0,1,.432.36,1.329,1.329,0,0,1,.252.5,2.086,2.086,0,0,1,0,1.151,2.2,2.2,0,0,1-.252.5,1.241,1.241,0,0,1-.432.324,1.454,1.454,0,0,1-1.223,0,.982.982,0,0,1-.432-.324,1.329,1.329,0,0,1-.252-.5,1.588,1.588,0,0,1,0-1.151m.36,1.043a1.33,1.33,0,0,0,.18.4.849.849,0,0,0,.324.288,1.067,1.067,0,0,0,.936,0,1.241,1.241,0,0,0,.324-.288,1.33,1.33,0,0,0,.18-.4,1.754,1.754,0,0,0,0-.864,1.33,1.33,0,0,0-.18-.4.849.849,0,0,0-.324-.288,1.067,1.067,0,0,0-.936,0,.849.849,0,0,0-.324.288,1.33,1.33,0,0,0-.18.4,1.191,1.191,0,0,0,0,.864" transform="translate(-62.825 -47.837)" fill="#fff"/>
    <path id="Path_190" data-name="Path 190" d="M109,75.36V75h2.375v.36H110.4v2.591h-.4V75.36Z" transform="translate(-69.803 -48.013)" fill="#fff"/>
    <path id="Path_191" data-name="Path 191" d="M118.708,75.724a2.2,2.2,0,0,1,.252-.5,1.358,1.358,0,0,1,.432-.36,1.454,1.454,0,0,1,1.223,0,1.058,1.058,0,0,1,.432.36,1.329,1.329,0,0,1,.252.5,2.086,2.086,0,0,1,0,1.151,2.2,2.2,0,0,1-.252.5,1.241,1.241,0,0,1-.432.324,1.454,1.454,0,0,1-1.223,0,.982.982,0,0,1-.432-.324,1.329,1.329,0,0,1-.252-.5,1.588,1.588,0,0,1,0-1.151m.36,1.043a1.33,1.33,0,0,0,.18.4.849.849,0,0,0,.324.288,1.067,1.067,0,0,0,.936,0,1.241,1.241,0,0,0,.324-.288,1.33,1.33,0,0,0,.18-.4,1.754,1.754,0,0,0,0-.864,1.33,1.33,0,0,0-.18-.4.849.849,0,0,0-.324-.288,1.067,1.067,0,0,0-.936,0,1.241,1.241,0,0,0-.324.288,1.33,1.33,0,0,0-.18.4,1.191,1.191,0,0,0,0,.864" transform="translate(-75.949 -47.837)" fill="#fff"/>
    <path id="Path_192" data-name="Path 192" d="M27.611.288,30.309,0,22,14.573c4.246-1.151,8.852-5.181,12.522-11.622l.252.252C30.957,9.931,26.315,13.889,21.71,15.04c-4.03,8.42-9.391,12.846-15.4,13.133-3.922.144-6.225-1.727-6.333-4.426A4.028,4.028,0,0,1,3.683,19.43h.18a5.357,5.357,0,0,1,1.511.108l-.072.4a2.658,2.658,0,0,0-.756,0c-1.511.072-2.627,1.583-2.555,3.67a4.029,4.029,0,0,0,4.5,4.066c4.282-.18,7.268-3.13,10.687-8.672,1.8-2.879,3.166-5.721,4.714-8.024l-.108-.072c-2.411,3.022-4.714,4.57-6.729,4.678-1.259.072-2.375-1.151-2.447-2.915-.108-2.375,1.151-5.541,3.67-8.276,2.375-2.7,5.037-4.1,6.873-4.21C24.8.108,25.812,1.187,25.956,3.238Zm-9.031,3.67c-2.555,3.274-3.706,6.621-3.6,8.492.072,1.475.576,2.195,1.583,2.123,1.187-.072,2.771-1.259,4.642-3.526,2.411-2.915,3.526-6.261,3.418-8.2-.072-1.655-.612-2.3-1.763-2.267C22,.648,20.378,1.727,18.579,3.958" transform="translate(0)" fill="#fff"/>
    <path id="Path_193" data-name="Path 193" d="M90.027,22.774c-.036-2.015.036-2.555-1.619-2.555H88.3v-.4l3.49-.324c-.036,1.3-.036,2.159-.036,2.483l.072,3.742c.036,1.979.684,2.879,2.3,2.879A3.511,3.511,0,0,0,96.612,27.6l.036-4.822v-.216c0-1.8-.288-2.3-2.159-2.3h-.108v-.4c1.511-.144,2.879-.252,4.138-.36-.072,1.511-.072,2.483-.072,2.807l-.072,4.462v.468c0,1.115.108,1.439.792,1.439a4.866,4.866,0,0,0,1.043-.144l.108.4c-1.367.324-2.627.612-3.742.9V28.136a7.189,7.189,0,0,1-4.138,1.619c-1.655,0-2.411-1.115-2.447-3.382Z" transform="translate(-56.551 -12.484)" fill="#fff"/>
    <path id="Path_194" data-name="Path 194" d="M138.412,3.5a1.06,1.06,0,0,1,1.115,1.043v.072a1.06,1.06,0,0,1-1.043,1.115h-.072a1.047,1.047,0,0,1-1.115-.972V4.612A1.06,1.06,0,0,1,138.34,3.5h.072" transform="translate(-87.917 -2.237)" fill="#fff"/>
    <path id="Path_195" data-name="Path 195" d="M159.336,19c1.8-.108,1.8-.612,1.8-2.483v-3.67a2.06,2.06,0,0,0-.972-2.051l-.468-.36v-.18l2.915-1.079.252.072c-.036.9-.036,1.583-.036,2.015v5.613c0,1.547.072,1.943,1.763,2.087v.36c-.792-.036-1.655-.036-2.555-.036s-1.8,0-2.735.036l.036-.324ZM161.891,3.5a1.06,1.06,0,0,1,1.115,1.043v.072a1.06,1.06,0,0,1-1.043,1.115h-.072a1.047,1.047,0,0,1-1.115-.972V4.612A1.06,1.06,0,0,1,161.819,3.5h.072" transform="translate(-102.004 -2.237)" fill="#fff"/>
    <path id="Path_196" data-name="Path 196" d="M130.1,34.96c2.447-.792,2.915-2.627,2.915-6.441V22.654c0-1.043-.252-1.3-1.079-1.655l-.648-.252V20.5l3.31-1.3.216.144c-.072,1.475-.072,2.3-.072,2.519v6.909c0,2.159-.216,3.562-1.007,4.534a7.457,7.457,0,0,1-3.526,1.979Z" transform="translate(-83.311 -12.291)" fill="#fff"/>
  </g>
</svg>
