<svg id="logo-5" xmlns="http://www.w3.org/2000/svg" width="80.959" height="30" viewBox="0 0 80.959 30">
  <g id="Group_188" data-name="Group 188" transform="translate(27.575 25.329)">
    <path id="Path_159" data-name="Path 159" d="M92.1,85.1h.6l1.347,3.623h0L95.453,85.1h.569l-1.737,4.4h-.509Z" transform="translate(-92.1 -84.95)" fill="#fff"/>
    <path id="Path_160" data-name="Path 160" d="M106.8,85.1h2.784v.479h-2.245v1.377h2.1v.509h-2.1v1.557H109.7V89.5H106.83V85.1Z" transform="translate(-102.399 -84.95)" fill="#fff"/>
    <path id="Path_161" data-name="Path 161" d="M119.1,85.1h1.138a4.422,4.422,0,0,1,.629.03,3.158,3.158,0,0,1,.569.15,1.219,1.219,0,0,1,.419.359,1.339,1.339,0,0,1,.15.659.974.974,0,0,1-.3.778,1.469,1.469,0,0,1-.808.389l1.257,2.036h-.629l-1.2-1.976h-.659V89.5h-.509V85.1Zm.539,1.946h.928a.956.956,0,0,0,.419-.09,1.236,1.236,0,0,0,.329-.21.585.585,0,0,0,.12-.419.749.749,0,0,0-.09-.389.533.533,0,0,0-.24-.21.6.6,0,0,0-.329-.09,1.582,1.582,0,0,0-.389-.03h-.749Z" transform="translate(-111.016 -84.95)" fill="#fff"/>
    <path id="Path_162" data-name="Path 162" d="M133.305,89.271a2.294,2.294,0,0,1-1.647-.659,2.144,2.144,0,0,1-.479-.749,2.333,2.333,0,0,1-.18-.928,2.44,2.44,0,0,1,.659-1.677,2.361,2.361,0,0,1,3.293,0,2.144,2.144,0,0,1,.479.749,2.487,2.487,0,0,1,0,1.856,2.144,2.144,0,0,1-.479.749,2.323,2.323,0,0,1-.719.479A2.44,2.44,0,0,1,133.305,89.271Zm0-.479a1.927,1.927,0,0,0,.719-.15,1.777,1.777,0,0,0,.539-.389,2.278,2.278,0,0,0,.359-.569,1.812,1.812,0,0,0,.12-.719,2.013,2.013,0,0,0-.12-.719,1.842,1.842,0,0,0-.359-.569,1.386,1.386,0,0,0-.539-.389,1.809,1.809,0,0,0-.719-.15,1.927,1.927,0,0,0-.719.15,1.777,1.777,0,0,0-.539.389,2.278,2.278,0,0,0-.359.569,1.812,1.812,0,0,0-.12.719,2.013,2.013,0,0,0,.12.719,1.842,1.842,0,0,0,.359.569,1.386,1.386,0,0,0,.539.389A1.809,1.809,0,0,0,133.305,88.792Z" transform="translate(-119.353 -84.6)" fill="#fff"/>
    <path id="Path_163" data-name="Path 163" d="M149.2,85.1h.659l2.545,3.653h0V85.1h.509v4.4h-.659l-2.515-3.653h0V89.5h-.509V85.1Z" transform="translate(-132.104 -84.95)" fill="#fff"/>
    <path id="Path_164" data-name="Path 164" d="M165.646,85.1h.479l1.886,4.4h-.6l-.449-1.078h-2.216L164.3,89.5h-.6Zm.21.689h0l-.928,2.156h1.8Z" transform="translate(-142.263 -84.95)" fill="#fff"/>
  </g>
  <path id="Path_165" data-name="Path 165" d="M78.593,11.317c2.4-2.126,3.5-8.323.749-11.317h-4.7V.269c3.563,1.647,3.5,7.844,0,10.03l2.425,10h3.892ZM25.778,7.156c4.072,2.156,4.341,10.21,0,12.695-4.611-2.695-4.072-10.659,0-12.695M22.455,20.3h6.707c3.174-3.653,3.144-10.09-.06-13.5H22.455c-3.174,2.156-3.593,10.749,0,13.5M38.413,7.156c4.072,2.156,4.341,10.21,0,12.695-4.611-2.695-4.072-10.659,0-12.695M35.09,20.3H41.8c3.174-3.653,3.144-10.09-.06-13.5H35.09c-3.144,2.156-3.563,10.749,0,13.5M8.2,20.3h3.144c.18-5.21.569-9.85,1.647-12.784L15.21,20.3h4.012L15.3,0H12.186L9.7,7.6,7.156,0H3.862L0,20.3H4.222L6.407,7.515A59.1,59.1,0,0,1,8.2,20.3M74.581,0h-3.8V20.3h3.8ZM66.737,16.886a5.416,5.416,0,0,1-3.293,3.084h-.06V.359h.06a5.49,5.49,0,0,1,3.293,3.084L68.293,0H59.581V20.3h8.743ZM50.359,10.3l2.425,10h3.892l-2.365-8.982c2.4-2.126,3.5-8.323.749-11.317h-4.7V.269c3.533,1.647,3.473,7.844,0,10.03m16.856,1.826V7.934l-3.8,2.126ZM50.3,0H46.5V20.3h3.8Z" fill="#fff"/>
</svg>
