<svg xmlns="http://www.w3.org/2000/svg" width="60" height="25" viewBox="0 0 60 25">
  <g id="instagram" transform="translate(28.936)">
    <rect id="Rectangle_107" data-name="Rectangle 107" width="60" height="25" transform="translate(-28.936)" fill="none"/>
    <g id="Group_210" data-name="Group 210" transform="translate(-10.936)" opacity="0.8">
      <path id="Shape" d="M12.5,25c-3.34,0-3.789-.014-5.154-.074a9.227,9.227,0,0,1-3.034-.582A6.107,6.107,0,0,1,2.1,22.9,6.1,6.1,0,0,1,.656,20.687a9.14,9.14,0,0,1-.582-3.031C.014,16.289,0,15.84,0,12.5S.014,8.716.074,7.346A9.2,9.2,0,0,1,.656,4.313,6.119,6.119,0,0,1,2.1,2.1,6.085,6.085,0,0,1,4.318.656,9.2,9.2,0,0,1,7.353.074C8.718.014,9.167,0,12.507,0c3.368,0,3.814.015,5.159.079A9.211,9.211,0,0,1,20.7.659,6.121,6.121,0,0,1,22.914,2.1a5.847,5.847,0,0,1,1.43,2.222,9.146,9.146,0,0,1,.582,3.033c.06,1.364.074,1.813.074,5.152s-.014,3.789-.074,5.152a9.2,9.2,0,0,1-.582,3.033,6.372,6.372,0,0,1-3.654,3.653,9.15,9.15,0,0,1-3.033.582C16.293,24.986,15.843,25,12.5,25Zm.005-22.748c-3.322,0-3.72.013-5.053.074a6.862,6.862,0,0,0-2.32.43A3.919,3.919,0,0,0,3.7,3.692a3.868,3.868,0,0,0-.933,1.436,6.883,6.883,0,0,0-.43,2.321C2.273,8.782,2.26,9.18,2.26,12.5s.013,3.713.074,5.051a6.857,6.857,0,0,0,.43,2.319A3.929,3.929,0,0,0,3.7,21.3a3.867,3.867,0,0,0,1.437.933,6.889,6.889,0,0,0,2.32.43c1.278.057,1.663.074,5.051.074s3.771-.017,5.053-.074a6.9,6.9,0,0,0,2.32-.43A3.956,3.956,0,0,0,21.32,21.3a3.864,3.864,0,0,0,.933-1.436,6.884,6.884,0,0,0,.43-2.319c.057-1.277.074-1.662.074-5.049s-.017-3.769-.074-5.051a6.886,6.886,0,0,0-.43-2.319,3.919,3.919,0,0,0-.938-1.436,3.842,3.842,0,0,0-1.437-.933,6.858,6.858,0,0,0-2.32-.43C16.227,2.265,15.829,2.252,12.507,2.252Z" fill="#fff"/>
      <path id="Shape-2" data-name="Shape" d="M6.425,12.844a6.422,6.422,0,1,1,6.425-6.422A6.431,6.431,0,0,1,6.425,12.844Zm0-10.588a4.166,4.166,0,1,0,4.168,4.166A4.172,4.172,0,0,0,6.425,2.256Z" transform="translate(6.082 6.081)" fill="#fff"/>
      <path id="Shape-3" data-name="Shape" d="M3,1.5A1.5,1.5,0,1,1,1.5,0,1.5,1.5,0,0,1,3,1.5Z" transform="translate(17.685 4.327)" fill="#fff"/>
    </g>
  </g>
</svg>
