<svg xmlns="http://www.w3.org/2000/svg" width="199.971" height="20.344" viewBox="0 0 199.971 20.344">
  <g id="Group_172" data-name="Group 172" transform="translate(-178 -3182)">
    <g id="Group_171" data-name="Group 171" transform="translate(178 3182)">
      <path id="Path_119" data-name="Path 119" d="M13.439,17.944a.834.834,0,0,1,.242.593v3.022a.835.835,0,0,1-.835.835H.835a.893.893,0,0,1-.568-.225h0A.768.768,0,0,1,0,21.558V2.885a.834.834,0,0,1,.242-.593.783.783,0,0,1,.593-.234H3.848a.835.835,0,0,1,.835.835V17.71h8.18a.786.786,0,0,1,.584.234M20.693,2.293a.834.834,0,0,1,.234.593V21.558a.786.786,0,0,1-.234.584.834.834,0,0,1-.593.242H17.079a.835.835,0,0,1-.835-.835V2.885a.834.834,0,0,1,.242-.593.786.786,0,0,1,.584-.234h3.022a.834.834,0,0,1,.593.234m20.677,0a.834.834,0,0,1,.242.593V21.558a.827.827,0,0,1-.835.826H37.755a.36.36,0,0,1-.184,0h-.125l-.359-.342L28.531,10.456v11.1a.768.768,0,0,1-.25.584.835.835,0,0,1-.609.242H24.683a.834.834,0,0,1-.6-.242.753.753,0,0,1-.259-.584V2.885a.767.767,0,0,1,.259-.593.834.834,0,0,1,.6-.234H28a.084.084,0,0,0,.067,0h0a.079.079,0,0,1,.058,0h.067l.058.067,8.681,11.862V2.885a.834.834,0,0,1,.242-.593.786.786,0,0,1,.584-.234h3.022a.834.834,0,0,1,.593.234M49.25,6.7V9.88h8.18a.835.835,0,0,1,.835.835V13.7a.835.835,0,0,1-.242.6.768.768,0,0,1-.584.25H49.25V17.7h8.18a.786.786,0,0,1,.584.234.834.834,0,0,1,.242.593V21.55a.835.835,0,0,1-.835.835H45.36a.893.893,0,0,1-.568-.225h0a.893.893,0,0,1-.225-.568V2.885a.778.778,0,0,1,.225-.576h0a.779.779,0,0,1,.568-.217H57.388a.786.786,0,0,1,.584.234.834.834,0,0,1,.242.593V5.874a.834.834,0,0,1-.242.593.786.786,0,0,1-.584.234Z" transform="translate(0.001 -2.053)" fill="#fff"/>
    </g>
    <path id="Path_120" data-name="Path 120" d="M-34.734-6.08c.069,3.09.069,3.09.161,4.888a11.5,11.5,0,0,0-1.914-.115,3.777,3.777,0,0,0-4.081,3.62c0,2.075,1.706,3.458,4.311,3.458,2.559,0,4.242-1.337,4.242-3.366V2.22a12.143,12.143,0,0,1,2.052,1.568c.53.507.53.507.692.507s.3-.115.576-.507a5.048,5.048,0,0,0,.9-1.706c0-.161-.138-.323-.784-.784A17.779,17.779,0,0,0-32.037-.57c-.161-1.5-.3-4.127-.3-5.718a15.934,15.934,0,0,0,3.343-.6c.231-.092.254-.184.254-.761a12.232,12.232,0,0,0-.115-1.568c-.046-.161-.115-.231-.254-.231a.5.5,0,0,0-.231.046c-1.383.323-2.121.484-2.974.6a9.191,9.191,0,0,1,.392-3.043.951.951,0,0,0,.092-.346c0-.231-.138-.346-.484-.438a12.192,12.192,0,0,0-2.721-.3,18,18,0,0,1,.277,4.381c-1.2.092-1.983.115-3.228.115-.761,0-1.13-.023-1.752-.069-.023.415-.023.6-.023.784a7.228,7.228,0,0,0,.138,1.476c.069.254.3.3,1.406.3C-37.293-5.942-35.726-6.011-34.734-6.08Zm.161,7.263s.023.254.023.576c0,1.061-.646,1.614-1.868,1.614-1.107,0-1.821-.461-1.821-1.2,0-.807.761-1.337,1.914-1.337A4.653,4.653,0,0,1-34.573,1.182Zm-8.3-2.605c-.507,1.107-.761,1.752-1.314,3.182-.069-1.107-.092-1.983-.092-2.536,0-3.689.876-8.669,1.821-10.283A.792.792,0,0,0-42.3-11.5c0-.208-.138-.369-.484-.553a7.743,7.743,0,0,0-2.467-.669,16.852,16.852,0,0,1-.254,1.8,51.054,51.054,0,0,0-1.13,9.684A23.019,23.019,0,0,0-46.4,2.151a17.6,17.6,0,0,0,.761,3.32c.069.138.184.184.415.184a6.788,6.788,0,0,0,1.545-.138.444.444,0,0,0,.415-.484,16.409,16.409,0,0,1,.876-3.458C-42,.514-42,.514-42,.375a.384.384,0,0,0-.092-.254A3.78,3.78,0,0,1-42.873-1.423ZM-9.649-8.178a5.787,5.787,0,0,0-1.245-1.637c-.576-.646-.876-.876-1.061-.876-.115,0-.254.069-.6.323-.392.277-.576.461-.576.6,0,.069.023.115.138.208a11.017,11.017,0,0,1,1.775,2.306.323.323,0,0,0,.254.184C-10.664-7.072-9.649-7.925-9.649-8.178Zm.069-4.012c-.277,0-1.2.646-1.2.853,0,.046.023.092.115.184a10.954,10.954,0,0,1,1.775,2.19c.092.161.184.231.277.231A2.536,2.536,0,0,0-7.367-9.769a5.83,5.83,0,0,0-1.268-1.683C-9.142-11.96-9.419-12.19-9.58-12.19Zm-11.8-1.107a21.87,21.87,0,0,1,.161,3.528c0,.208-.023.692-.046,1.5-.184,5.372-.208,6.755-.208,8.554,0,2.283.346,3.481,1.222,4.4a5.287,5.287,0,0,0,3.873,1.268,11.087,11.087,0,0,0,7.47-3.113C-7.759,1.8-7.321,1.252-7.321.837a1.368,1.368,0,0,0-.115-.53,7.869,7.869,0,0,1-.83-2.259A13.743,13.743,0,0,1-10.456.721a8.446,8.446,0,0,1-5.833,2.536c-1.291,0-2.1-.392-2.352-1.153a5.867,5.867,0,0,1-.184-1.66c0-2.283.092-5.165.277-8.877a13.025,13.025,0,0,1,.53-3.458,1.419,1.419,0,0,0,.138-.553c0-.254-.161-.369-.738-.53A13.193,13.193,0,0,0-21.385-13.3ZM3.285-7.648a11.054,11.054,0,0,1-.576-2.421c-.023-.553-.023-.553-.092-.669-.069-.161-.208-.231-.438-.231a14.251,14.251,0,0,0-2.467.346C-.012-9.954.2-9.308.38-8.709c.507,1.591.553,1.8.876,2.628a8.258,8.258,0,0,0-2.7,5.995C-1.441,2.381-.173,4,1.74,4c1.383,0,2.767-.83,4.173-2.513.669.669.968.876,1.153.876A3.516,3.516,0,0,0,8.726.7c0-.161-.092-.3-.346-.53-.369-.346-.576-.553-.922-.9a29.759,29.759,0,0,0,2.605-6.064,4.609,4.609,0,0,1,3.712,4.657,4.75,4.75,0,0,1-1.844,3.85c-1.153.945-2.259,1.36-4.588,1.752A6.066,6.066,0,0,1,8.934,5.148c.161.231.277.323.461.323a10.064,10.064,0,0,0,2.144-.576A7.254,7.254,0,0,0,16.4-2.068a6.411,6.411,0,0,0-1.891-4.75,7.2,7.2,0,0,0-3.92-2.006,10.405,10.405,0,0,1,.669-2.1c.254-.461.277-.484.277-.669,0-.507-1.107-.945-3.043-1.222a2.666,2.666,0,0,1,.023.392,19.7,19.7,0,0,1-.461,3.458A9.556,9.556,0,0,0,3.285-7.648ZM5.868-2.622A17.012,17.012,0,0,1,4.092-5.55,7.757,7.757,0,0,1,7.528-6.887,19.434,19.434,0,0,1,5.868-2.622ZM4.369-.293C3.424.86,2.755,1.344,2.04,1.344,1.372,1.344.934.675.934-.385A5.836,5.836,0,0,1,2.248-3.8,19.92,19.92,0,0,0,4.369-.293ZM28.794-5.412h-.461a22.192,22.192,0,0,1-4.957-.553,12.914,12.914,0,0,0-.346,2.029c0,.184.092.3.323.369a18.753,18.753,0,0,0,4.611.576c.277,0,.576,0,1.107-.023.023.484.069,1.014.184,2.513a12.968,12.968,0,0,0-1.614-.115A5.748,5.748,0,0,0,23.652.652a3.171,3.171,0,0,0-.991,2.306c0,2.006,1.752,3.251,4.588,3.251a5.329,5.329,0,0,0,3.735-1.176,3.113,3.113,0,0,0,.968-2.306A13.588,13.588,0,0,1,35.78,5.448a.282.282,0,0,0,.208.092c.161,0,.415-.3.922-1.061a3.978,3.978,0,0,0,.646-1.245A.5.5,0,0,0,37.3,2.8a13.4,13.4,0,0,0-2.7-1.729,12.763,12.763,0,0,0-2.813-1.13c-.138-1.8-.184-2.283-.231-3.159A26.659,26.659,0,0,0,36.587-4.4c.161-.069.254-.161.254-.277A6.126,6.126,0,0,0,36.4-6.126c-.231-.553-.277-.623-.415-.623a.611.611,0,0,0-.231.069,16.745,16.745,0,0,1-4.311,1.107c-.023-.807-.023-.876-.023-2.513a27.964,27.964,0,0,0,4.2-.761c.231-.069.3-.161.3-.323a6.689,6.689,0,0,0-.323-1.268c-.254-.738-.254-.761-.415-.761a.309.309,0,0,0-.115.023,20.38,20.38,0,0,1-3.574.715,5.347,5.347,0,0,1,.277-2.075c.161-.369.184-.415.184-.53,0-.254-.138-.369-.6-.461a15.051,15.051,0,0,0-2.49-.277c.046.807.069,1.176.069,1.983V-10.3c-.254.023-.461.023-.576.023a23.469,23.469,0,0,1-4.265-.415,11.725,11.725,0,0,0-.231,2.029c0,.231.046.277.277.346a22.758,22.758,0,0,0,4.288.369,4.69,4.69,0,0,0,.507-.023c.023,1.429.023,1.429.069,2.559Zm.484,7.24V2.22c0,1.153-.692,1.683-2.19,1.683-1.291,0-1.96-.369-1.96-1.061,0-.784.807-1.222,2.283-1.222A6.418,6.418,0,0,1,29.278,1.828ZM45.034-13.3A21.87,21.87,0,0,1,45.2-9.769c0,.208-.023.692-.046,1.5-.184,5.372-.208,6.755-.208,8.554,0,2.283.346,3.481,1.222,4.4a5.287,5.287,0,0,0,3.873,1.268,11.087,11.087,0,0,0,7.47-3.113C58.66,1.8,59.1,1.252,59.1.837a1.368,1.368,0,0,0-.115-.53,7.869,7.869,0,0,1-.83-2.259A13.743,13.743,0,0,1,55.962.721a8.446,8.446,0,0,1-5.833,2.536c-1.291,0-2.1-.392-2.352-1.153a5.867,5.867,0,0,1-.184-1.66c0-2.283.092-5.165.277-8.877a13.025,13.025,0,0,1,.53-3.458,1.419,1.419,0,0,0,.138-.553c0-.254-.161-.369-.738-.53A13.193,13.193,0,0,0,45.034-13.3ZM68.113-6.91a43.533,43.533,0,0,1-3.9,10.652,1.449,1.449,0,0,0-.184.484c0,.115.115.231.507.438a5.871,5.871,0,0,0,1.891.761c.138,0,.254-.115.369-.415A66.034,66.034,0,0,0,70.741-7.279a26.161,26.161,0,0,0,3.574-.692c.208-.046.277-.138.277-.3a10.583,10.583,0,0,0-.184-1.291c-.184-.807-.231-.9-.438-.9a.31.31,0,0,0-.184.046,20.912,20.912,0,0,1-2.513.623,7.129,7.129,0,0,1,.669-2.421.989.989,0,0,0,.138-.392c.023-.415-.484-.576-3.159-.922V-13a25.152,25.152,0,0,1-.346,3.643,31.666,31.666,0,0,1-3.92.254c-.161,0-.415,0-.738-.023a12.2,12.2,0,0,0,.277,2.167c.069.3.184.392.392.392a1.241,1.241,0,0,0,.254-.023h.138C66.384-6.7,67.1-6.772,68.113-6.91ZM73.715.4c-1.2.392-1.891.807-1.891,1.2a2.964,2.964,0,0,0,.231.853,4.042,4.042,0,0,0,.9,1.522c1.061,1.107,2.674,1.568,5.556,1.568a18.729,18.729,0,0,0,3.412-.254c.3-.069.392-.184.392-.484a8.212,8.212,0,0,0-.277-2.144.331.331,0,0,0-.369-.277,1.343,1.343,0,0,0-.323.069,13.329,13.329,0,0,1-3.528.369,5.461,5.461,0,0,1-3-.646A2.6,2.6,0,0,1,73.715.4Zm7.77-4.911a.23.23,0,0,0,.231-.115,7.579,7.579,0,0,0,.092-1.406c0-.761-.023-.945-.138-1.038a6.774,6.774,0,0,0-2.19-.161,24.33,24.33,0,0,0-4.5.392,3.64,3.64,0,0,0-.715.161c-.184.069-.231.208-.231.507A10.627,10.627,0,0,0,74.2-4.4a.228.228,0,0,0,.254.184.392.392,0,0,0,.161-.023,21.163,21.163,0,0,1,4.45-.415,19.006,19.006,0,0,1,2.236.115A.573.573,0,0,0,81.485-4.512Z" transform="translate(295.656 3196.07)" fill="#fff"/>
  </g>
</svg>
