<svg xmlns="http://www.w3.org/2000/svg" width="93.283" height="15" viewBox="0 0 93.283 15">
  <g id="logo" transform="translate(0 0.2)">
    <path id="Path_94" data-name="Path 94" d="M9.566,7.562a5.012,5.012,0,0,1,2.208,1.019,3.083,3.083,0,0,1,1.019,2.377A3.652,3.652,0,0,1,12.113,13a3.935,3.935,0,0,1-1.868,1.415,11.115,11.115,0,0,1-3.566.453H0v-.453H.509a1.433,1.433,0,0,0,1.3-.566,3.278,3.278,0,0,0,.226-1.585V3.091a3.479,3.479,0,0,0-.283-1.7A1.651,1.651,0,0,0,.509,1H0V.6H6.17A12.391,12.391,0,0,1,8.943.826a4.89,4.89,0,0,1,2.377,1.358,3.173,3.173,0,0,1,.849,2.208,2.962,2.962,0,0,1-.679,1.925A3.693,3.693,0,0,1,9.566,7.562ZM4.075,7a4.4,4.4,0,0,0,.906.113c.34,0,.679.057,1.075.057a6.076,6.076,0,0,0,2.321-.34A2.619,2.619,0,0,0,9.566,5.808a2.742,2.742,0,0,0,.4-1.472A2.788,2.788,0,0,0,8.943,2.185a4.624,4.624,0,0,0-3-.906,9.375,9.375,0,0,0-1.868.226Zm0,6.792a11.823,11.823,0,0,0,2.377.283,4.39,4.39,0,0,0,2.887-.849,2.678,2.678,0,0,0,1.019-2.094,3.2,3.2,0,0,0-.453-1.585A2.874,2.874,0,0,0,8.434,8.355,6.618,6.618,0,0,0,5.887,7.9H4.755c-.283,0-.566.057-.736.057v5.83Z" transform="translate(0 -0.347)" fill="#fff"/>
    <path id="Path_95" data-name="Path 95" d="M28.589,22.1a1.161,1.161,0,1,1-.849.34A1.152,1.152,0,0,1,28.589,22.1Z" transform="translate(-11.891 -9.677)" fill="#fff"/>
    <path id="Path_96" data-name="Path 96" d="M49.051,14.808H45.258L40.447,8.185H38.975v4.132a3.323,3.323,0,0,0,.283,1.7,1.622,1.622,0,0,0,1.189.453h.566v.4H34.9v-.453h.509a1.433,1.433,0,0,0,1.3-.566,3.011,3.011,0,0,0,.226-1.528V3.091a3.323,3.323,0,0,0-.283-1.7A1.668,1.668,0,0,0,35.409.94H34.9V.6h5.151a12,12,0,0,1,3.34.34A3.626,3.626,0,0,1,45.2,2.185a3.06,3.06,0,0,1,.736,2.094,3.312,3.312,0,0,1-.849,2.264A5.14,5.14,0,0,1,42.428,7.9l2.943,4.075a6.278,6.278,0,0,0,1.755,1.868,4.536,4.536,0,0,0,1.868.566v.4Zm-10.132-7.3h.566A4.387,4.387,0,0,0,42.542,6.6,2.85,2.85,0,0,0,43.56,4.336a2.856,2.856,0,0,0-.849-2.151A2.986,2.986,0,0,0,40.5,1.336a6.957,6.957,0,0,0-1.642.226V7.506Z" transform="translate(-15.145 -0.347)" fill="#fff"/>
    <path id="Path_97" data-name="Path 97" d="M63.389,22.1a1.161,1.161,0,1,1-.849.34A1.248,1.248,0,0,1,63.389,22.1Z" transform="translate(-26.992 -9.677)" fill="#fff"/>
    <path id="Path_98" data-name="Path 98" d="M79.9-.087V4.838h-.4a5.639,5.639,0,0,0-.679-2.264,3.636,3.636,0,0,0-1.415-1.358A3.871,3.871,0,0,0,75.545.706a2.478,2.478,0,0,0-1.811.679A2.18,2.18,0,0,0,73,2.913,1.827,1.827,0,0,0,73.451,4.1,11.7,11.7,0,0,0,76.564,6.2a17.991,17.991,0,0,1,2.717,1.642A4.274,4.274,0,0,1,80.413,9.2a3.35,3.35,0,0,1,.4,1.642,3.626,3.626,0,0,1-1.245,2.774A4.542,4.542,0,0,1,76.338,14.8a8.445,8.445,0,0,1-1.189-.113c-.226-.057-.679-.17-1.358-.4a6.062,6.062,0,0,0-1.3-.34.441.441,0,0,0-.4.17,1.331,1.331,0,0,0-.226.679h-.4V9.932h.4a7.45,7.45,0,0,0,.736,2.321A3.422,3.422,0,0,0,74.017,13.5a4.25,4.25,0,0,0,2.094.509,3.107,3.107,0,0,0,2.094-.679,2.118,2.118,0,0,0,.736-1.642,2.768,2.768,0,0,0-.283-1.075,3.023,3.023,0,0,0-.906-1.019,19.825,19.825,0,0,0-2.264-1.358,19.937,19.937,0,0,1-2.6-1.642A4.477,4.477,0,0,1,71.7,5.234a3.206,3.206,0,0,1-.4-1.642A3.53,3.53,0,0,1,72.489.932a4.193,4.193,0,0,1,3-1.132,5.406,5.406,0,0,1,2.377.566,2.851,2.851,0,0,0,.849.283.643.643,0,0,0,.453-.17c.17,0,.283-.226.34-.566Z" transform="translate(-30.942)" fill="#fff"/>
    <path id="Path_99" data-name="Path 99" d="M94.875,7.166H101.5V3.091a6.451,6.451,0,0,0-.113-1.415.877.877,0,0,0-.453-.453A1.86,1.86,0,0,0,99.97,1H99.46V.6h6.113V1h-.509a1.86,1.86,0,0,0-.962.226.8.8,0,0,0-.453.509,6.453,6.453,0,0,0-.113,1.415v9.17a6.453,6.453,0,0,0,.113,1.415.877.877,0,0,0,.453.453,1.86,1.86,0,0,0,.962.226h.509v.4H99.46v-.4h.509a1.432,1.432,0,0,0,1.245-.509,3.062,3.062,0,0,0,.283-1.642V7.9H94.875V12.26a6.454,6.454,0,0,0,.113,1.415.877.877,0,0,0,.453.453,1.861,1.861,0,0,0,.962.226h.509v.4H90.8v-.34h.509a1.624,1.624,0,0,0,1.3-.509,3.261,3.261,0,0,0,.226-1.642V3.091a6.453,6.453,0,0,0-.113-1.415.877.877,0,0,0-.453-.453A1.86,1.86,0,0,0,91.309,1H90.8V.6h6.113V1H96.4a1.861,1.861,0,0,0-.962.226,1,1,0,0,0-.453.509,6.211,6.211,0,0,0-.113,1.358Z" transform="translate(-39.404 -0.347)" fill="#fff"/>
    <path id="Path_100" data-name="Path 100" d="M126.076,0a6.4,6.4,0,0,1,4.811,2.094,7.306,7.306,0,0,1,2.038,5.264,7.482,7.482,0,0,1-2.038,5.377,6.637,6.637,0,0,1-4.981,2.151,6.381,6.381,0,0,1-4.925-2.094A7.4,7.4,0,0,1,119,7.358a7.258,7.258,0,0,1,2.321-5.547A6.82,6.82,0,0,1,126.076,0Zm-.17.792a3.61,3.61,0,0,0-3.057,1.415,7.981,7.981,0,0,0-1.415,5.151,8.685,8.685,0,0,0,1.472,5.377,3.576,3.576,0,0,0,3,1.415,4.126,4.126,0,0,0,3.34-1.585,7.764,7.764,0,0,0,1.3-4.925c0-2.434-.453-4.245-1.415-5.434A3.937,3.937,0,0,0,125.906.792Z" transform="translate(-51.642 -0.087)" fill="#fff"/>
    <path id="Path_101" data-name="Path 101" d="M149.775,8.185v4.132a3.323,3.323,0,0,0,.283,1.7,1.622,1.622,0,0,0,1.189.453h.566v.4H145.7v-.453h.509a1.433,1.433,0,0,0,1.3-.566,3.839,3.839,0,0,0,.226-1.528V3.091a3.323,3.323,0,0,0-.283-1.7A1.668,1.668,0,0,0,146.209.94H145.7V.6h5.208a8.529,8.529,0,0,1,3,.4,4.311,4.311,0,0,1,1.868,1.3,3.356,3.356,0,0,1,.736,2.208,3.793,3.793,0,0,1-1.132,2.83,4.542,4.542,0,0,1-3.226,1.075,7.972,7.972,0,0,1-1.132-.057A10.863,10.863,0,0,1,149.775,8.185Zm0-.623c.4.057.679.113.962.17a3.481,3.481,0,0,0,.736.057,2.418,2.418,0,0,0,1.868-.849,3.191,3.191,0,0,0,.792-2.208,3.419,3.419,0,0,0-.4-1.7,2.738,2.738,0,0,0-1.076-1.189,2.871,2.871,0,0,0-1.585-.4,4.788,4.788,0,0,0-1.359.226V7.562Z" transform="translate(-63.228 -0.347)" fill="#fff"/>
  </g>
</svg>
