<svg xmlns="http://www.w3.org/2000/svg" width="143.123" height="13" viewBox="0 0 143.123 13">
  <path id="logo" d="M.96-15.261c-.017,2.42,1.455,4.129,4.3,4.129,2.945,0,4.18-1.878,4.18-3.892,0-1.777-1.066-2.691-2.978-3.52-2.115-.88-2.792-1.117-2.776-2.048a1.458,1.458,0,0,1,.469-1.037,1.458,1.458,0,0,1,1.071-.384c1.235,0,1.456.964,1.557,1.54H9.269a3.686,3.686,0,0,0-3.96-3.655c-2.031,0-4.146,1.3-4.146,3.706,0,2.369,2.184,3.148,3.131,3.486,1.743.694,2.64.964,2.64,2.031a1.694,1.694,0,0,1-1.709,1.657c-.542,0-1.676-.321-1.76-2.014Zm11.779-8.63v12.523H15.26v-4.3H16.8a4.84,4.84,0,0,0,3.52-1,4.244,4.244,0,0,0,1.32-3.165,4.141,4.141,0,0,0-1.423-3.2c-.728-.558-1.574-.863-3.691-.863Zm2.521,2.217h1.388a3.552,3.552,0,0,1,1.709.321A1.626,1.626,0,0,1,19.22-19.8a1.722,1.722,0,0,1-.832,1.591,3.4,3.4,0,0,1-1.642.321H15.26Zm9.46,10.306h7.023v-2.217h-4.5v-3.029h4.419v-2.217H27.242v-2.843h4.5v-2.217H24.72Zm20.206-4.2a3.948,3.948,0,0,1-3.486,2.217,4.121,4.121,0,0,1-4.028-4.3,4.084,4.084,0,0,1,4.011-4.263,3.893,3.893,0,0,1,3.5,2.285h2.657a6.381,6.381,0,0,0-6.143-4.5A6.451,6.451,0,0,0,36.8-22.263a6.451,6.451,0,0,0-1.914,4.617,6.486,6.486,0,0,0,1.918,4.634,6.486,6.486,0,0,0,4.649,1.881,6.291,6.291,0,0,0,6.126-4.434ZM51-11.369h2.521V-23.892H51Zm9.155-2.452H65.1l.914,2.452h2.761L63.815-23.893H61.6L56.519-11.369H59.26Zm4.263-2.014h-3.6L62.6-20.912Zm7.414,4.466h6.634v-2.217H74.356V-23.892H71.835Zm15.722-3.892c-.015,2.42,1.455,4.129,4.3,4.129,2.945,0,4.18-1.878,4.18-3.892,0-1.777-1.066-2.691-2.978-3.52-2.115-.88-2.792-1.117-2.776-2.048a1.458,1.458,0,0,1,.469-1.037,1.458,1.458,0,0,1,1.071-.384c1.235,0,1.456.964,1.557,1.54h2.488a3.686,3.686,0,0,0-3.96-3.655c-2.031,0-4.146,1.3-4.146,3.706,0,2.369,2.184,3.148,3.131,3.486,1.743.694,2.64.964,2.64,2.031a1.694,1.694,0,0,1-1.709,1.658c-.542,0-1.676-.321-1.76-2.014Zm13.505,3.892h2.521V-21.675h2.691v-2.217H98.355v2.217h2.708Zm7.023-6.143a6.433,6.433,0,0,0,1.944,4.556,6.433,6.433,0,0,0,4.605,1.824,6.46,6.46,0,0,0,4.674-1.854,6.46,6.46,0,0,0,1.928-4.644,6.466,6.466,0,0,0-1.923-4.635,6.466,6.466,0,0,0-4.66-1.863,6.441,6.441,0,0,0-4.694,1.9,6.441,6.441,0,0,0-1.872,4.7Zm2.521-.135a4.093,4.093,0,0,1,4.062-4.263,4.137,4.137,0,0,1,4.045,4.3,4.123,4.123,0,0,1-4.028,4.263,4.116,4.116,0,0,1-4.079-4.282Zm14.08,6.278h2.521V-21.675h1.472a3.334,3.334,0,0,1,1.777.389,2.15,2.15,0,0,1,.931,1.811,2.344,2.344,0,0,1-.8,1.828,3.9,3.9,0,0,1-2.251.457h-.491l3.368,5.823h2.64L131.067-16a3.275,3.275,0,0,0,2.064-1.352,4.093,4.093,0,0,0,.676-2.335,4.116,4.116,0,0,0-1.591-3.4,6.375,6.375,0,0,0-3.74-.8h-3.791Zm12.373,0h7.023v-2.217h-4.5v-3.029H144v-2.217h-4.419v-2.843h4.5v-2.217h-7.025Z" transform="translate(-0.96 24.13)" fill="#fff"/>
</svg>
