<svg xmlns="http://www.w3.org/2000/svg" width="105.99" height="35" viewBox="0 0 105.99 35">
  <g id="logo-13" transform="translate(-0.3 -0.3)">
    <path id="Path_211" data-name="Path 211" d="M416.977,16.743l-3.549-6.686L412.4,10.6s.178.345.267.512a.333.333,0,0,1-.145.467,7.273,7.273,0,0,1-3.638.9,3.27,3.27,0,0,1-2.347-.89,3.16,3.16,0,0,1-.9-2.292,3.225,3.225,0,0,1,.9-2.3,3.1,3.1,0,0,1,2.258-.912,7.86,7.86,0,0,1,3.427.8.393.393,0,0,1,.234.556c-.078.145-.267.512-.267.512l1.035.534,3.527-6.831-1.035-.534s-.089.167-.178.356a.568.568,0,0,1-.779.189A14.1,14.1,0,0,0,408.8.3a8.821,8.821,0,0,0-6.353,2.581,9.061,9.061,0,0,0-2.548,6.43,8.872,8.872,0,0,0,2.57,6.442,9.12,9.12,0,0,0,6.519,2.5H409a13.481,13.481,0,0,0,5.9-1.457c.445-.2.723-.111.79,0s.256.467.256.467Zm-2.492-1.012a12.317,12.317,0,0,1-5.5,1.38,7.968,7.968,0,0,1-5.707-2.181,7.676,7.676,0,0,1-2.214-5.607A7.88,7.88,0,0,1,403.282,3.7,7.642,7.642,0,0,1,408.8,1.479a13,13,0,0,1,5.474,1.257.52.52,0,0,1,.256.723c-.078.167-.79,1.546-1.146,2.225a.491.491,0,0,1-.679.145,9.346,9.346,0,0,0-3.894-.9,4.29,4.29,0,0,0-3.082,1.257A4.4,4.4,0,0,0,404.495,9.3a4.33,4.33,0,0,0,1.246,3.126,4.439,4.439,0,0,0,3.16,1.224,9.506,9.506,0,0,0,4.072-.979.444.444,0,0,1,.623.178c.078.145.8,1.513,1.179,2.214A.483.483,0,0,1,414.485,15.731Z" transform="translate(-355.144)" fill="#fff"/>
    <g id="Group_201" data-name="Group 201" transform="translate(0.3 29.559)">
      <path id="Path_212" data-name="Path 212" d="M273.592,270.529H271.4v-.412s.234-.022.412-.045.312-.089.312-.289V266.3c0-.478-.033-.656-.278-.757a1.873,1.873,0,0,0-.434-.1V265.1h1.424l3.582,3.716V265.8c0-.156-.122-.234-.3-.278a3.741,3.741,0,0,0-.412-.067v-.345h2.181v.345a2.806,2.806,0,0,0-.412.067c-.167.045-.3.122-.3.278v4.739h-.712l-3.582-3.716v2.982c0,.178.111.267.289.278s.423.044.423.044Z" transform="translate(-241.239 -264.9)" fill="#fff"/>
      <path id="Path_213" data-name="Path 213" d="M823.192,270.529H821v-.412s.234-.022.412-.045.312-.089.312-.289V266.3c0-.478-.033-.656-.278-.757a1.872,1.872,0,0,0-.434-.1V265.1h1.424l3.582,3.716V265.8c0-.156-.122-.234-.3-.278a3.743,3.743,0,0,0-.412-.067v-.345H827.5v.345a2.8,2.8,0,0,0-.412.067c-.167.045-.3.122-.3.278v4.739h-.712l-3.582-3.716v2.982c0,.178.111.267.289.278s.423.044.423.044v.4Z" transform="translate(-729.695 -264.9)" fill="#fff"/>
      <path id="Path_214" data-name="Path 214" d="M143.94,270.529H138.7v-.412l.857-.067v-4.294a.269.269,0,0,0-.234-.245c-.189-.033-.623-.067-.623-.067V265.1h2.87v.345s-.434.033-.612.067a.274.274,0,0,0-.256.245v4.294h1.7c.334,0,.723-.056.834-.289a2.766,2.766,0,0,0,.167-.523h.612Z" transform="translate(-123.303 -264.9)" fill="#fff"/>
      <path id="Path_215" data-name="Path 215" d="M66,266.737c0-2.08,1.38-2.837,3.282-2.837s3.282.756,3.282,2.837-1.38,2.837-3.282,2.837S66,268.817,66,266.737Zm3.282-2.359c-1.213,0-1.991.879-1.991,2.359s.79,2.314,1.991,2.314,1.991-.868,1.991-2.314S70.495,264.378,69.282,264.378Z" transform="translate(-58.691 -263.833)" fill="#fff"/>
      <path id="Path_216" data-name="Path 216" d="M197.4,266.737c0-2.08,1.38-2.837,3.282-2.837s3.282.756,3.282,2.837-1.38,2.837-3.282,2.837S197.4,268.817,197.4,266.737Zm3.282-2.359c-1.213,0-1.991.879-1.991,2.359s.79,2.314,1.991,2.314,1.991-.868,1.991-2.314S201.895,264.378,200.682,264.378Z" transform="translate(-175.472 -263.833)" fill="#fff"/>
      <path id="Path_217" data-name="Path 217" d="M507.74,270.529H502.5v-.412l.857-.067v-4.294a.269.269,0,0,0-.234-.245c-.189-.033-.623-.067-.623-.067V265.1h2.87v.345s-.434.033-.612.067a.274.274,0,0,0-.256.245v4.294h1.7c.334,0,.723-.056.834-.289a2.769,2.769,0,0,0,.167-.523h.612Z" transform="translate(-446.629 -264.9)" fill="#fff"/>
      <path id="Path_218" data-name="Path 218" d="M561.2,266.737c0-2.08,1.38-2.837,3.282-2.837s3.282.756,3.282,2.837-1.38,2.837-3.282,2.837S561.2,268.817,561.2,266.737Zm3.293-2.359c-1.213,0-1.991.879-1.991,2.359s.79,2.314,1.991,2.314,1.992-.868,1.992-2.314S565.695,264.378,564.493,264.378Z" transform="translate(-498.798 -263.833)" fill="#fff"/>
      <path id="Path_219" data-name="Path 219" d="M5.84,264.991H5.373a1.664,1.664,0,0,0-1.647-1.146,2.173,2.173,0,0,0-2.069,2.27,2.248,2.248,0,0,0,2.214,2.4,3.241,3.241,0,0,0,2.147-.768v.567a4.109,4.109,0,0,1-2.359.7c-1.891,0-3.36-1.224-3.36-2.815,0-1.268.923-2.837,3.427-2.837a3.226,3.226,0,0,1,1.647.4l.067-.467h.4v1.691Z" transform="translate(-0.3 -263.3)" fill="#fff"/>
      <path id="Path_220" data-name="Path 220" d="M439.94,264.991h-.467a1.664,1.664,0,0,0-1.647-1.146,2.173,2.173,0,0,0-2.069,2.27,2.248,2.248,0,0,0,2.214,2.4,3.241,3.241,0,0,0,2.147-.768v.567a4.109,4.109,0,0,1-2.359.7c-1.891,0-3.36-1.224-3.36-2.815,0-1.268.923-2.837,3.427-2.837a3.226,3.226,0,0,1,1.647.4l.078-.467h.389Z" transform="translate(-386.105 -263.3)" fill="#fff"/>
      <path id="Path_221" data-name="Path 221" d="M343.646,270.029s.478-.022.634-.044.245-.089.245-.245V267.87s-1.546-2.114-1.635-2.225a.574.574,0,0,0-.345-.2c-.145-.033-.445-.089-.445-.089v-.345h2.548v.345l-.389.067c-.167.033-.134.211-.067.3l1.046,1.48s1.068-1.48,1.135-1.569a.144.144,0,0,0-.078-.223c-.133-.033-.323-.067-.323-.067V265H348v.345s-.256.056-.367.089a.6.6,0,0,0-.312.2c-.089.111-1.658,2.225-1.658,2.225v1.88c0,.156.089.211.245.234.134.022.612.045.612.045v.412h-2.87Z" transform="translate(-304.074 -264.811)" fill="#fff"/>
      <path id="Path_222" data-name="Path 222" d="M637.168,270.029s.467-.022.623-.044a.316.316,0,0,0,.267-.345v-4.228a2.362,2.362,0,0,0-1.368.323,2.008,2.008,0,0,0-.467,1.368H635.8V265h5.641v2.1h-.423a1.963,1.963,0,0,0-.512-1.368,2.351,2.351,0,0,0-1.324-.323v4.25c0,.189.078.3.256.323.145.022.634.044.634.044v.412h-2.915v-.412Z" transform="translate(-565.099 -264.811)" fill="#fff"/>
      <path id="Path_223" data-name="Path 223" d="M704.761,265.834a.293.293,0,0,0-.267-.312c-.2-.033-.612-.078-.612-.078V265.1h2.893v.345s-.478.044-.645.078a.281.281,0,0,0-.234.312v3.961a.279.279,0,0,0,.245.278,4.479,4.479,0,0,0,.634.056v.412h-2.893v-.412a4.373,4.373,0,0,0,.612-.056c.189-.044.267-.145.267-.3v-1.724h-2.448v1.747c0,.134.078.245.267.278.211.033.612.056.612.056v.412H700.3v-.412a5.774,5.774,0,0,0,.612-.056.31.31,0,0,0,.267-.311v-3.916c0-.156-.033-.289-.289-.323-.2-.033-.59-.078-.59-.078V265.1h2.893v.345s-.389.033-.623.078a.294.294,0,0,0-.256.312v1.557h2.448Z" transform="translate(-622.423 -264.9)" fill="#fff"/>
      <path id="Path_224" data-name="Path 224" d="M776.611,270.029s.478-.022.645-.056a.246.246,0,0,0,.222-.278v-3.983c0-.156-.067-.234-.256-.278s-.623-.089-.623-.089V265h2.893v.345s-.445.056-.6.089c-.178.044-.278.1-.278.256v3.994a.252.252,0,0,0,.223.278c.167.033.656.056.656.056v.412H776.6v-.4Z" transform="translate(-690.234 -264.811)" fill="#fff"/>
      <path id="Path_225" data-name="Path 225" d="M897.009,266.582l-.59.067c-.156.022-.278.111-.278.256v1.947a9.958,9.958,0,0,1-2.292.267c-2.615,0-3.849-1.157-3.849-2.77,0-1.335.868-2.881,3.582-2.881a7.5,7.5,0,0,1,2.058.256l.078-.323h.423v1.68h-.423a2.3,2.3,0,0,0-2.247-1.146,2.181,2.181,0,0,0-2.114,2.37,2.382,2.382,0,0,0,2.5,2.3c.445,0,1.179-.178,1.179-.445v-1.246c0-.145-.089-.234-.323-.267l-.612-.067v-.345H897v.345Z" transform="translate(-791.019 -263.389)" fill="#fff"/>
    </g>
  </g>
</svg>
