<svg xmlns="http://www.w3.org/2000/svg" width="55.299" height="30" viewBox="0 0 55.299 30">
  <g id="logo-9" transform="translate(0.105 -0.096)">
    <path id="Path_197" data-name="Path 197" d="M316.606,104.018a12.323,12.323,0,0,1,2.145-1.255,5.965,5.965,0,0,1,2.49-.533,2.325,2.325,0,0,1,2.359,1.694,6.387,6.387,0,0,1,.3,2.033c.013,1.6.013,3.2.031,4.8a6.588,6.588,0,0,0,.094,1.217,1.006,1.006,0,0,0,.972.935,3.12,3.12,0,0,0,.59.05c.188-.006.27.025.27.251,0,.257-.157.194-.289.194-1.11,0-2.214-.006-3.325.006-.232,0-.263-.069-.257-.282.094-2.352-.013-4.7-.094-7.051a3.935,3.935,0,0,0-.188-1.01,2.113,2.113,0,0,0-2.064-1.575,4.137,4.137,0,0,0-2.867.966.48.48,0,0,0-.207.42c.006,2.076-.006,4.159,0,6.242.006,1.342.345,1.713,1.7,1.844.188.019.276.056.263.27-.006.163-.063.176-.207.176q-2.776-.009-5.546,0c-.125,0-.2-.006-.188-.157.013-.125-.044-.276.182-.282a3.188,3.188,0,0,0,.8-.119,1.153,1.153,0,0,0,.972-1.142,10.6,10.6,0,0,0,.056-1.092c.006-1.869,0-3.739,0-5.615a5.417,5.417,0,0,0-.056-.9.685.685,0,0,0-.759-.665,3.517,3.517,0,0,0-1.054.125c-.22.063-.22-.082-.276-.226-.075-.2.05-.2.169-.226q1.873-.452,3.733-.916c.163-.044.238-.031.232.176C316.594,102.882,316.606,103.416,316.606,104.018Z" transform="translate(-292.935 -95.672)" fill="#fff"/>
    <path id="Path_198" data-name="Path 198" d="M3.283,103.1a8.579,8.579,0,0,1,3.638-2.252c.144-.05.251-.088.3.113.038.157.138.276-.113.376a5.741,5.741,0,0,0-3.689,4.818,17.809,17.809,0,0,0-.182,3.218,1.433,1.433,0,0,0,.954,1.437c.263.1.521.213.784.314.094.038.157.075.157.194s-.063.157-.157.194c-1.06.427-2.12.866-3.187,1.292-.251.1-.389-.019-.37-.326.132-2.528.063-5.056.082-7.591a1.308,1.308,0,0,1,0-.157A2.521,2.521,0,0,0,.329,102.3c-.571-.408-.621-.445.113-.728.79-.3,1.568-.615,2.359-.922.383-.151.483-.069.483.332Z" transform="translate(0 -94.176)" fill="#fff"/>
    <path id="Path_199" data-name="Path 199" d="M173.225,105.375c0,1.474-.019,2.948.006,4.416.019.991.32,1.311,1.292,1.487a1.709,1.709,0,0,0,.433.056c.22-.006.213.113.226.276.013.22-.125.163-.245.163h-5.42c-.138,0-.245.019-.232-.176.013-.144,0-.257.207-.257a3.364,3.364,0,0,0,.866-.132,1.15,1.15,0,0,0,.878-.991,8.116,8.116,0,0,0,.069-1.405c.006-1.474-.025-2.948.006-4.416a2.385,2.385,0,0,0-1.016-2.1c-.157-.119-.314-.245-.464-.376s-.169-.257.05-.339c1-.37,1.989-.74,2.986-1.1.263-.094.37,0,.37.295v4.6Z" transform="translate(-158.762 -94.049)" fill="#fff"/>
    <path id="Path_200" data-name="Path 200" d="M196.216,2.562A1.149,1.149,0,0,1,195,1.32a1.236,1.236,0,1,1,2.472.05A1.2,1.2,0,0,1,196.216,2.562Z" transform="translate(-182.864 0)" fill="#fff"/>
    <path id="Path_201" data-name="Path 201" d="M413.548,76.854c-.151-.088-.157.082-.194.144a29.521,29.521,0,0,1-4.46,5.953A17.091,17.091,0,0,1,403.8,86.64a7.952,7.952,0,0,1-1.581.552L409.69,74.1c-.79.088-1.518.176-2.246.245a.36.36,0,0,0-.326.232c-.389.715-.784,1.424-1.179,2.133-.038.063-.044.176-.176.144a4.784,4.784,0,0,0-.213-.979,2.182,2.182,0,0,0-2.365-1.593,5.489,5.489,0,0,0-1.838.477,13.1,13.1,0,0,0-4.642,3.595,11.757,11.757,0,0,0-2.974,6.2,3.675,3.675,0,0,0,.452,2.566,1.926,1.926,0,0,0,1.926.979,5.206,5.206,0,0,0,2.058-.7,13.763,13.763,0,0,0,3.626-3.243c.069-.082.107-.207.326-.213-.232.37-.445.7-.646,1.041-1.085,1.876-2.145,3.77-3.256,5.633a27.353,27.353,0,0,1-4.2,5.671,8.729,8.729,0,0,1-5.276,2.691,4.268,4.268,0,0,1-2.948-.577,3.993,3.993,0,0,1-1.38-4.636,2.361,2.361,0,0,1,1.832-1.694,3.779,3.779,0,0,1,.753-.025c.144.006.176-.056.188-.182s-.031-.182-.163-.2a6.621,6.621,0,0,0-.935-.063,3.605,3.605,0,0,0-3.475,2.3,3.918,3.918,0,0,0,.966,4.228,5.37,5.37,0,0,0,3.444,1.3,11.35,11.35,0,0,0,6.11-1.411,16.973,16.973,0,0,0,5.257-4.579,29.408,29.408,0,0,0,3.419-5.558.476.476,0,0,1,.32-.307,14.268,14.268,0,0,0,5.382-2.9,27.207,27.207,0,0,0,6.1-7.528C413.7,77.011,413.667,76.923,413.548,76.854ZM399.283,86.3a4.029,4.029,0,0,1-1.606.878A1.251,1.251,0,0,1,396,86.22a5.122,5.122,0,0,1,.144-2.9,16.141,16.141,0,0,1,5.144-7.873,3.876,3.876,0,0,1,1.3-.728,1.341,1.341,0,0,1,1.844.972,5.026,5.026,0,0,1,.144,1.2,10.128,10.128,0,0,1-1.148,4.134A16.1,16.1,0,0,1,399.283,86.3Z" transform="translate(-358.467 -69.361)" fill="#fff"/>
  </g>
</svg>
