<svg id="A" xmlns="http://www.w3.org/2000/svg" width="87.925" height="25" viewBox="0 0 87.925 25">
  <g id="Group_195" data-name="Group 195" transform="translate(0 0)">
    <g id="Group_194" data-name="Group 194" transform="translate(12.266 5.276)">
      <path id="Path_202" data-name="Path 202" d="M78.676,25.707l1.9-.207L74.745,35.7c2.959-.807,6.207-3.621,8.772-8.131l.166.166c-2.669,4.7-5.938,7.489-9.165,8.3-2.814,5.876-6.579,9-10.779,9.186-2.752.124-4.365-1.2-4.448-3.1a2.8,2.8,0,0,1,2.71-3,3.584,3.584,0,0,1,1.055.083v.269a2.308,2.308,0,0,0-.538,0c-1.055.041-1.841,1.117-1.779,2.565a2.849,2.849,0,0,0,3.145,2.855c3-.145,5.089-2.193,7.489-6.062,1.241-2.027,2.234-4.014,3.289-5.627l-.083-.062c-1.7,2.11-3.31,3.207-4.717,3.269-.89.041-1.676-.807-1.738-2.048a8.828,8.828,0,0,1,2.565-5.814,8.086,8.086,0,0,1,4.862-2.917c1.159-.062,1.862.7,1.986,2.11Zm-6.31,2.545a10.353,10.353,0,0,0-2.524,5.958c.041,1.034.393,1.531,1.117,1.49.828-.041,1.945-.869,3.269-2.483a9.551,9.551,0,0,0,2.4-5.751c-.041-1.159-.434-1.614-1.241-1.572C74.745,25.934,73.608,26.679,72.366,28.252Z" transform="translate(-59.289 -25.5)" fill="#fff"/>
    </g>
    <path id="Path_203" data-name="Path 203" d="M1.51,3.972C1.51,2.524,1.283,2.234.5,1.965L.29,1.9C.041,1.821,0,1.8,0,1.717V1.552c0-.062.041-.1.166-.166A23.515,23.515,0,0,0,2.441.207.862.862,0,0,1,2.917,0c.145,0,.186.1.166.372C3.062.538,3.062,3,3.062,4.924v2.5A4.6,4.6,0,0,1,6.041,6.351c1.9,0,3.952,1.531,3.952,4.614A4.824,4.824,0,0,1,5.5,15.848a5.134,5.134,0,0,1-2.545-.559l-.869.476a.3.3,0,0,1-.269.062l-.269-.062c-.083-.041-.1-.083-.083-.186.041-.31.041-2.09.041-3.662Zm1.552,6.972a8.119,8.119,0,0,0,.331,3.124,2.361,2.361,0,0,0,2.048,1.076c1.3,0,2.9-.89,2.9-3.7,0-2.09-1.1-4.076-3.207-4.076a2.846,2.846,0,0,0-2.048.765l-.021,2.814Z" transform="translate(0 0)" fill="#fff"/>
    <path id="Path_204" data-name="Path 204" d="M169.672,9.244c0,1.117,0,4.386.021,5.048.021.372.1.662.559.662h.972c.186,0,.228.062.228.186v.372c0,.124-.041.207-.124.207-.145,0-1.1-.062-2.441-.062-1.386,0-2.234.062-2.441.062-.1,0-.145-.083-.145-.207v-.372c0-.145.041-.186.29-.186h1.034c.228,0,.455-.145.476-.538.021-.662.021-4.365.021-5.627V7.424c0-1.531-.021-3.5-.062-4.055a1.326,1.326,0,0,0-1.076-1.3l-.434-.124c-.1-.041-.124-.062-.124-.1V1.652c0-.062.062-.1.186-.145A21.771,21.771,0,0,0,169.134.266.818.818,0,0,1,169.59.1c.145,0,.186.1.165.393-.021,1.179-.083,5.669-.083,6.848v1.9Z" transform="translate(-131.895 -0.079)" fill="#fff"/>
    <path id="Path_205" data-name="Path 205" d="M245.717,34.117a5.7,5.7,0,0,0-.062,1.034c0,2.11,1.345,3.7,3.062,3.7a2.891,2.891,0,0,0,2.607-1.469.168.168,0,0,1,.186-.1l.269.145c.062.021.1.083,0,.331a3.892,3.892,0,0,1-3.434,2.359,4,4,0,0,1-3.393-1.531A5.2,5.2,0,0,1,244,35.172a4.821,4.821,0,0,1,1.365-3.434,3.987,3.987,0,0,1,3.083-1.138,3.2,3.2,0,0,1,3.165,3.165c0,.31-.269.352-.6.352Zm3.434-.641c.414,0,.579-.1.579-.31,0-.5-.269-1.924-1.655-1.924-.952,0-1.862.621-2.255,2.214l3.331.021Z" transform="translate(-193.52 -24.269)" fill="#fff"/>
    <path id="Path_206" data-name="Path 206" d="M299.065,28.751c0,1.614.724,1.9,1.117,1.9a2.98,2.98,0,0,0,1.427-.29.2.2,0,0,1,.269.041l.1.186a.165.165,0,0,1-.041.228,3.644,3.644,0,0,1-2.4.869,2.2,2.2,0,0,1-2.089-1.841c0-.89.062-2.772.062-3.083v-.476c0-.393.021-1.821.041-2.731h-1.324c-.186,0-.331-.083-.331-.248s.124-.228.393-.393a10.079,10.079,0,0,0,2.462-2.71.287.287,0,0,1,.31-.207c.166,0,.228.145.228.331l-.1,2.131h3c.124,0,.186.1.145.186l-.207.745c-.021.1-.062.166-.186.166h-2.772c-.041.993-.062,2.028-.062,3.021v2.172Z" transform="translate(-234.682 -15.862)" fill="#fff"/>
    <path id="Path_207" data-name="Path 207" d="M342.765,28.751c0,1.614.724,1.9,1.117,1.9a2.979,2.979,0,0,0,1.428-.29.169.169,0,0,1,.248.041l.1.186a.165.165,0,0,1-.041.228,3.625,3.625,0,0,1-2.379.869,2.2,2.2,0,0,1-2.09-1.841c0-.89.062-2.772.062-3.083v-.476c0-.393.021-1.821.041-2.731h-1.324c-.186,0-.331-.083-.331-.248s.124-.228.393-.393a10.079,10.079,0,0,0,2.462-2.71.287.287,0,0,1,.31-.207c.165,0,.207.145.207.331l-.1,2.131h3c.124,0,.186.1.145.186l-.228.745c-.021.1-.062.166-.186.166h-2.772c-.041.993-.062,2.028-.062,3.021Z" transform="translate(-269.341 -15.862)" fill="#fff"/>
    <path id="Path_208" data-name="Path 208" d="M391.71,37.282c0,1.221.269,1.614.641,1.614a.909.909,0,0,0,.745-.331c.083-.1.124-.145.228-.083l.207.166c.062.062.1.166-.021.393a1.754,1.754,0,0,1-1.676,1.055,1.608,1.608,0,0,1-1.531-1.448h-.041a4.716,4.716,0,0,1-2.131,1.324,4.3,4.3,0,0,1-1.283.124c-.517,0-1.283-.434-1.283-1.8,0-.993.455-1.862,2.152-2.607a15.986,15.986,0,0,0,2.441-1.241V33.062a2.3,2.3,0,0,0-.31-1.2,1.575,1.575,0,0,0-1.283-.476,2.381,2.381,0,0,0-1.407.455c-.31.269-.1.6-.1.993,0,.765-.269,1.221-1.138,1.221-.352,0-.517-.186-.517-.683a2.71,2.71,0,0,1,1.49-2.027,4.75,4.75,0,0,1,2.627-.745,2.215,2.215,0,0,1,1.717.579,1.905,1.905,0,0,1,.476,1.531v4.572Zm-1.572-2.172c-.786.579-2.9,1.014-2.9,2.793a1.051,1.051,0,0,0,1.117,1.179c.621,0,1.759-.765,1.759-1.345V35.11Z" transform="translate(-305.666 -24.269)" fill="#fff"/>
    <path id="Path_209" data-name="Path 209" d="M65.8,21.613c1.593-.1,1.593-.538,1.593-2.193V16.234a1.812,1.812,0,0,0-.848-1.8l-.393-.331v-.145l2.565-.952.207.083c-.021.807-.041,1.386-.041,1.759v4.965c0,1.365.062,1.7,1.552,1.841v.331c-.7-.021-1.448-.021-2.234-.021-.765,0-1.572,0-2.4.021ZM68.055,8a.972.972,0,1,1,0,1.945.929.929,0,0,1-.993-.972A.976.976,0,0,1,68.055,8Z" transform="translate(-52.187 -6.345)" fill="#fff"/>
    <path id="Path_210" data-name="Path 210" d="M205.121,21.613c1.593-.1,1.593-.538,1.593-2.193V16.234a1.812,1.812,0,0,0-.848-1.8l-.393-.331v-.145l2.565-.952.207.083c-.021.807-.041,1.386-.041,1.759v4.965c0,1.365.062,1.7,1.552,1.841v.331c-.7-.021-1.448-.021-2.255-.021-.765,0-1.572,0-2.4.021v-.372ZM207.355,8a.972.972,0,0,1,0,1.945.929.929,0,0,1-.993-.972A.989.989,0,0,1,207.355,8Z" transform="translate(-162.667 -6.345)" fill="#fff"/>
  </g>
</svg>
