<svg id="logo-4" xmlns="http://www.w3.org/2000/svg" width="90.305" height="35" viewBox="0 0 90.305 35">
  <g id="Group_179" data-name="Group 179" transform="translate(0 21.374)">
    <g id="Group_178" data-name="Group 178">
      <g id="Group_177" data-name="Group 177">
        <path id="Path_132" data-name="Path 132" d="M.178,26.259H.089L0,25.636l.089-.089c.445-.178.98-.356,1.514-.534.8-.356,1.336-.623,1.6-.712l.178.089C3.3,26.437,3.3,27.6,3.3,27.951v4.72a3.149,3.149,0,0,0,.089.534c.089.089.178.178.267.178a9.678,9.678,0,0,0,1.158.089v.445H.445v-.445A7.9,7.9,0,0,0,1.6,33.384c.089,0,.178-.089.267-.089.089-.089.089-.089.089-.178,0-.178.089-.534.089-1.158V25.725a.327.327,0,0,0-.089-.267H1.87a.44.44,0,0,0-.267.089C.98,25.9.445,26.081.178,26.259Z" transform="translate(0 -24.033)" fill="#fff"/>
        <path id="Path_133" data-name="Path 133" d="M12.437,30.3V29.77a1.187,1.187,0,0,1,.445-.534,1.939,1.939,0,0,1,.712-.445,2.6,2.6,0,0,1,.8-.178,2.371,2.371,0,0,1,1.069.267,1.748,1.748,0,0,1,.8.8,2.845,2.845,0,0,1,.267,1.247,3.692,3.692,0,0,1-.267,1.425,2.177,2.177,0,0,1-.8.98,2.465,2.465,0,0,1-1.158.267,3.788,3.788,0,0,1-.98-.178,6.25,6.25,0,0,1-.8-.534V30.3Zm-1.425-1.514c.089,0,.089,0,.178.089.089,0,.089.089.089.178a12.1,12.1,0,0,0,.089,1.336v6.679a1.812,1.812,0,0,1-.089.445.087.087,0,0,1-.089.089c-.089,0-.089.089-.178.089h-.623v.356h3.384V37.7h-.8c-.089,0-.089,0-.178-.089l-.089-.089a.667.667,0,0,1-.089-.445V34.134a6.136,6.136,0,0,1,.712.267,1.516,1.516,0,0,0,.623.089,2.466,2.466,0,0,0,.8-.089,1.549,1.549,0,0,0,.623-.267,6.251,6.251,0,0,0,.8-.534,3.391,3.391,0,0,0,.534-.445,1.943,1.943,0,0,0,.356-.445,3.873,3.873,0,0,0,.356-.623,6.136,6.136,0,0,0,.267-.712,2.466,2.466,0,0,0,.089-.8,3.574,3.574,0,0,0-.267-1.336,1.9,1.9,0,0,0-.891-.98,2.729,2.729,0,0,0-1.514-.356,2.558,2.558,0,0,0-1.069.178,10.818,10.818,0,0,0-1.425,1.158V27.9h-.178a3.015,3.015,0,0,1-.712.267,3.919,3.919,0,0,1-.891.178,3.149,3.149,0,0,0-.534.089v.356Z" transform="translate(-1.127 -24.427)" fill="#fff"/>
        <path id="Path_134" data-name="Path 134" d="M20.792,24.4a1.266,1.266,0,0,1,.534.178.654.654,0,0,1,.178.534.8.8,0,1,1-1.336-.534A1.287,1.287,0,0,1,20.792,24.4ZM19.1,28.319v-.356a6.226,6.226,0,0,0,2.137-.534l.178.089v5.344a.964.964,0,0,0,.089.534l.089.089a.311.311,0,0,0,.178.089h.712v.356H19.1v-.356h.623c.089,0,.178,0,.178-.089a.087.087,0,0,0,.089-.089.667.667,0,0,0,.089-.445V29.833c0-.712,0-1.069-.089-1.158,0-.089-.089-.089-.178-.178C19.991,28.319,19.634,28.319,19.1,28.319Z" transform="translate(-2.09 -24.044)" fill="#fff"/>
        <path id="Path_135" data-name="Path 135" d="M30.848,33.834v.356H28.533V32.944a8.051,8.051,0,0,0-.98.891c-.089.089-.178.178-.267.178l-.534.267a1.736,1.736,0,0,1-.712.089,2.635,2.635,0,0,1-.891-.178,1.6,1.6,0,0,1-.623-.445c-.089-.178-.267-.356-.267-.534a2.746,2.746,0,0,1-.089-.891V29.381c0-.267,0-.534-.089-.623a.087.087,0,0,0-.089-.089c-.089-.089-.178-.089-.356-.089H23.1v-.356a4.787,4.787,0,0,0,2.048-.534c.089,0,.089-.089.178-.089h.089v3.919a3.7,3.7,0,0,0,.089,1.158,1.187,1.187,0,0,0,.445.534,1.778,1.778,0,0,0,.8.178,1.516,1.516,0,0,0,.623-.089c.178-.089.445-.178.534-.356a1.943,1.943,0,0,0,.356-.445,1.281,1.281,0,0,0,.178-.267c0-.089.089-.178.089-.267V29.381c0-.267,0-.534-.089-.623a.087.087,0,0,0-.089-.089c-.089-.089-.178-.089-.356-.089h-.534v-.356a4.42,4.42,0,0,0,2.048-.534c.089,0,.089-.089.178-.089h.089v.267a4.09,4.09,0,0,1-.089.891v4.364a.964.964,0,0,0,.089.534l.089.089a.311.311,0,0,0,.178.089Z" transform="translate(-2.527 -24.394)" fill="#fff"/>
        <path id="Path_136" data-name="Path 136" d="M36.478,26.27h-.089l-.089-.534.089-.089c.445-.178.98-.356,1.514-.534.8-.356,1.336-.623,1.6-.712l.178.089C39.6,26.537,39.6,27.7,39.6,28.051v4.72a3.149,3.149,0,0,0,.089.534c.089.089.178.178.267.178a9.678,9.678,0,0,0,1.158.089v.445H36.745v-.445a7.9,7.9,0,0,0,1.158-.089c.089,0,.178-.089.267-.089.089-.089.089-.089.089-.178,0-.178.089-.534.089-1.158V25.825a.327.327,0,0,0-.089-.267H38.17a.44.44,0,0,0-.267.089A5.72,5.72,0,0,0,36.478,26.27Z" transform="translate(-3.972 -24.044)" fill="#fff"/>
        <path id="Path_137" data-name="Path 137" d="M54.148,33.834v.356H51.833V32.944a8.052,8.052,0,0,0-.98.891c-.089.089-.178.178-.267.178l-.534.267a1.736,1.736,0,0,1-.712.089,2.635,2.635,0,0,1-.891-.178,1.6,1.6,0,0,1-.623-.445c-.089-.178-.267-.356-.267-.534a2.746,2.746,0,0,1-.089-.891V29.381c0-.267,0-.534-.089-.623a.087.087,0,0,0-.089-.089c-.089-.089-.178-.089-.356-.089H46.4v-.356a4.787,4.787,0,0,0,2.048-.534c.089,0,.089-.089.178-.089h.089v3.919a3.7,3.7,0,0,0,.089,1.158,1.187,1.187,0,0,0,.445.534,1.778,1.778,0,0,0,.8.178,1.516,1.516,0,0,0,.623-.089c.178-.089.445-.178.534-.356a1.943,1.943,0,0,0,.356-.445,1.281,1.281,0,0,0,.178-.267c0-.089.089-.178.089-.267V29.381c0-.267,0-.534-.089-.623a.087.087,0,0,0-.089-.089c-.089-.089-.178-.089-.356-.089h-.534v-.356a4.42,4.42,0,0,0,2.048-.534c.089,0,.089-.089.178-.089h.089v.267a4.09,4.09,0,0,1-.089.891v4.364a.964.964,0,0,0,.089.534l.089.089a.311.311,0,0,0,.178.089Z" transform="translate(-5.077 -24.394)" fill="#fff"/>
        <path id="Path_138" data-name="Path 138" d="M57.481,28.68a1.475,1.475,0,0,1,1.069-.445,1.27,1.27,0,0,1,1.069.534,2.188,2.188,0,0,1,.445,1.336,1.405,1.405,0,0,1-.445,1.158,1.339,1.339,0,0,1-.98.356,1.437,1.437,0,0,1-.8-.267,1.106,1.106,0,0,1-.534-.712,3.164,3.164,0,0,1-.178-.891A1.145,1.145,0,0,1,57.481,28.68Zm3.117-.356a3.61,3.61,0,0,0-.8-.445,2.635,2.635,0,0,0-.891-.178,3.393,3.393,0,0,0-1.514.356,2.493,2.493,0,0,0-1.158.891,2.045,2.045,0,0,0-.356,1.247,3.164,3.164,0,0,0,.178.891,1.2,1.2,0,0,0,.534.623,2.052,2.052,0,0,0,.98.356q-.668.534-1.069.8a1.53,1.53,0,0,0-.178.712c0,.089.089.178.178.356a4.953,4.953,0,0,0,.712.356,4.493,4.493,0,0,1-1.158.623.77.77,0,0,0-.267.534,1.13,1.13,0,0,0-.089.534,1.339,1.339,0,0,0,.356.98,1.792,1.792,0,0,0,.98.8,4.314,4.314,0,0,0,1.6.267,4.534,4.534,0,0,0,1.959-.445,2.472,2.472,0,0,0,1.336-1.158A2.956,2.956,0,0,0,62.379,35a2.635,2.635,0,0,0-.178-.891c-.089-.267-.356-.445-.534-.623a3.489,3.489,0,0,0-1.158-.178H59.084a3.073,3.073,0,0,1-1.069-.089c-.178,0-.267-.089-.267-.178a.445.445,0,0,1,0-.534l.534-.534a2.77,2.77,0,0,0,.98-.089,5.448,5.448,0,0,0,1.069-.445,3.4,3.4,0,0,0,.8-.8,2.03,2.03,0,0,0,.267-.98,2.1,2.1,0,0,0-.178-.712h1.247a5.274,5.274,0,0,0,.356-.534l-.089-.089Zm-.267,6.056c.178.089.356.089.445.178a1.229,1.229,0,0,1,.267.356,1.321,1.321,0,0,1,.089.623,2.03,2.03,0,0,1-.267.98,1.949,1.949,0,0,1-.891.8,2.974,2.974,0,0,1-1.336.267,2.547,2.547,0,0,1-1.514-.445,1.568,1.568,0,0,1-.534-1.158,1.678,1.678,0,0,1,.178-.712c.089-.178.089-.267.178-.267a3.524,3.524,0,0,1,.623-.445.327.327,0,0,1,.267-.089h1.247A10.07,10.07,0,0,1,60.331,34.379Z" transform="translate(-6.094 -24.405)" fill="#fff"/>
        <path id="Path_139" data-name="Path 139" d="M71.248,33.834v.356H68.933V32.944a8.052,8.052,0,0,0-.98.891c-.089.089-.178.178-.267.178l-.534.267a1.736,1.736,0,0,1-.712.089,2.635,2.635,0,0,1-.891-.178,1.6,1.6,0,0,1-.623-.445c-.089-.178-.267-.356-.267-.534a2.745,2.745,0,0,1-.089-.891V29.381c0-.267,0-.534-.089-.623a.087.087,0,0,0-.089-.089c-.089-.089-.178-.089-.356-.089H63.5v-.356a4.787,4.787,0,0,0,2.048-.534c.089,0,.089-.089.178-.089h.089v3.919a3.7,3.7,0,0,0,.089,1.158,1.187,1.187,0,0,0,.445.534,1.778,1.778,0,0,0,.8.178,1.516,1.516,0,0,0,.623-.089c.178-.089.445-.178.534-.356a1.943,1.943,0,0,0,.356-.445,1.281,1.281,0,0,0,.178-.267c0-.089.089-.178.089-.267V29.381c0-.267,0-.534-.089-.623a.087.087,0,0,0-.089-.089c-.089-.089-.178-.089-.356-.089h-.534v-.356a4.42,4.42,0,0,0,2.048-.534c.089,0,.089-.089.178-.089h.089v.267a4.09,4.09,0,0,1-.089.891v4.364a.964.964,0,0,0,.089.534l.089.089a.311.311,0,0,0,.178.089Z" transform="translate(-6.948 -24.394)" fill="#fff"/>
        <path id="Path_140" data-name="Path 140" d="M76.808,32.542a3.62,3.62,0,0,1-.891.8,1.718,1.718,0,0,1-.891.267.945.945,0,0,1-1.069-1.069,1.678,1.678,0,0,1,.178-.712,1.229,1.229,0,0,1,.267-.356,2.994,2.994,0,0,1,.891-.356c.445-.089.891-.267,1.514-.356v1.781Zm-2.85-3.473.089-.267c0-.089.178-.089.356-.178a1.736,1.736,0,0,1,.712-.089,1.8,1.8,0,0,1,.98.267,1.2,1.2,0,0,1,.534.623,2.75,2.75,0,0,1,.178.98c-.534.089-1.158.178-1.781.267-.623.178-.98.267-1.247.356a1.563,1.563,0,0,0-.445.356,1.435,1.435,0,0,0-.356.623,2.635,2.635,0,0,0-.178.891,1.693,1.693,0,0,0,.445,1.158,1.762,1.762,0,0,0,1.247.445,1.321,1.321,0,0,0,.623-.089,12.9,12.9,0,0,0,1.6-1.158v1.158h2.048v-.356h-.445c-.178,0-.267,0-.267-.089-.089,0-.089-.089-.089-.178a3.858,3.858,0,0,1-.089-.445V30.137a3.322,3.322,0,0,0-.178-1.069,1.748,1.748,0,0,0-.8-.8A2.974,2.974,0,0,0,75.561,28a3.787,3.787,0,0,0-.98.178,6.9,6.9,0,0,0-1.425.712v.891l.356.089A2.469,2.469,0,0,0,73.958,29.069Z" transform="translate(-7.965 -24.438)" fill="#fff"/>
        <path id="Path_141" data-name="Path 141" d="M79.9,33.886v-.356h.623a.327.327,0,0,0,.267-.089.087.087,0,0,0,.089-.089.667.667,0,0,0,.089-.445V25.87c0-.534,0-.8-.089-.891l-.089-.089A5.207,5.207,0,0,0,79.9,24.8v-.356A6.421,6.421,0,0,0,81.948,24h.178v8.906a.964.964,0,0,0,.089.534.087.087,0,0,0,.089.089.311.311,0,0,0,.178.089H83.2v.356h-1.6A3.331,3.331,0,0,0,79.9,33.886Z" transform="translate(-8.742 -24)" fill="#fff"/>
        <path id="Path_142" data-name="Path 142" d="M85.792,28.791a1.617,1.617,0,0,1,1.247-.534,1.436,1.436,0,0,1,1.158.534,2.547,2.547,0,0,1,.445,1.514v.267h-3.3A2.868,2.868,0,0,1,85.792,28.791Zm3.74,4.364a3.628,3.628,0,0,1-.98.534,2.6,2.6,0,0,1-.8.178,2.465,2.465,0,0,1-1.158-.267,1.736,1.736,0,0,1-.891-.891,3.444,3.444,0,0,1-.356-1.514h2.137a7.661,7.661,0,0,0,1.425-.089c.267,0,.534-.089.891-.089v-.445a2.974,2.974,0,0,0-.267-1.336,2.307,2.307,0,0,0-.891-.98,2.513,2.513,0,0,0-1.336-.356,4.512,4.512,0,0,0-1.158.178,3.609,3.609,0,0,0-.8.445,3.873,3.873,0,0,0-.623.534,2.088,2.088,0,0,0-.445.891,3.692,3.692,0,0,0-.178,1.425,3.39,3.39,0,0,0,.356,1.692,1.95,1.95,0,0,0,1.158,1.069,4.006,4.006,0,0,0,2.494.267,6.137,6.137,0,0,0,.712-.267l.712-.356.178-.445Z" transform="translate(-9.202 -24.427)" fill="#fff"/>
        <path id="Path_143" data-name="Path 143" d="M94.845,33.662a7.711,7.711,0,0,0-.178-.891c0-.089-.178-.534-.267-1.069l.356-.178a3.422,3.422,0,0,0,.98,1.514,2.26,2.26,0,0,0,1.425.356,1.9,1.9,0,0,0,1.069-.267,2.1,2.1,0,0,0,.712-.8,2.845,2.845,0,0,0,.267-1.247,2.266,2.266,0,0,0-.445-1.425,1.617,1.617,0,0,0-1.247-.534,1.13,1.13,0,0,0-.534.089,1.779,1.779,0,0,0-.712.267l-.089-.089.178-.712h.712a1.494,1.494,0,0,0,1.247-.534,2.188,2.188,0,0,0,.445-1.336,1.475,1.475,0,0,0-.445-1.069,1.876,1.876,0,0,0-1.158-.445,2.6,2.6,0,0,0-.8.178,1.939,1.939,0,0,0-.712.445,8.873,8.873,0,0,0-.356.98h-.445l.445-1.6a1.822,1.822,0,0,1,.891-.623,3.692,3.692,0,0,1,1.425-.267,2.3,2.3,0,0,1,1.781.623,1.772,1.772,0,0,1,.623,1.425,1.959,1.959,0,0,1-.356,1.158A7.024,7.024,0,0,1,98.5,28.764a2.959,2.959,0,0,1,1.158.356,1.823,1.823,0,0,1,.712.712,1.8,1.8,0,0,1,.267.98,2.873,2.873,0,0,1-.534,1.6,3.24,3.24,0,0,1-1.425,1.247,3.814,3.814,0,0,1-1.959.534,2.746,2.746,0,0,1-.891-.089C95.469,33.929,95.2,33.84,94.845,33.662Z" transform="translate(-10.329 -24.044)" fill="#fff"/>
      </g>
    </g>
  </g>
  <g id="Group_180" data-name="Group 180" transform="translate(44.173)">
    <path id="Path_144" data-name="Path 144" d="M49.8,9.907l2.226.445L51.759.2Z" transform="translate(-49.622 -0.022)" fill="#0d0205"/>
    <path id="Path_145" data-name="Path 145" d="M52,10.509h0l-2.316-.445c-.089,0-.089,0-.089-.089V9.8L51.559.089A.311.311,0,0,1,51.737,0a.192.192,0,0,1,.178.178l.267,10.153c0,.089,0,.089-.089.178Zm-2.048-.8,1.87.356-.267-8.371Z" transform="translate(-49.6)" fill="#fff"/>
  </g>
  <g id="Group_181" data-name="Group 181" transform="translate(35.891 2.872)">
    <path id="Path_146" data-name="Path 146" d="M46.089,10.951c-.089,0-.089,0-.089-.089-.089-.089-.623-.356-1.069-.623a6.566,6.566,0,0,1-.98-.534C43.773,9.526,40.834,4.45,40.3,3.47V3.292c.089-.089.178-.089.178,0C44.04,5.073,48.315,7.21,48.4,7.3s.534.891.8,1.247a.327.327,0,0,1-.089.267c-1.069.8-2.761,2.048-2.85,2.137a.123.123,0,0,0-.178,0ZM40.834,3.737c1.336,2.316,3.206,5.433,3.384,5.7a5.666,5.666,0,0,0,.891.534,5.855,5.855,0,0,0,1.069.534c.445-.356,2.137-1.6,2.672-1.959-.267-.445-.534-.98-.623-1.069C47.959,7.3,43.862,5.251,40.834,3.737Z" transform="translate(-40.3 -3.225)" fill="#fff"/>
  </g>
  <path id="Path_147" data-name="Path 147" d="M54.37,10.536l-6.947,2.672L46.8,11.426,49.65,9.2a.654.654,0,0,0,.089.534C50.184,10.269,54.37,10.536,54.37,10.536Z" transform="translate(-5.121 -1.007)" fill="#0d0205"/>
  <path id="Path_148" data-name="Path 148" d="M47.4,13.368h0a.311.311,0,0,1-.178-.089L46.6,11.5c0-.089,0-.178.089-.178l2.939-2.137c0-.178.089-.178.178-.089a.276.276,0,0,1,.089.178.314.314,0,0,0,.089.356c.267.356,2.494.623,4.453.712a.192.192,0,0,1,.178.178c0,.089,0,.178-.089.178L47.4,13.368Zm-.445-1.959.534,1.514,6.056-2.316c-1.336-.089-3.562-.356-3.919-.8a.327.327,0,0,1-.089-.267Z" transform="translate(-5.099 -0.988)" fill="#fff"/>
  <path id="Path_149" data-name="Path 149" d="M49.326,12.376,47.367,13,47.1,7.923l.891-.623Z" transform="translate(-5.153 -0.799)" fill="#0d0205"/>
  <path id="Path_150" data-name="Path 150" d="M47.345,13.156h-.089c-.089,0-.089-.089-.089-.178L46.9,7.9c0-.089,0-.089.089-.178L47.88,7.1h.178a.087.087,0,0,1,.089.089l1.336,5.076c0,.089,0,.178-.089.178l-2.048.712Zm-.089-5.165.267,4.72,1.514-.534L47.88,7.545Z" transform="translate(-5.132 -0.777)" fill="#fff"/>
  <g id="Group_182" data-name="Group 182" transform="translate(44.44 11.578)">
    <path id="Path_151" data-name="Path 151" d="M49.9,13" transform="translate(-49.9 -13)" fill="#fff" stroke="#000" stroke-linejoin="round" stroke-width="1"/>
  </g>
  <path id="Path_152" data-name="Path 152" d="M49.254,12.376,47.74,7.3H46.85L44,9.972l3.206-2.4s.98,5.789.98,6.056l1.069-.98.178-.356" transform="translate(-4.814 -0.799)"/>
  <path id="Path_153" data-name="Path 153" d="M48.145,13.868h0a.192.192,0,0,1-.178-.178c0-.178-.8-4.631-.98-5.789l-3.028,2.226c-.089.089-.178,0-.267,0s-.089-.178,0-.267l2.85-2.672.089-.089h.891a.311.311,0,0,1,.178.089l1.514,5.076.267.178L49.3,12.8h0l-1.069.98A.087.087,0,0,1,48.145,13.868Zm-.98-6.412c.089,0,.089.089.089.178s.712,4.453.98,5.7l.891-.8.089-.178-.178.089L47.521,7.456Zm-.356,0-.8.8,1.069-.712h-.267Z" transform="translate(-4.773 -0.777)" fill="#fff"/>
  <g id="Group_183" data-name="Group 183" transform="translate(39.05 6.603)">
    <rect id="Rectangle_90" data-name="Rectangle 90" width="3.919" height="0.178" transform="translate(0 2.522) rotate(-40.055)" fill="#fff"/>
  </g>
  <path id="Path_154" data-name="Path 154" d="M59.164,11.291,49.1,12.8l3.206-2.4h.534Z" transform="translate(-5.372 -1.138)" fill="#0d0205"/>
  <path id="Path_155" data-name="Path 155" d="M49.078,12.972c-.089,0-.178,0-.178-.089s0-.178.089-.178L52.2,10.3h.623l6.412.98a.178.178,0,1,1,0,.356L49.078,12.972Zm3.3-2.4-2.583,1.959,8.193-1.247-5.165-.8Z" transform="translate(-5.35 -1.127)" fill="#fff"/>
  <g id="Group_184" data-name="Group 184" transform="translate(43.199 11.649)">
    <line id="Line_1" data-name="Line 1" x1="0.356" y2="1.247" transform="translate(0.173 0.017)" fill="#fff"/>
    <rect id="Rectangle_91" data-name="Rectangle 91" width="1.247" height="0.356" transform="matrix(0.301, -0.954, 0.954, 0.301, 0, 1.189)" fill="#fff"/>
  </g>
  <g id="Group_185" data-name="Group 185" transform="translate(44.894 0.206)">
    <rect id="Rectangle_92" data-name="Rectangle 92" width="8.728" height="0.178" transform="matrix(0.156, -0.988, 0.988, 0.156, 0, 8.62)" fill="#fff"/>
  </g>
  <g id="Group_186" data-name="Group 186" transform="translate(44.351 8.371)">
    <path id="Path_156" data-name="Path 156" d="M49.8,9.4" transform="translate(-49.8 -9.4)" fill="#fff" stroke="#000" stroke-linejoin="round" stroke-width="1"/>
  </g>
  <path id="Path_157" data-name="Path 157" d="M49.1,10.4c.178-.089.178,0,.178,0,.178.089-.089,1.6-.178,2.316l2.85-2.137" transform="translate(-5.372 -1.133)"/>
  <path id="Path_158" data-name="Path 158" d="M49.078,12.961h0c-.178-.089-.178-.089-.178-.178,0-.178.089-.356.089-.623.089-.534.178-1.425.178-1.6v-.089a.087.087,0,0,0,.089.089h0l-.178-.356h.267a.087.087,0,0,1,.089.089c.178.178.089.534-.089,1.87v.178l2.494-1.87.178.267-2.85,2.137C49.167,12.961,49.167,12.961,49.078,12.961Zm.089-2.316Z" transform="translate(-5.35 -1.116)" fill="#fff"/>
</svg>
