<svg id="logo-1" xmlns="http://www.w3.org/2000/svg" width="144.047" height="15" viewBox="0 0 144.047 15">
  <g id="Group_147" data-name="Group 147" transform="translate(0 1.381)">
    <rect id="Rectangle_82" data-name="Rectangle 82" width="2.997" height="13.066" transform="translate(0 0.168)" fill="#fff"/>
    <path id="Path_102" data-name="Path 102" d="M32.405,14.369a5.147,5.147,0,0,0-2.222-2.795c-1.549-1.111-3.3-2.492-4.007-3.031C25.738,8.206,24.694,7.4,24.694,7.2c0-.539.236-.572.943-.572.842,0,1.616-.034,2.526,0,1.448.034,2.155,0,2.155,0V4.3H24.66C22.909,4.3,22,5.142,22,6.421a3.919,3.919,0,0,0,1.818,3.4c1.28,1.01,3.4,2.559,4.411,3.367.842.64,1.313,1.246,1.313,1.684,0,.505-.438.606-1.549.673-.505.034-4.31-.1-4.31-.1l-.067,2.391s1.111.034,3,0H28.6a5.338,5.338,0,0,0,2.559-.64,2.386,2.386,0,0,0,1.28-1.751A2.3,2.3,0,0,0,32.405,14.369Z" transform="translate(-14.592 -4.233)" fill="#fff"/>
    <path id="Path_103" data-name="Path 103" d="M67.624,11.772h3.839V9.549H67.59V7.259a18.528,18.528,0,0,1,3.233-.168,32.918,32.918,0,0,1,3.637.135L74.022,4.8s-2.088-.1-3.468-.1c-3.94,0-5.253.1-5.253.1V18.069s2.425.034,5.489.034c1.852,0,3.031-.034,3.031-.034l.673-2.425a30.964,30.964,0,0,1-3.4.2,16.855,16.855,0,0,1-3.435-.2V11.772Z" transform="translate(-43.311 -4.498)" fill="#fff"/>
    <path id="Path_104" data-name="Path 104" d="M111.278,4.435s-2.29-.135-4.984-.135-5.287.135-5.287.135L100.3,6.859s2.761-.168,4.108-.168h.572l-.034,10.944h2.728l-.034-10.944h.37c.977,0,4.209.168,4.209.168Z" transform="translate(-66.525 -4.233)" fill="#fff"/>
    <path id="Path_105" data-name="Path 105" d="M142.723,5.3,137.2,18.13h2.593l.876-2.189h6.566l.943,2.189h2.694L144.911,5.3Zm-1.179,8.688,2.324-6.1,2.627,6.129Z" transform="translate(-90.999 -4.896)" fill="#fff"/>
    <path id="Path_106" data-name="Path 106" d="M197.35,4.1V7.535A16.555,16.555,0,0,0,191.962,4.1H189.1V17.334h2.189V6.356s3.839,1.212,5.085,3.4c1.448,2.559.977,7.61.977,7.61h2.357V4.1Z" transform="translate(-125.422 -4.1)" fill="#fff"/>
  </g>
  <g id="Group_148" data-name="Group 148" transform="translate(84.219 1.785)">
    <path id="Path_107" data-name="Path 107" d="M271.323,5.334V8.566A8.818,8.818,0,0,1,275.2,5.334h2.492v12.83H275.33V7.455a10.963,10.963,0,0,0-3.064,3.266c-1.448,2.458-.977,7.375-.977,7.375H269.1V5.3h2.223Z" transform="translate(-262.702 -5.3)" fill="#fff"/>
    <path id="Path_108" data-name="Path 108" d="M252.525,5.334V8.566A8.818,8.818,0,0,1,256.4,5.334h2.324v12.83h-2.189V7.455a10.963,10.963,0,0,0-3.064,3.266c-1.448,2.458-.977,7.375-.977,7.375H250.1V5.3h2.425Z" transform="translate(-250.1 -5.3)" fill="#fff"/>
  </g>
  <path id="Path_109" data-name="Path 109" d="M385.351,4.647H383.97l-.37-2.425V0h2.121V2.189Z" transform="translate(-254.426)" fill="#fff"/>
  <path id="Path_110" data-name="Path 110" d="M308.357,11.071h3.772V8.882H308.29V6.626a18,18,0,0,1,3.165-.168,31.4,31.4,0,0,1,3.569.135L314.587,4.2s-2.054-.1-3.435-.1c-3.873,0-5.152.1-5.152.1V17.267s2.391.034,5.388.034c1.852,0,2.963-.034,2.963-.034l.64-2.391a30.511,30.511,0,0,1-3.334.2,16.4,16.4,0,0,1-3.367-.2V11.071Z" transform="translate(-202.957 -2.719)" fill="#fff"/>
  <path id="Path_111" data-name="Path 111" d="M352.282,4.5V7.867A16.156,16.156,0,0,0,346.995,4.5H344.2v13h2.155V6.689s3.772,1.212,4.984,3.334c1.448,2.526.943,7.476.943,7.476h2.324V4.5Z" transform="translate(-228.293 -2.985)" fill="#fff"/>
  <path id="Path_112" data-name="Path 112" d="M407.371,13.634a5.122,5.122,0,0,0-2.189-2.761c-1.515-1.111-3.266-2.458-3.94-3-.4-.337-1.482-1.111-1.482-1.313,0-.539.236-.572.943-.572.842,0,1.583-.034,2.492,0,1.448.034,2.121,0,2.121,0V3.7h-5.59c-1.717,0-2.627.842-2.627,2.088a3.823,3.823,0,0,0,1.785,3.334c1.246.977,3.334,2.526,4.344,3.3.842.64,1.313,1.212,1.313,1.65,0,.505-.438.572-1.515.64-.505.034-4.209-.1-4.209-.1l-.067,2.357h4.883a4.981,4.981,0,0,0,2.492-.64,2.518,2.518,0,0,0,1.28-1.717A3.132,3.132,0,0,0,407.371,13.634Z" transform="translate(-263.38 -2.454)" fill="#fff"/>
</svg>
