<svg xmlns="http://www.w3.org/2000/svg" width="60" height="25" viewBox="0 0 60 25">
  <g id="Group_212" data-name="Group 212" transform="translate(-59.23 -3)">
    <rect id="Rectangle_109" data-name="Rectangle 109" width="60" height="25" transform="translate(59.23 3)" fill="none"/>
    <path id="youtube" d="M26.747,8.844a5.823,5.823,0,0,0-1.076-2.68,3.867,3.867,0,0,0-2.707-1.145c-3.778-.274-9.45-.274-9.45-.274H13.5s-5.672,0-9.45.274A3.867,3.867,0,0,0,1.347,6.163,5.784,5.784,0,0,0,.275,8.844a40.962,40.962,0,0,0-.269,4.374v2.047a41.088,41.088,0,0,0,.269,4.374,5.855,5.855,0,0,0,1.071,2.68,4.609,4.609,0,0,0,2.981,1.156c2.164.206,9.186.269,9.186.269s5.677-.01,9.455-.279a3.866,3.866,0,0,0,2.707-1.145,5.823,5.823,0,0,0,1.076-2.68,40.941,40.941,0,0,0,.269-4.374V13.218a41.863,41.863,0,0,0-.274-4.374ZM10.717,17.75V10.157l7.3,3.81-7.3,3.783Z" transform="translate(76.224 1.256)" fill="#fff" opacity="0.8"/>
  </g>
</svg>
